AnnotationMono_Regular.ufo
<glyph name="exclam" format="2">
  <advance width="500"/>
  <unicode hex="0021"/>
  <outline>
    <contour>
      <point x="251" y="608" type="curve" smooth="yes"/>
      <point x="279" y="608"/>
      <point x="293" y="592"/>
      <point x="293" y="565" type="curve" smooth="yes"/>
      <point x="294" y="513"/>
      <point x="289" y="418"/>
      <point x="287" y="382" type="curve" smooth="yes"/>
      <point x="283" y="314"/>
      <point x="282" y="268"/>
      <point x="281" y="252" type="curve" smooth="yes"/>
      <point x="279" y="204"/>
      <point x="277" y="172"/>
      <point x="250" y="172" type="curve" smooth="yes"/>
      <point x="222" y="172"/>
      <point x="220" y="202"/>
      <point x="217" y="253" type="curve" smooth="yes"/>
      <point x="217" y="261"/>
      <point x="214" y="339"/>
      <point x="211" y="382" type="curve" smooth="yes"/>
      <point x="210" y="402"/>
      <point x="206" y="508"/>
      <point x="204" y="565" type="curve" smooth="yes"/>
      <point x="203" y="588"/>
      <point x="217" y="608"/>
    </contour>
    <component base="period"/>
  </outline>
</glyph>
<glyph name="numbersign" format="2">
  <advance width="500"/>
  <unicode hex="0023"/>
  <outline>
    <contour>
      <point x="234" y="605" type="curve" smooth="yes"/>
      <point x="257" y="605"/>
      <point x="264" y="579"/>
      <point x="257" y="557" type="curve" smooth="yes"/>
      <point x="253" y="540"/>
      <point x="212" y="385"/>
      <point x="183" y="276" type="curve" smooth="yes"/>
      <point x="169" y="222"/>
      <point x="138" y="110"/>
      <point x="128" y="76" type="curve" smooth="yes"/>
      <point x="111" y="22"/>
      <point x="102" y="-7"/>
      <point x="69" y="-7" type="curve" smooth="yes"/>
      <point x="42" y="-7"/>
      <point x="48" y="29"/>
      <point x="63" y="70" type="curve" smooth="yes"/>
      <point x="77" y="111"/>
      <point x="106" y="229"/>
      <point x="137" y="346" type="curve" smooth="yes"/>
      <point x="185" y="525"/>
      <point x="185" y="532"/>
      <point x="197" y="563" type="curve" smooth="yes"/>
      <point x="209" y="596"/>
      <point x="218" y="605"/>
    </contour>
    <contour>
      <point x="423" y="605" type="curve" smooth="yes"/>
      <point x="445" y="605"/>
      <point x="450" y="588"/>
      <point x="446" y="563" type="curve" smooth="yes"/>
      <point x="441" y="532"/>
      <point x="436" y="525"/>
      <point x="388" y="346" type="curve" smooth="yes"/>
      <point x="357" y="229"/>
      <point x="327" y="110"/>
      <point x="316" y="70" type="curve" smooth="yes"/>
      <point x="304" y="25"/>
      <point x="297" y="-7"/>
      <point x="259" y="-7" type="curve" smooth="yes"/>
      <point x="239" y="-7"/>
      <point x="238" y="28"/>
      <point x="253" y="74" type="curve" smooth="yes"/>
      <point x="279" y="157"/>
      <point x="292" y="222"/>
      <point x="306" y="276" type="curve" smooth="yes"/>
      <point x="334" y="386"/>
      <point x="377" y="538"/>
      <point x="380" y="555" type="curve" smooth="yes"/>
      <point x="385" y="577"/>
      <point x="404" y="605"/>
    </contour>
    <contour>
      <point x="52" y="401" type="curve" smooth="yes"/>
      <point x="52" y="417"/>
      <point x="65" y="434"/>
      <point x="94" y="434" type="curve" smooth="yes"/>
      <point x="146" y="434"/>
      <point x="234" y="432"/>
      <point x="246" y="432" type="curve" smooth="yes"/>
      <point x="279" y="432"/>
      <point x="409" y="435"/>
      <point x="441" y="433" type="curve" smooth="yes"/>
      <point x="464" y="432"/>
      <point x="478" y="419"/>
      <point x="478" y="400" type="curve" smooth="yes"/>
      <point x="478" y="379"/>
      <point x="461" y="377"/>
      <point x="426" y="376" type="curve" smooth="yes"/>
      <point x="379" y="375"/>
      <point x="346" y="372"/>
      <point x="268" y="375" type="curve" smooth="yes"/>
      <point x="237" y="376"/>
      <point x="108" y="374"/>
      <point x="90" y="377" type="curve" smooth="yes"/>
      <point x="62" y="381"/>
      <point x="52" y="385"/>
    </contour>
    <contour>
      <point x="32" y="201" type="curve" smooth="yes"/>
      <point x="32" y="217"/>
      <point x="45" y="224"/>
      <point x="74" y="224" type="curve" smooth="yes"/>
      <point x="126" y="224"/>
      <point x="234" y="222"/>
      <point x="246" y="222" type="curve" smooth="yes"/>
      <point x="279" y="222"/>
      <point x="379" y="225"/>
      <point x="411" y="223" type="curve" smooth="yes"/>
      <point x="434" y="222"/>
      <point x="448" y="219"/>
      <point x="448" y="200" type="curve" smooth="yes"/>
      <point x="448" y="179"/>
      <point x="431" y="167"/>
      <point x="396" y="166" type="curve" smooth="yes"/>
      <point x="349" y="165"/>
      <point x="275" y="166"/>
      <point x="238" y="165" type="curve" smooth="yes"/>
      <point x="207" y="165"/>
      <point x="88" y="164"/>
      <point x="70" y="167" type="curve" smooth="yes"/>
      <point x="42" y="171"/>
      <point x="32" y="185"/>
    </contour>
  </outline>
</glyph>
<glyph name="dollar" format="2">
  <advance width="500"/>
  <unicode hex="0024"/>
  <outline>
    <contour>
      <point x="262" y="615" type="curve" smooth="yes"/>
      <point x="338" y="615"/>
      <point x="376" y="604"/>
      <point x="412" y="584" type="curve" smooth="yes"/>
      <point x="440" y="568"/>
      <point x="441" y="544"/>
      <point x="430" y="531" type="curve" smooth="yes"/>
      <point x="420" y="517"/>
      <point x="395" y="525"/>
      <point x="378" y="534" type="curve" smooth="yes"/>
      <point x="360" y="545"/>
      <point x="342" y="556"/>
      <point x="261" y="556" type="curve" smooth="yes"/>
      <point x="189" y="556"/>
      <point x="144" y="516"/>
      <point x="144" y="437" type="curve" smooth="yes"/>
      <point x="144" y="345"/>
      <point x="184" y="333"/>
      <point x="265" y="333" type="curve" smooth="yes"/>
      <point x="332" y="333"/>
      <point x="371" y="325"/>
      <point x="410" y="297" type="curve" smooth="yes"/>
      <point x="440" y="275"/>
      <point x="460" y="241"/>
      <point x="460" y="189" type="curve" smooth="yes"/>
      <point x="460" y="129"/>
      <point x="445" y="84"/>
      <point x="415" y="51" type="curve" smooth="yes"/>
      <point x="381" y="13"/>
      <point x="322" y="-9"/>
      <point x="245" y="-9" type="curve" smooth="yes"/>
      <point x="178" y="-9"/>
      <point x="113" y="27"/>
      <point x="79" y="64" type="curve" smooth="yes"/>
      <point x="60" y="85"/>
      <point x="55" y="115"/>
      <point x="80" y="129" type="curve" smooth="yes"/>
      <point x="105" y="145"/>
      <point x="121" y="113"/>
      <point x="136" y="101" type="curve" smooth="yes"/>
      <point x="180" y="61"/>
      <point x="219" y="54"/>
      <point x="247" y="54" type="curve" smooth="yes"/>
      <point x="305" y="54"/>
      <point x="346" y="73"/>
      <point x="368" y="96" type="curve" smooth="yes"/>
      <point x="388" y="118"/>
      <point x="400" y="147"/>
      <point x="400" y="177" type="curve" smooth="yes"/>
      <point x="400" y="201"/>
      <point x="391" y="226"/>
      <point x="374" y="243" type="curve" smooth="yes"/>
      <point x="355" y="261"/>
      <point x="321" y="272"/>
      <point x="274" y="272" type="curve" smooth="yes"/>
      <point x="138" y="271"/>
      <point x="84" y="317"/>
      <point x="84" y="439" type="curve" smooth="yes"/>
      <point x="84" y="562"/>
      <point x="175" y="615"/>
    </contour>
    <contour>
      <point x="280" y="682" type="curve" smooth="yes"/>
      <point x="286" y="682"/>
      <point x="303" y="674"/>
      <point x="303" y="641" type="curve" smooth="yes"/>
      <point x="304" y="523"/>
      <point x="306" y="511"/>
      <point x="303" y="301" type="curve" smooth="yes"/>
      <point x="301" y="96"/>
      <point x="303" y="115"/>
      <point x="304" y="-45" type="curve" smooth="yes"/>
      <point x="304" y="-83"/>
      <point x="304" y="-108"/>
      <point x="275" y="-108" type="curve" smooth="yes"/>
      <point x="245" y="-108"/>
      <point x="241" y="-76"/>
      <point x="242" y="-44" type="curve" smooth="yes"/>
      <point x="242" y="-38"/>
      <point x="240" y="70"/>
      <point x="243" y="281" type="curve" smooth="yes"/>
      <point x="246" y="534"/>
      <point x="242" y="561"/>
      <point x="243" y="636" type="curve" smooth="yes"/>
      <point x="243" y="657"/>
      <point x="251" y="683"/>
    </contour>
  </outline>
</glyph>
<glyph name="percent" format="2">
  <advance width="500"/>
  <unicode hex="0025"/>
  <outline>
    <contour>
      <point x="440" y="613" type="curve" smooth="yes"/>
      <point x="446" y="610"/>
      <point x="453" y="596"/>
      <point x="443" y="565" type="curve" smooth="yes"/>
      <point x="419" y="491"/>
      <point x="390" y="451"/>
      <point x="284" y="294" type="curve" smooth="yes"/>
      <point x="190" y="155"/>
      <point x="178" y="146"/>
      <point x="123" y="28" type="curve" smooth="yes"/>
      <point x="107" y="-7"/>
      <point x="94" y="-28"/>
      <point x="66" y="-13" type="curve" smooth="yes"/>
      <point x="38" y="2"/>
      <point x="49" y="32"/>
      <point x="65" y="60" type="curve" smooth="yes"/>
      <point x="68" y="65"/>
      <point x="101" y="137"/>
      <point x="218" y="307" type="curve" smooth="yes"/>
      <point x="344" y="491"/>
      <point x="348" y="507"/>
      <point x="384" y="591" type="curve" smooth="yes"/>
      <point x="392" y="609"/>
      <point x="413" y="628"/>
    </contour>
    <contour>
      <point x="234" y="477" type="curve" smooth="yes"/>
      <point x="235" y="431"/>
      <point x="227" y="413"/>
      <point x="208" y="390" type="curve" smooth="yes"/>
      <point x="190" y="366"/>
      <point x="165" y="354"/>
      <point x="136" y="354" type="curve" smooth="yes"/>
      <point x="108" y="355"/>
      <point x="87" y="362"/>
      <point x="73" y="375" type="curve" smooth="yes"/>
      <point x="54" y="394"/>
      <point x="42" y="413"/>
      <point x="42" y="476" type="curve" smooth="yes"/>
      <point x="42" y="512"/>
      <point x="49" y="537"/>
      <point x="68" y="566" type="curve" smooth="yes"/>
      <point x="83" y="589"/>
      <point x="106" y="605"/>
      <point x="139" y="604" type="curve" smooth="yes"/>
      <point x="167" y="603"/>
      <point x="191" y="594"/>
      <point x="205" y="576" type="curve" smooth="yes"/>
      <point x="222" y="548"/>
      <point x="234" y="522"/>
    </contour>
    <contour>
      <point x="183" y="475" type="curve" smooth="yes"/>
      <point x="183" y="502"/>
      <point x="183" y="511"/>
      <point x="172" y="529" type="curve" smooth="yes"/>
      <point x="167" y="536"/>
      <point x="154" y="547"/>
      <point x="138" y="547" type="curve" smooth="yes"/>
      <point x="127" y="547"/>
      <point x="117" y="539"/>
      <point x="107" y="526" type="curve" smooth="yes"/>
      <point x="101" y="517"/>
      <point x="96" y="503"/>
      <point x="96" y="475" type="curve" smooth="yes"/>
      <point x="96" y="443"/>
      <point x="99" y="440"/>
      <point x="104" y="432" type="curve" smooth="yes"/>
      <point x="110" y="422"/>
      <point x="120" y="416"/>
      <point x="136" y="416" type="curve" smooth="yes"/>
      <point x="155" y="416"/>
      <point x="164" y="424"/>
      <point x="172" y="435" type="curve" smooth="yes"/>
      <point x="178" y="443"/>
      <point x="183" y="455"/>
    </contour>
    <contour>
      <point x="455" y="126" type="curve" smooth="yes"/>
      <point x="456" y="80"/>
      <point x="448" y="52"/>
      <point x="429" y="29" type="curve" smooth="yes"/>
      <point x="411" y="5"/>
      <point x="386" y="-7"/>
      <point x="357" y="-7" type="curve" smooth="yes"/>
      <point x="329" y="-6"/>
      <point x="308" y="1"/>
      <point x="294" y="14" type="curve" smooth="yes"/>
      <point x="275" y="33"/>
      <point x="263" y="62"/>
      <point x="263" y="125" type="curve" smooth="yes"/>
      <point x="263" y="161"/>
      <point x="270" y="176"/>
      <point x="289" y="205" type="curve" smooth="yes"/>
      <point x="304" y="228"/>
      <point x="327" y="244"/>
      <point x="360" y="243" type="curve" smooth="yes"/>
      <point x="388" y="242"/>
      <point x="412" y="233"/>
      <point x="426" y="215" type="curve" smooth="yes"/>
      <point x="443" y="187"/>
      <point x="455" y="171"/>
    </contour>
    <contour>
      <point x="404" y="124" type="curve" smooth="yes"/>
      <point x="404" y="144"/>
      <point x="404" y="151"/>
      <point x="393" y="169" type="curve" smooth="yes"/>
      <point x="388" y="176"/>
      <point x="375" y="186"/>
      <point x="359" y="186" type="curve" smooth="yes"/>
      <point x="348" y="186"/>
      <point x="338" y="178"/>
      <point x="328" y="165" type="curve" smooth="yes"/>
      <point x="322" y="156"/>
      <point x="317" y="141"/>
      <point x="317" y="124" type="curve" smooth="yes"/>
      <point x="317" y="92"/>
      <point x="320" y="79"/>
      <point x="325" y="71" type="curve" smooth="yes"/>
      <point x="331" y="61"/>
      <point x="341" y="55"/>
      <point x="357" y="55" type="curve" smooth="yes"/>
      <point x="376" y="55"/>
      <point x="386" y="63"/>
      <point x="393" y="74" type="curve" smooth="yes"/>
      <point x="401" y="85"/>
      <point x="404" y="94"/>
    </contour>
  </outline>
</glyph>
<glyph name="ampersand" format="2">
  <advance width="500"/>
  <unicode hex="0026"/>
  <outline>
    <contour>
      <point x="88" y="538" type="curve" smooth="yes"/>
      <point x="88" y="572"/>
      <point x="124" y="612"/>
      <point x="178" y="612" type="curve" smooth="yes"/>
      <point x="281" y="612"/>
      <point x="351" y="566"/>
      <point x="351" y="496" type="curve" smooth="yes"/>
      <point x="351" y="426"/>
      <point x="276" y="361"/>
      <point x="220" y="316" type="curve" smooth="yes"/>
      <point x="146" y="258"/>
      <point x="110" y="179"/>
      <point x="110" y="115" type="curve" smooth="yes"/>
      <point x="110" y="45"/>
      <point x="152" y="45"/>
      <point x="194" y="60" type="curve" smooth="yes"/>
      <point x="242" y="77"/>
      <point x="345" y="150"/>
      <point x="362" y="203" type="curve" smooth="yes"/>
      <point x="379" y="257"/>
      <point x="373" y="272"/>
      <point x="383" y="285" type="curve" smooth="yes"/>
      <point x="394" y="299"/>
      <point x="405" y="301"/>
      <point x="415" y="294" type="curve" smooth="yes"/>
      <point x="425" y="287"/>
      <point x="430" y="273"/>
      <point x="427" y="235" type="curve" smooth="yes"/>
      <point x="424" y="177"/>
      <point x="389" y="119"/>
      <point x="326" y="64" type="curve" smooth="yes"/>
      <point x="275" y="20"/>
      <point x="202" y="-14"/>
      <point x="153" y="-14" type="curve" smooth="yes"/>
      <point x="100" y="-14"/>
      <point x="50" y="22"/>
      <point x="50" y="91" type="curve" smooth="yes"/>
      <point x="50" y="144"/>
      <point x="58" y="207"/>
      <point x="96" y="266" type="curve" smooth="yes"/>
      <point x="133" y="325"/>
      <point x="299" y="437"/>
      <point x="299" y="486" type="curve" smooth="yes"/>
      <point x="299" y="536"/>
      <point x="240" y="558"/>
      <point x="182" y="558" type="curve" smooth="yes"/>
      <point x="126" y="558"/>
      <point x="142" y="502"/>
      <point x="171" y="442" type="curve" smooth="yes"/>
      <point x="197" y="387"/>
      <point x="264" y="281"/>
      <point x="321" y="214" type="curve" smooth="yes"/>
      <point x="350" y="180"/>
      <point x="431" y="88"/>
      <point x="460" y="52" type="curve" smooth="yes"/>
      <point x="467" y="43"/>
      <point x="490" y="27"/>
      <point x="482" y="11" type="curve" smooth="yes"/>
      <point x="474" y="-5"/>
      <point x="449" y="-13"/>
      <point x="418" y="6" type="curve" smooth="yes"/>
      <point x="388" y="25"/>
      <point x="263" y="185"/>
      <point x="250" y="201" type="curve" smooth="yes"/>
      <point x="203" y="261"/>
      <point x="140" y="375"/>
      <point x="127" y="403" type="curve" smooth="yes"/>
      <point x="104" y="453"/>
      <point x="88" y="497"/>
    </contour>
  </outline>
</glyph>
<glyph name="quotesingle" format="2">
  <advance width="500"/>
  <unicode hex="0027"/>
  <outline>
    <contour>
      <point x="245" y="403" type="curve" smooth="yes"/>
      <point x="232" y="403"/>
      <point x="213" y="414"/>
      <point x="215" y="444" type="curve" smooth="yes"/>
      <point x="217" y="478"/>
      <point x="214" y="498"/>
      <point x="214" y="563" type="curve" smooth="yes"/>
      <point x="214" y="577"/>
      <point x="225" y="605"/>
      <point x="251" y="605" type="curve" smooth="yes"/>
      <point x="270" y="605"/>
      <point x="286" y="588"/>
      <point x="286" y="563" type="curve" smooth="yes"/>
      <point x="286" y="506"/>
      <point x="285" y="473"/>
      <point x="279" y="441" type="curve" smooth="yes"/>
      <point x="275" y="417"/>
      <point x="263" y="402"/>
    </contour>
  </outline>
</glyph>
<glyph name="parenleft" format="2">
  <advance width="500"/>
  <unicode hex="0028"/>
  <outline>
    <contour>
      <point x="126" y="291" type="curve" smooth="yes"/>
      <point x="126" y="607"/>
      <point x="331" y="673"/>
      <point x="385" y="674" type="curve" smooth="yes"/>
      <point x="424" y="675"/>
      <point x="436" y="667"/>
      <point x="436" y="646" type="curve" smooth="yes"/>
      <point x="436" y="628"/>
      <point x="420" y="619"/>
      <point x="389" y="619" type="curve" smooth="yes"/>
      <point x="352" y="619"/>
      <point x="191" y="567"/>
      <point x="191" y="294" type="curve" smooth="yes"/>
      <point x="191" y="20"/>
      <point x="324" y="-41"/>
      <point x="404" y="-41" type="curve" smooth="yes"/>
      <point x="426" y="-41"/>
      <point x="436" y="-59"/>
      <point x="432" y="-75" type="curve" smooth="yes"/>
      <point x="429" y="-89"/>
      <point x="408" y="-105"/>
      <point x="360" y="-95" type="curve" smooth="yes"/>
      <point x="306" y="-84"/>
      <point x="127" y="-26"/>
    </contour>
  </outline>
</glyph>
<glyph name="asterisk" format="2">
  <advance width="500"/>
  <unicode hex="002A"/>
  <outline>
    <contour>
      <point x="251" y="468" type="curve" smooth="yes"/>
      <point x="267" y="468"/>
      <point x="280" y="455"/>
      <point x="280" y="426" type="curve" smooth="yes"/>
      <point x="280" y="403"/>
      <point x="283" y="366"/>
      <point x="266" y="329" type="curve"/>
      <point x="289" y="367"/>
      <point x="354" y="396"/>
      <point x="365" y="401" type="curve" smooth="yes"/>
      <point x="392" y="412"/>
      <point x="406" y="407"/>
      <point x="414" y="393" type="curve" smooth="yes"/>
      <point x="422" y="379"/>
      <point x="415" y="363"/>
      <point x="391" y="347" type="curve" smooth="yes"/>
      <point x="371" y="334"/>
      <point x="323" y="307"/>
      <point x="283" y="300" type="curve"/>
      <point x="321" y="297"/>
      <point x="361" y="271"/>
      <point x="382" y="258" type="curve" smooth="yes"/>
      <point x="412" y="241"/>
      <point x="422" y="223"/>
      <point x="413" y="206" type="curve" smooth="yes"/>
      <point x="404" y="190"/>
      <point x="387" y="188"/>
      <point x="366" y="199" type="curve" smooth="yes"/>
      <point x="350" y="208"/>
      <point x="289" y="235"/>
      <point x="266" y="272" type="curve"/>
      <point x="281" y="232"/>
      <point x="281" y="192"/>
      <point x="279" y="174" type="curve" smooth="yes"/>
      <point x="276" y="150"/>
      <point x="269" y="132"/>
      <point x="250" y="132" type="curve" smooth="yes"/>
      <point x="233" y="132"/>
      <point x="224" y="152"/>
      <point x="222" y="177" type="curve" smooth="yes"/>
      <point x="220" y="197"/>
      <point x="219" y="233"/>
      <point x="234" y="272" type="curve"/>
      <point x="211" y="235"/>
      <point x="150" y="208"/>
      <point x="134" y="199" type="curve" smooth="yes"/>
      <point x="113" y="188"/>
      <point x="96" y="190"/>
      <point x="87" y="206" type="curve" smooth="yes"/>
      <point x="78" y="223"/>
      <point x="88" y="241"/>
      <point x="118" y="258" type="curve" smooth="yes"/>
      <point x="139" y="271"/>
      <point x="179" y="297"/>
      <point x="217" y="300" type="curve"/>
      <point x="177" y="307"/>
      <point x="129" y="334"/>
      <point x="109" y="347" type="curve" smooth="yes"/>
      <point x="85" y="363"/>
      <point x="78" y="379"/>
      <point x="86" y="393" type="curve" smooth="yes"/>
      <point x="94" y="407"/>
      <point x="108" y="412"/>
      <point x="135" y="401" type="curve" smooth="yes"/>
      <point x="146" y="396"/>
      <point x="209" y="367"/>
      <point x="234" y="329" type="curve"/>
      <point x="216" y="373"/>
      <point x="220" y="419"/>
      <point x="222" y="430" type="curve" smooth="yes"/>
      <point x="226" y="458"/>
      <point x="236" y="468"/>
    </contour>
  </outline>
</glyph>
<glyph name="plus" format="2">
  <advance width="500"/>
  <unicode hex="002B"/>
  <outline>
    <contour>
      <point x="52" y="301" type="curve" smooth="yes"/>
      <point x="52" y="317"/>
      <point x="65" y="334"/>
      <point x="94" y="334" type="curve" smooth="yes"/>
      <point x="146" y="334"/>
      <point x="234" y="332"/>
      <point x="246" y="332" type="curve" smooth="yes"/>
      <point x="279" y="332"/>
      <point x="379" y="335"/>
      <point x="411" y="333" type="curve" smooth="yes"/>
      <point x="434" y="332"/>
      <point x="448" y="319"/>
      <point x="448" y="300" type="curve" smooth="yes"/>
      <point x="448" y="280"/>
      <point x="431" y="268"/>
      <point x="396" y="267" type="curve" smooth="yes"/>
      <point x="349" y="266"/>
      <point x="275" y="267"/>
      <point x="238" y="266" type="curve" smooth="yes"/>
      <point x="207" y="266"/>
      <point x="108" y="265"/>
      <point x="90" y="268" type="curve" smooth="yes"/>
      <point x="62" y="272"/>
      <point x="52" y="286"/>
    </contour>
    <contour>
      <point x="251" y="498" type="curve" smooth="yes"/>
      <point x="267" y="498"/>
      <point x="282" y="485"/>
      <point x="283" y="456" type="curve" smooth="yes"/>
      <point x="286" y="411"/>
      <point x="282" y="316"/>
      <point x="283" y="304" type="curve" smooth="yes"/>
      <point x="284" y="290"/>
      <point x="284" y="171"/>
      <point x="282" y="139" type="curve" smooth="yes"/>
      <point x="281" y="116"/>
      <point x="269" y="102"/>
      <point x="250" y="102" type="curve" smooth="yes"/>
      <point x="230" y="102"/>
      <point x="218" y="119"/>
      <point x="217" y="154" type="curve" smooth="yes"/>
      <point x="216" y="201"/>
      <point x="217" y="275"/>
      <point x="216" y="312" type="curve" smooth="yes"/>
      <point x="216" y="343"/>
      <point x="215" y="442"/>
      <point x="218" y="460" type="curve" smooth="yes"/>
      <point x="222" y="488"/>
      <point x="236" y="498"/>
    </contour>
  </outline>
</glyph>
<glyph name="comma" format="2">
  <advance width="500"/>
  <unicode hex="002C"/>
  <anchor x="250" y="45" name="center"/>
  <outline>
    <contour>
      <point x="309" y="46" type="curve" smooth="yes"/>
      <point x="315" y="8"/>
      <point x="309" y="-37"/>
      <point x="289" y="-72" type="curve" smooth="yes"/>
      <point x="260" y="-123"/>
      <point x="202" y="-146"/>
      <point x="146" y="-149" type="curve" smooth="yes"/>
      <point x="123" y="-150"/>
      <point x="113" y="-139"/>
      <point x="113" y="-126" type="curve" smooth="yes"/>
      <point x="113" y="-108"/>
      <point x="131" y="-101"/>
      <point x="151" y="-98" type="curve" smooth="yes"/>
      <point x="190" y="-94"/>
      <point x="234" y="-57"/>
      <point x="234" y="-9" type="curve"/>
      <point x="203" y="-9"/>
      <point x="188" y="17"/>
      <point x="188" y="49" type="curve" smooth="yes"/>
      <point x="188" y="89"/>
      <point x="213" y="105"/>
      <point x="247" y="105" type="curve" smooth="yes"/>
      <point x="287" y="105"/>
      <point x="303" y="82"/>
    </contour>
  </outline>
</glyph>
<glyph name="hyphen" format="2">
  <advance width="500"/>
  <unicode hex="002D"/>
  <outline>
    <contour>
      <point x="52" y="300" type="curve" smooth="yes"/>
      <point x="52" y="316"/>
      <point x="65" y="333"/>
      <point x="94" y="333" type="curve" smooth="yes"/>
      <point x="146" y="333"/>
      <point x="234" y="331"/>
      <point x="246" y="331" type="curve" smooth="yes"/>
      <point x="279" y="331"/>
      <point x="379" y="334"/>
      <point x="411" y="332" type="curve" smooth="yes"/>
      <point x="434" y="331"/>
      <point x="448" y="318"/>
      <point x="448" y="299" type="curve" smooth="yes"/>
      <point x="448" y="278"/>
      <point x="431" y="266"/>
      <point x="396" y="265" type="curve" smooth="yes"/>
      <point x="349" y="264"/>
      <point x="275" y="265"/>
      <point x="238" y="264" type="curve" smooth="yes"/>
      <point x="207" y="264"/>
      <point x="108" y="263"/>
      <point x="90" y="266" type="curve" smooth="yes"/>
      <point x="62" y="270"/>
      <point x="52" y="284"/>
    </contour>
  </outline>
</glyph>
<glyph name="period" format="2">
  <advance width="500"/>
  <unicode hex="002E"/>
  <anchor x="250" y="45" name="center"/>
  <outline>
    <contour>
      <point x="310" y="45" type="curve" smooth="yes"/>
      <point x="310" y="-6"/>
      <point x="290" y="-15"/>
      <point x="250" y="-15" type="curve" smooth="yes"/>
      <point x="209" y="-15"/>
      <point x="190" y="-2"/>
      <point x="190" y="45" type="curve" smooth="yes"/>
      <point x="190" y="90"/>
      <point x="209" y="105"/>
      <point x="250" y="105" type="curve" smooth="yes"/>
      <point x="289" y="105"/>
      <point x="310" y="91"/>
    </contour>
  </outline>
</glyph>
<glyph name="slash" format="2">
  <advance width="500"/>
  <unicode hex="002F"/>
  <outline>
    <contour>
      <point x="440" y="648" type="curve" smooth="yes"/>
      <point x="446" y="645"/>
      <point x="458" y="629"/>
      <point x="443" y="600" type="curve" smooth="yes"/>
      <point x="388" y="495"/>
      <point x="384" y="484"/>
      <point x="284" y="299" type="curve" smooth="yes"/>
      <point x="186" y="119"/>
      <point x="197" y="135"/>
      <point x="123" y="-7" type="curve" smooth="yes"/>
      <point x="105" y="-41"/>
      <point x="94" y="-63"/>
      <point x="66" y="-48" type="curve" smooth="yes"/>
      <point x="38" y="-33"/>
      <point x="49" y="-3"/>
      <point x="65" y="25" type="curve" smooth="yes"/>
      <point x="68" y="30"/>
      <point x="117" y="126"/>
      <point x="218" y="312" type="curve" smooth="yes"/>
      <point x="339" y="534"/>
      <point x="348" y="560"/>
      <point x="384" y="626" type="curve" smooth="yes"/>
      <point x="393" y="644"/>
      <point x="413" y="663"/>
    </contour>
  </outline>
</glyph>
<glyph name="zero" format="2">
  <advance width="500"/>
  <unicode hex="0030"/>
  <anchor x="250" y="0" name="bottom"/>
  <anchor x="250" y="600" name="top"/>
  <outline>
    <contour>
      <point x="250" y="615" type="curve" smooth="yes"/>
      <point x="340" y="615"/>
      <point x="374" y="583"/>
      <point x="406" y="511" type="curve" smooth="yes"/>
      <point x="428" y="464"/>
      <point x="444" y="400"/>
      <point x="444" y="301" type="curve" smooth="yes"/>
      <point x="444" y="207"/>
      <point x="437" y="138"/>
      <point x="414" y="90" type="curve" smooth="yes"/>
      <point x="378" y="14"/>
      <point x="334" y="-16"/>
      <point x="251" y="-16" type="curve" smooth="yes"/>
      <point x="174" y="-16"/>
      <point x="149" y="9"/>
      <point x="109" y="58" type="curve" smooth="yes"/>
      <point x="69" y="107"/>
      <point x="56" y="190"/>
      <point x="56" y="301" type="curve" smooth="yes"/>
      <point x="56" y="418"/>
      <point x="76" y="495"/>
      <point x="117" y="544" type="curve" smooth="yes"/>
      <point x="154" y="589"/>
      <point x="177" y="615"/>
    </contour>
    <contour>
      <point x="250" y="559" type="curve" smooth="yes"/>
      <point x="209" y="559"/>
      <point x="186" y="538"/>
      <point x="159" y="492" type="curve" smooth="yes"/>
      <point x="136" y="453"/>
      <point x="124" y="393"/>
      <point x="124" y="301" type="curve" smooth="yes"/>
      <point x="124" y="215"/>
      <point x="133" y="150"/>
      <point x="156" y="110" type="curve" smooth="yes"/>
      <point x="176" y="78"/>
      <point x="198" y="48"/>
      <point x="251" y="48" type="curve" smooth="yes"/>
      <point x="310" y="48"/>
      <point x="331" y="72"/>
      <point x="355" y="130" type="curve" smooth="yes"/>
      <point x="374" y="175"/>
      <point x="376" y="224"/>
      <point x="376" y="301" type="curve" smooth="yes"/>
      <point x="376" y="390"/>
      <point x="363" y="448"/>
      <point x="346" y="487" type="curve" smooth="yes"/>
      <point x="323" y="540"/>
      <point x="301" y="559"/>
    </contour>
    <contour>
      <point x="132" y="120" type="line"/>
      <point x="343" y="515" type="line"/>
      <point x="379" y="453" type="line"/>
      <point x="175" y="69" type="line"/>
    </contour>
  </outline>
</glyph>
<glyph name="one" format="2">
  <advance width="500"/>
  <unicode hex="0031"/>
  <anchor x="265" y="0" name="bottom"/>
  <anchor x="265" y="600" name="top"/>
  <outline>
    <contour>
      <point x="230" y="507" type="curve"/>
      <point x="207" y="486"/>
      <point x="187" y="466"/>
      <point x="168" y="451" type="curve" smooth="yes"/>
      <point x="143" y="432"/>
      <point x="140" y="427"/>
      <point x="127" y="419" type="curve" smooth="yes"/>
      <point x="100" y="401"/>
      <point x="86" y="405"/>
      <point x="75" y="420" type="curve" smooth="yes"/>
      <point x="67" y="430"/>
      <point x="66" y="448"/>
      <point x="88" y="468" type="curve" smooth="yes"/>
      <point x="128" y="501"/>
      <point x="131" y="504"/>
      <point x="140" y="512" type="curve" smooth="yes"/>
      <point x="165" y="534"/>
      <point x="217" y="576"/>
      <point x="236" y="598" type="curve" smooth="yes"/>
      <point x="252" y="615"/>
      <point x="274" y="613"/>
      <point x="286" y="597" type="curve" smooth="yes"/>
      <point x="295" y="585"/>
      <point x="292" y="554.9803501972128"/>
      <point x="292" y="538" type="curve" smooth="yes"/>
      <point x="291" y="469"/>
      <point x="292" y="496"/>
      <point x="292" y="325" type="curve" smooth="yes"/>
      <point x="292" y="245"/>
      <point x="293" y="165"/>
      <point x="293" y="55" type="curve"/>
      <point x="229" y="56" type="line"/>
      <point x="229" y="92"/>
      <point x="229" y="265"/>
      <point x="230" y="304" type="curve" smooth="yes"/>
      <point x="230" y="236.33333333333331"/>
      <point x="230" y="439.3333333333333"/>
    </contour>
    <contour>
      <point x="61" y="28" type="curve" smooth="yes"/>
      <point x="61" y="48"/>
      <point x="79" y="60"/>
      <point x="107" y="63" type="curve" smooth="yes"/>
      <point x="129" y="65"/>
      <point x="203" y="63"/>
      <point x="243" y="65" type="curve" smooth="yes"/>
      <point x="280" y="67"/>
      <point x="352" y="65"/>
      <point x="400" y="64" type="curve" smooth="yes"/>
      <point x="432" y="63"/>
      <point x="449" y="46"/>
      <point x="449" y="31" type="curve" smooth="yes"/>
      <point x="449" y="12"/>
      <point x="437" y="1"/>
      <point x="410" y="0" type="curve" smooth="yes"/>
      <point x="356" y="-2"/>
      <point x="294" y="1"/>
      <point x="240" y="0" type="curve" smooth="yes"/>
      <point x="217" y="0"/>
      <point x="153" y="-2"/>
      <point x="101" y="0" type="curve" smooth="yes"/>
      <point x="69" y="1"/>
      <point x="61" y="9"/>
    </contour>
  </outline>
</glyph>
<glyph name="two" format="2">
  <advance width="500"/>
  <unicode hex="0032"/>
  <anchor x="250" y="0" name="bottom"/>
  <anchor x="250" y="600" name="top"/>
  <outline>
    <contour>
      <point x="52" y="28" type="curve" smooth="yes"/>
      <point x="52" y="82"/>
      <point x="199" y="204"/>
      <point x="246" y="250" type="curve" smooth="yes"/>
      <point x="313" y="316"/>
      <point x="383" y="392"/>
      <point x="372" y="458" type="curve" smooth="yes"/>
      <point x="365" y="501"/>
      <point x="338" y="550"/>
      <point x="245" y="550" type="curve" smooth="yes"/>
      <point x="205" y="550"/>
      <point x="145" y="527"/>
      <point x="119" y="501" type="curve" smooth="yes"/>
      <point x="103" y="485"/>
      <point x="78" y="480"/>
      <point x="67" y="491" type="curve" smooth="yes"/>
      <point x="56" y="502"/>
      <point x="59" y="526"/>
      <point x="70" y="537" type="curve" smooth="yes"/>
      <point x="101" y="568"/>
      <point x="164" y="611"/>
      <point x="242" y="611" type="curve" smooth="yes"/>
      <point x="331" y="611"/>
      <point x="425" y="568"/>
      <point x="431" y="458" type="curve" smooth="yes"/>
      <point x="437" y="366"/>
      <point x="382" y="293"/>
      <point x="335" y="247" type="curve" smooth="yes"/>
      <point x="252" y="168"/>
      <point x="182" y="106"/>
      <point x="152" y="64" type="curve"/>
      <point x="179.32192061090822" y="64"/>
      <point x="206.69829651016374" y="63.75901347773472"/>
      <point x="234" y="65" type="curve" smooth="yes"/>
      <point x="271" y="67"/>
      <point x="353" y="65"/>
      <point x="401" y="64" type="curve" smooth="yes"/>
      <point x="433" y="63"/>
      <point x="450" y="46"/>
      <point x="450" y="31" type="curve" smooth="yes"/>
      <point x="450" y="12"/>
      <point x="438" y="1"/>
      <point x="411" y="0" type="curve" smooth="yes"/>
      <point x="357" y="-2"/>
      <point x="285" y="1"/>
      <point x="231" y="0" type="curve" smooth="yes"/>
      <point x="208" y="0"/>
      <point x="144" y="-2"/>
      <point x="92" y="0" type="curve" smooth="yes"/>
      <point x="71.1799932836685" y="0.6506252098853597"/>
      <point x="52" y="3"/>
    </contour>
  </outline>
</glyph>
<glyph name="three" format="2">
  <advance width="500"/>
  <unicode hex="0033"/>
  <anchor x="250" y="0" name="bottom"/>
  <anchor x="250" y="600" name="top"/>
  <outline>
    <contour>
      <point x="325" y="288" type="curve"/>
      <point x="376" y="323" type="line"/>
      <point x="409" y="298"/>
      <point x="446" y="232"/>
      <point x="435" y="149" type="curve" smooth="yes"/>
      <point x="416" y="7"/>
      <point x="321" y="-22"/>
      <point x="212" y="-8" type="curve" smooth="yes"/>
      <point x="141" y="2"/>
      <point x="117" y="2"/>
      <point x="57" y="57" type="curve" smooth="yes"/>
      <point x="43" y="70"/>
      <point x="37" y="100"/>
      <point x="50" y="115" type="curve" smooth="yes"/>
      <point x="81" y="149"/>
      <point x="108" y="120"/>
      <point x="125" y="103" type="curve" smooth="yes"/>
      <point x="152" y="75"/>
      <point x="184" y="61"/>
      <point x="220" y="56" type="curve" smooth="yes"/>
      <point x="290" y="46"/>
      <point x="359" y="71"/>
      <point x="370" y="151" type="curve" smooth="yes"/>
      <point x="378" y="213"/>
      <point x="352" y="254"/>
    </contour>
    <contour>
      <point x="269" y="260" type="curve" smooth="yes"/>
      <point x="248" y="254"/>
      <point x="223" y="258"/>
      <point x="218" y="278" type="curve" smooth="yes"/>
      <point x="212" y="297"/>
      <point x="230" y="316"/>
      <point x="244" y="319" type="curve" smooth="yes"/>
      <point x="369" y="352"/>
      <point x="383" y="412"/>
      <point x="373" y="460" type="curve" smooth="yes"/>
      <point x="366" y="503"/>
      <point x="339" y="550"/>
      <point x="246" y="550" type="curve" smooth="yes"/>
      <point x="206" y="550"/>
      <point x="146" y="527"/>
      <point x="120" y="501" type="curve" smooth="yes"/>
      <point x="104" y="485"/>
      <point x="79" y="480"/>
      <point x="68" y="491" type="curve" smooth="yes"/>
      <point x="57" y="502"/>
      <point x="60" y="526"/>
      <point x="71" y="537" type="curve" smooth="yes"/>
      <point x="102" y="568"/>
      <point x="165" y="611"/>
      <point x="243" y="611" type="curve" smooth="yes"/>
      <point x="332" y="611"/>
      <point x="426" y="570"/>
      <point x="432" y="460" type="curve" smooth="yes"/>
      <point x="441" y="355"/>
      <point x="397" y="292"/>
    </contour>
  </outline>
</glyph>
<glyph name="four" format="2">
  <advance width="500"/>
  <unicode hex="0034"/>
  <anchor x="271" y="0" name="bottom"/>
  <anchor x="271" y="600" name="top"/>
  <outline>
    <contour>
      <point x="365" y="610" type="line"/>
      <point x="371" y="610"/>
      <point x="391" y="602"/>
      <point x="391" y="569" type="curve" smooth="yes"/>
      <point x="390" y="469"/>
      <point x="391" y="496"/>
      <point x="391" y="325" type="curve" smooth="yes"/>
      <point x="391" y="245"/>
      <point x="392" y="134"/>
      <point x="392" y="54" type="curve" smooth="yes"/>
      <point x="392" y="16"/>
      <point x="390" y="-9"/>
      <point x="360" y="-9" type="curve" smooth="yes"/>
      <point x="329" y="-9"/>
      <point x="325" y="23"/>
      <point x="326" y="55" type="curve" smooth="yes"/>
      <point x="326" y="61"/>
      <point x="326" y="245"/>
      <point x="327" y="284" type="curve" smooth="yes"/>
      <point x="327" y="261"/>
      <point x="327" y="530"/>
      <point x="327" y="564" type="curve"/>
    </contour>
    <contour>
      <point x="36" y="248" type="curve" smooth="yes"/>
      <point x="36" y="268"/>
      <point x="54" y="280"/>
      <point x="82" y="283" type="curve" smooth="yes"/>
      <point x="104" y="285"/>
      <point x="178" y="283"/>
      <point x="218" y="285" type="curve" smooth="yes"/>
      <point x="255" y="287"/>
      <point x="367" y="285"/>
      <point x="415" y="284" type="curve" smooth="yes"/>
      <point x="447" y="283"/>
      <point x="464" y="266"/>
      <point x="464" y="251" type="curve" smooth="yes"/>
      <point x="464" y="232"/>
      <point x="452" y="221"/>
      <point x="425" y="220" type="curve" smooth="yes"/>
      <point x="371" y="218"/>
      <point x="269" y="221"/>
      <point x="215" y="220" type="curve" smooth="yes"/>
      <point x="192" y="220"/>
      <point x="128" y="218"/>
      <point x="76" y="220" type="curve" smooth="yes"/>
      <point x="44" y="221"/>
      <point x="36" y="229"/>
    </contour>
    <contour>
      <point x="96" y="247" type="curve"/>
      <point x="36" y="248" type="line"/>
      <point x="36" y="304"/>
      <point x="87" y="342"/>
      <point x="181" y="454" type="curve" smooth="yes"/>
      <point x="247" y="533"/>
      <point x="317" y="610"/>
      <point x="365" y="610" type="curve"/>
      <point x="366" y="548" type="line"/>
      <point x="294" y="496"/>
      <point x="261" y="455"/>
      <point x="221" y="408" type="curve" smooth="yes"/>
      <point x="175" y="355"/>
      <point x="119" y="308"/>
    </contour>
  </outline>
</glyph>
<glyph name="five" format="2">
  <advance width="500"/>
  <unicode hex="0035"/>
  <anchor x="250" y="0" name="bottom"/>
  <anchor x="250" y="600" name="top"/>
  <outline>
    <contour>
      <point x="73" y="574" type="curve" smooth="yes"/>
      <point x="73" y="593"/>
      <point x="81" y="601"/>
      <point x="113" y="602" type="curve" smooth="yes"/>
      <point x="165" y="604"/>
      <point x="219" y="602"/>
      <point x="242" y="602" type="curve" smooth="yes"/>
      <point x="296" y="601"/>
      <point x="334" y="604"/>
      <point x="388" y="602" type="curve" smooth="yes"/>
      <point x="415" y="601"/>
      <point x="427" y="590"/>
      <point x="427" y="571" type="curve" smooth="yes"/>
      <point x="427" y="556"/>
      <point x="410" y="539"/>
      <point x="378" y="538" type="curve" smooth="yes"/>
      <point x="330" y="537"/>
      <point x="282" y="535"/>
      <point x="245" y="537" type="curve" smooth="yes"/>
      <point x="205" y="539"/>
      <point x="141" y="537"/>
      <point x="119" y="539" type="curve" smooth="yes"/>
      <point x="91" y="542"/>
      <point x="73" y="554"/>
    </contour>
    <contour>
      <point x="397" y="189" type="curve" smooth="yes"/>
      <point x="397" y="282.99281760661574"/>
      <point x="342.6868336740393" y="340"/>
      <point x="247" y="340" type="curve" smooth="yes"/>
      <point x="203" y="340"/>
      <point x="153" y="315"/>
      <point x="108" y="314" type="curve"/>
      <point x="109" y="366" type="line"/>
      <point x="150" y="370"/>
      <point x="207" y="395"/>
      <point x="246" y="395" type="curve" smooth="yes"/>
      <point x="382.9484202323779" y="395"/>
      <point x="457" y="320.3116890068976"/>
      <point x="457" y="184" type="curve" smooth="yes"/>
      <point x="457" y="38"/>
      <point x="332" y="-8"/>
      <point x="222" y="-8" type="curve" smooth="yes"/>
      <point x="150" y="-8"/>
      <point x="87" y="31"/>
      <point x="37" y="96" type="curve" smooth="yes"/>
      <point x="26" y="111"/>
      <point x="34" y="130"/>
      <point x="44" y="136" type="curve" smooth="yes"/>
      <point x="64" y="151"/>
      <point x="94" y="131"/>
      <point x="112" y="113" type="curve" smooth="yes"/>
      <point x="140" y="85"/>
      <point x="194" y="62"/>
      <point x="230" y="62" type="curve" smooth="yes"/>
      <point x="317" y="62"/>
      <point x="397" y="103"/>
    </contour>
    <contour>
      <point x="73" y="574" type="curve"/>
      <point x="134" y="551" type="line"/>
      <point x="137" y="536"/>
      <point x="135" y="531"/>
      <point x="138" y="500" type="curve" smooth="yes"/>
      <point x="140" y="463"/>
      <point x="135" y="413"/>
      <point x="138" y="366" type="curve" smooth="yes"/>
      <point x="139" y="333"/>
      <point x="124" y="315"/>
      <point x="108" y="314" type="curve" smooth="yes"/>
      <point x="89" y="313"/>
      <point x="72" y="327"/>
      <point x="74" y="351" type="curve" smooth="yes"/>
      <point x="77" y="380"/>
      <point x="74" y="456"/>
      <point x="74" y="490" type="curve" smooth="yes"/>
      <point x="74" y="502"/>
      <point x="75" y="522"/>
    </contour>
  </outline>
</glyph>
<glyph name="six" format="2">
  <advance width="500"/>
  <unicode hex="0036"/>
  <anchor x="250" y="0" name="bottom"/>
  <anchor x="270" y="600" name="top"/>
  <outline>
    <contour>
      <point x="117" y="254" type="curve" smooth="yes"/>
      <point x="102" y="429"/>
      <point x="156" y="501"/>
      <point x="227" y="534" type="curve" smooth="yes"/>
      <point x="261" y="550"/>
      <point x="313" y="565"/>
      <point x="361" y="523" type="curve" smooth="yes"/>
      <point x="383" y="503"/>
      <point x="407" y="484"/>
      <point x="427" y="508" type="curve" smooth="yes"/>
      <point x="440" y="523"/>
      <point x="438" y="544"/>
      <point x="405" y="573" type="curve" smooth="yes"/>
      <point x="348" y="619"/>
      <point x="287" y="620"/>
      <point x="218" y="596" type="curve" smooth="yes"/>
      <point x="111" y="555"/>
      <point x="25" y="442"/>
      <point x="57" y="239" type="curve" smooth="yes"/>
      <point x="73" y="138"/>
      <point x="87" y="94"/>
      <point x="156" y="24" type="curve" smooth="yes"/>
      <point x="174" y="6"/>
      <point x="218" y="-13"/>
      <point x="251" y="-13" type="curve" smooth="yes"/>
      <point x="358" y="-13"/>
      <point x="447" y="105"/>
      <point x="447" y="204" type="curve" smooth="yes"/>
      <point x="447" y="277"/>
      <point x="411" y="389"/>
      <point x="271" y="389" type="curve" smooth="yes"/>
      <point x="228" y="389"/>
      <point x="136" y="375"/>
      <point x="91" y="278" type="curve"/>
      <point x="112" y="205" type="line"/>
      <point x="150" y="307"/>
      <point x="231" y="323"/>
      <point x="271" y="323" type="curve" smooth="yes"/>
      <point x="369" y="323"/>
      <point x="382" y="251"/>
      <point x="382" y="207" type="curve" smooth="yes"/>
      <point x="382" y="136"/>
      <point x="327" y="55"/>
      <point x="251" y="55" type="curve" smooth="yes"/>
      <point x="171" y="55"/>
      <point x="124" y="179"/>
    </contour>
  </outline>
</glyph>
<glyph name="seven" format="2">
  <advance width="500"/>
  <unicode hex="0037"/>
  <anchor x="243" y="0" name="bottom"/>
  <anchor x="243" y="600" name="top"/>
  <outline>
    <contour>
      <point x="386" y="569" type="curve"/>
      <point x="450" y="566" type="line"/>
      <point x="445" y="498"/>
      <point x="374" y="375"/>
      <point x="324" y="285" type="curve" smooth="yes"/>
      <point x="275" y="197"/>
      <point x="239" y="120"/>
      <point x="231" y="37" type="curve" smooth="yes"/>
      <point x="227" y="12"/>
      <point x="210" y="-8"/>
      <point x="193" y="-5" type="curve" smooth="yes"/>
      <point x="175" y="-3"/>
      <point x="161" y="18"/>
      <point x="163" y="34" type="curve" smooth="yes"/>
      <point x="178" y="179"/>
      <point x="243" y="270"/>
      <point x="289" y="356" type="curve" smooth="yes"/>
      <point x="328" y="429"/>
      <point x="365" y="495"/>
    </contour>
    <contour>
      <point x="450" y="566" type="curve" smooth="yes"/>
      <point x="448" y="546"/>
      <point x="429" y="536"/>
      <point x="401" y="535" type="curve" smooth="yes"/>
      <point x="379" y="534"/>
      <point x="308" y="532"/>
      <point x="268" y="529" type="curve" smooth="yes"/>
      <point x="231" y="526"/>
      <point x="150" y="528"/>
      <point x="101" y="535" type="curve" smooth="yes"/>
      <point x="69" y="540"/>
      <point x="52" y="553"/>
      <point x="52" y="568" type="curve" smooth="yes"/>
      <point x="52" y="587"/>
      <point x="64" y="602"/>
      <point x="91" y="599" type="curve" smooth="yes"/>
      <point x="143" y="594"/>
      <point x="217" y="591"/>
      <point x="271" y="594" type="curve" smooth="yes"/>
      <point x="321" y="597"/>
      <point x="360" y="602"/>
      <point x="412" y="597" type="curve" smooth="yes"/>
      <point x="447" y="594"/>
      <point x="451" y="585"/>
    </contour>
    <contour>
      <point x="77" y="409" type="curve" smooth="yes"/>
      <point x="64" y="409"/>
      <point x="48" y="420"/>
      <point x="50" y="450" type="curve" smooth="yes"/>
      <point x="52" y="484"/>
      <point x="57" y="513"/>
      <point x="52" y="568" type="curve"/>
      <point x="112" y="552" type="line"/>
      <point x="109" y="505"/>
      <point x="114" y="479"/>
      <point x="108" y="447" type="curve" smooth="yes"/>
      <point x="104" y="423"/>
      <point x="95" y="408"/>
    </contour>
  </outline>
</glyph>
<glyph name="eight" format="2">
  <advance width="500"/>
  <unicode hex="0038"/>
  <anchor x="250" y="0" name="bottom"/>
  <anchor x="250" y="600" name="top"/>
  <outline>
    <contour>
      <point x="254" y="612" type="curve" smooth="yes"/>
      <point x="287" y="612"/>
      <point x="342" y="607"/>
      <point x="384" y="576" type="curve" smooth="yes"/>
      <point x="411" y="556"/>
      <point x="429" y="525"/>
      <point x="429" y="486" type="curve" smooth="yes"/>
      <point x="429" y="417"/>
      <point x="412" y="356"/>
      <point x="308" y="319" type="curve"/>
      <point x="265" y="365" type="line"/>
      <point x="332" y="365"/>
      <point x="366" y="406"/>
      <point x="366" y="476" type="curve" smooth="yes"/>
      <point x="366" y="536"/>
      <point x="308" y="549"/>
      <point x="261" y="549" type="curve" smooth="yes"/>
      <point x="196" y="549"/>
      <point x="149" y="516"/>
      <point x="149" y="452" type="curve" smooth="yes"/>
      <point x="149" y="386"/>
      <point x="192" y="365"/>
      <point x="265" y="365" type="curve" smooth="yes"/>
      <point x="332" y="365"/>
      <point x="368" y="354"/>
      <point x="407" y="326" type="curve" smooth="yes"/>
      <point x="437" y="304"/>
      <point x="460" y="241"/>
      <point x="460" y="189" type="curve" smooth="yes"/>
      <point x="460" y="129"/>
      <point x="445" y="84"/>
      <point x="415" y="51" type="curve" smooth="yes"/>
      <point x="381" y="13"/>
      <point x="322" y="-9"/>
      <point x="245" y="-9" type="curve" smooth="yes"/>
      <point x="162" y="-9"/>
      <point x="45" y="47"/>
      <point x="45" y="174" type="curve" smooth="yes"/>
      <point x="45" y="240"/>
      <point x="95" y="345"/>
      <point x="193" y="351" type="curve"/>
      <point x="274" y="300" type="line"/>
      <point x="141" y="306"/>
      <point x="112" y="208"/>
      <point x="112" y="169" type="curve" smooth="yes"/>
      <point x="112" y="130"/>
      <point x="131" y="104"/>
      <point x="155" y="88" type="curve" smooth="yes"/>
      <point x="190" y="63"/>
      <point x="235" y="57"/>
      <point x="247" y="57" type="curve" smooth="yes"/>
      <point x="305" y="57"/>
      <point x="343" y="74"/>
      <point x="365" y="97" type="curve" smooth="yes"/>
      <point x="385" y="119"/>
      <point x="396" y="155"/>
      <point x="396" y="185" type="curve" smooth="yes"/>
      <point x="396" y="262.6700078018834"/>
      <point x="348.26347463970285" y="300"/>
      <point x="274" y="300" type="curve" smooth="yes"/>
      <point x="152" y="300"/>
      <point x="84" y="349"/>
      <point x="84" y="454" type="curve" smooth="yes"/>
      <point x="84" y="563"/>
      <point x="167" y="612"/>
    </contour>
  </outline>
</glyph>
<glyph name="nine" format="2">
  <advance width="500"/>
  <unicode hex="0039"/>
  <anchor x="250" y="0" name="bottom"/>
  <anchor x="262" y="600" name="top"/>
  <outline>
    <contour>
      <point x="380" y="324" type="curve" smooth="yes"/>
      <point x="380" y="254"/>
      <point x="360" y="210"/>
      <point x="222" y="64" type="curve" smooth="yes"/>
      <point x="201" y="42"/>
      <point x="189" y="16"/>
      <point x="214" y="-4" type="curve" smooth="yes"/>
      <point x="228" y="-16"/>
      <point x="246" y="-11"/>
      <point x="277" y="20" type="curve" smooth="yes"/>
      <point x="377" y="123"/>
      <point x="441" y="219"/>
      <point x="441" y="329" type="curve" smooth="yes"/>
      <point x="441" y="432"/>
      <point x="416" y="497"/>
      <point x="381" y="555" type="curve" smooth="yes"/>
      <point x="368" y="577"/>
      <point x="324" y="604"/>
      <point x="290" y="609" type="curve" smooth="yes"/>
      <point x="184" y="625"/>
      <point x="77" y="523"/>
      <point x="62" y="426" type="curve" smooth="yes"/>
      <point x="50" y="354"/>
      <point x="65" y="224"/>
      <point x="206" y="215" type="curve" smooth="yes"/>
      <point x="241" y="213"/>
      <point x="374" y="213"/>
      <point x="401" y="346" type="curve"/>
      <point x="378" y="412" type="line"/>
      <point x="371" y="285"/>
      <point x="256" y="280"/>
      <point x="217" y="280" type="curve" smooth="yes"/>
      <point x="116" y="280"/>
      <point x="118" y="369"/>
      <point x="125" y="412" type="curve" smooth="yes"/>
      <point x="137" y="483"/>
      <point x="204" y="560"/>
      <point x="279" y="548" type="curve" smooth="yes"/>
      <point x="358" y="535"/>
      <point x="380" y="399"/>
    </contour>
  </outline>
</glyph>
<glyph name="less" format="2">
  <advance width="500"/>
  <unicode hex="003C"/>
  <outline>
    <contour>
      <point x="106" y="300" type="curve"/>
      <point x="135" y="294"/>
      <point x="153" y="280"/>
      <point x="168" y="268" type="curve" smooth="yes"/>
      <point x="206" y="242"/>
      <point x="247" y="212"/>
      <point x="260" y="202" type="curve" smooth="yes"/>
      <point x="287" y="180"/>
      <point x="390" y="107"/>
      <point x="428" y="78" type="curve" smooth="yes"/>
      <point x="454" y="57"/>
      <point x="462" y="37"/>
      <point x="448" y="19" type="curve" smooth="yes"/>
      <point x="438" y="6"/>
      <point x="417" y="3"/>
      <point x="399" y="16" type="curve" smooth="yes"/>
      <point x="373" y="33"/>
      <point x="252" y="124"/>
      <point x="226" y="145" type="curve" smooth="yes"/>
      <point x="218" y="151"/>
      <point x="102" y="231"/>
      <point x="61" y="261" type="curve" smooth="yes"/>
      <point x="44.232643127441406" y="274.274169921875"/>
      <point x="39" y="288"/>
      <point x="39" y="300" type="curve" smooth="yes"/>
      <point x="39" y="312"/>
      <point x="44.232643127441406" y="325.725830078125"/>
      <point x="61" y="339" type="curve" smooth="yes"/>
      <point x="102" y="369"/>
      <point x="218" y="449"/>
      <point x="226" y="455" type="curve" smooth="yes"/>
      <point x="252" y="476"/>
      <point x="373" y="567"/>
      <point x="399" y="584" type="curve" smooth="yes"/>
      <point x="417" y="597"/>
      <point x="438" y="594"/>
      <point x="448" y="581" type="curve" smooth="yes"/>
      <point x="462" y="563"/>
      <point x="454" y="543"/>
      <point x="428" y="522" type="curve" smooth="yes"/>
      <point x="390" y="493"/>
      <point x="287" y="421"/>
      <point x="260" y="399" type="curve" smooth="yes"/>
      <point x="247" y="389"/>
      <point x="206" y="360"/>
      <point x="169" y="333" type="curve" smooth="yes"/>
      <point x="153" y="322"/>
      <point x="135" y="306"/>
    </contour>
  </outline>
</glyph>
<glyph name="equal" format="2">
  <advance width="500"/>
  <unicode hex="003D"/>
  <outline>
    <contour>
      <point x="32" y="400" type="curve" smooth="yes"/>
      <point x="32" y="416"/>
      <point x="45" y="434"/>
      <point x="74" y="434" type="curve" smooth="yes"/>
      <point x="126" y="434"/>
      <point x="234" y="432"/>
      <point x="246" y="432" type="curve" smooth="yes"/>
      <point x="279" y="432"/>
      <point x="399" y="435"/>
      <point x="431" y="433" type="curve" smooth="yes"/>
      <point x="454" y="432"/>
      <point x="468" y="419"/>
      <point x="468" y="400" type="curve" smooth="yes"/>
      <point x="468" y="379"/>
      <point x="451" y="367"/>
      <point x="416" y="366" type="curve" smooth="yes"/>
      <point x="369" y="365"/>
      <point x="275" y="366"/>
      <point x="238" y="365" type="curve" smooth="yes"/>
      <point x="207" y="365"/>
      <point x="88" y="364"/>
      <point x="70" y="367" type="curve" smooth="yes"/>
      <point x="42" y="371"/>
      <point x="32" y="384"/>
    </contour>
    <contour>
      <point x="32" y="200" type="curve" smooth="yes"/>
      <point x="32" y="216"/>
      <point x="45" y="235"/>
      <point x="74" y="235" type="curve" smooth="yes"/>
      <point x="126" y="235"/>
      <point x="234" y="233"/>
      <point x="246" y="233" type="curve" smooth="yes"/>
      <point x="279" y="233"/>
      <point x="399" y="236"/>
      <point x="431" y="234" type="curve" smooth="yes"/>
      <point x="454" y="233"/>
      <point x="468" y="219"/>
      <point x="468" y="200" type="curve" smooth="yes"/>
      <point x="468" y="179"/>
      <point x="451" y="168"/>
      <point x="416" y="167" type="curve" smooth="yes"/>
      <point x="369" y="166"/>
      <point x="275" y="167"/>
      <point x="238" y="166" type="curve" smooth="yes"/>
      <point x="207" y="166"/>
      <point x="88" y="165"/>
      <point x="70" y="168" type="curve" smooth="yes"/>
      <point x="42" y="172"/>
      <point x="32" y="184"/>
    </contour>
  </outline>
</glyph>
<glyph name="question" format="2">
  <advance width="500"/>
  <unicode hex="003F"/>
  <outline>
    <contour>
      <point x="206" y="331" type="curve" smooth="yes"/>
      <point x="224" y="343"/>
      <point x="258" y="343"/>
      <point x="274" y="346" type="curve" smooth="yes"/>
      <point x="315" y="353"/>
      <point x="365" y="381"/>
      <point x="369" y="443" type="curve" smooth="yes"/>
      <point x="374" y="513"/>
      <point x="322" y="546"/>
      <point x="262" y="549" type="curve" smooth="yes"/>
      <point x="192" y="553"/>
      <point x="162" y="536"/>
      <point x="148" y="528" type="curve" smooth="yes"/>
      <point x="134" y="520"/>
      <point x="126" y="506"/>
      <point x="107" y="501" type="curve" smooth="yes"/>
      <point x="95" y="498"/>
      <point x="83" y="500"/>
      <point x="78" y="510" type="curve" smooth="yes"/>
      <point x="69" y="530"/>
      <point x="72" y="553"/>
      <point x="105" y="577" type="curve" smooth="yes"/>
      <point x="128" y="595"/>
      <point x="182" y="617"/>
      <point x="267" y="612" type="curve" smooth="yes"/>
      <point x="392" y="605"/>
      <point x="444" y="522"/>
      <point x="440" y="438" type="curve" smooth="yes"/>
      <point x="435" y="360"/>
      <point x="387" y="322"/>
      <point x="353" y="305" type="curve" smooth="yes"/>
      <point x="321" y="289"/>
      <point x="290" y="281"/>
      <point x="266" y="278" type="curve"/>
      <point x="268" y="258"/>
      <point x="268" y="246"/>
      <point x="268" y="231" type="curve" smooth="yes"/>
      <point x="266" y="183"/>
      <point x="270" y="164"/>
      <point x="243" y="163" type="curve" smooth="yes"/>
      <point x="210" y="161"/>
      <point x="210" y="205"/>
      <point x="206" y="229" type="curve" smooth="yes"/>
      <point x="203" y="246"/>
      <point x="196" y="281"/>
      <point x="196" y="281" type="curve" smooth="yes"/>
      <point x="193" y="315"/>
      <point x="197" y="324"/>
    </contour>
    <component base="period"/>
  </outline>
</glyph>
<glyph name="at" format="2">
  <advance width="500"/>
  <unicode hex="0040"/>
  <outline>
    <contour>
      <point x="333" y="167" type="curve" smooth="yes"/>
      <point x="301" y="193"/>
      <point x="293" y="308"/>
      <point x="293" y="395" type="curve"/>
      <point x="195" y="409"/>
      <point x="197" y="318"/>
      <point x="198" y="264" type="curve" smooth="yes"/>
      <point x="199" y="221"/>
      <point x="215" y="192"/>
      <point x="247" y="192" type="curve" smooth="yes"/>
      <point x="278" y="192"/>
      <point x="297" y="233"/>
      <point x="297" y="296" type="curve"/>
      <point x="325" y="234" type="line"/>
      <point x="311" y="153"/>
      <point x="276" y="130"/>
      <point x="243" y="133" type="curve" smooth="yes"/>
      <point x="209" y="136"/>
      <point x="150" y="150"/>
      <point x="150" y="287" type="curve" smooth="yes"/>
      <point x="150" y="368"/>
      <point x="168" y="416"/>
      <point x="226" y="440" type="curve" smooth="yes"/>
      <point x="267" y="457"/>
      <point x="298" y="451"/>
      <point x="313" y="445" type="curve" smooth="yes"/>
      <point x="333" y="437"/>
      <point x="336" y="427"/>
      <point x="337" y="420" type="curve" smooth="yes"/>
      <point x="340" y="380"/>
      <point x="338" y="350"/>
      <point x="341" y="308" type="curve" smooth="yes"/>
      <point x="345" y="237"/>
      <point x="353" y="212"/>
      <point x="369" y="212" type="curve" smooth="yes"/>
      <point x="385" y="212"/>
      <point x="392" y="222"/>
      <point x="398" y="278" type="curve" smooth="yes"/>
      <point x="407" y="384"/>
      <point x="393" y="559"/>
      <point x="273" y="560" type="curve" smooth="yes"/>
      <point x="133" y="561"/>
      <point x="104" y="463"/>
      <point x="99" y="291" type="curve" smooth="yes"/>
      <point x="97" y="205"/>
      <point x="100" y="146"/>
      <point x="124" y="108" type="curve" smooth="yes"/>
      <point x="172" y="32"/>
      <point x="304" y="50"/>
      <point x="308" y="50" type="curve" smooth="yes"/>
      <point x="325" y="53"/>
      <point x="345" y="39"/>
      <point x="345" y="21" type="curve" smooth="yes"/>
      <point x="344" y="3"/>
      <point x="327" y="-9"/>
      <point x="316" y="-11" type="curve" smooth="yes"/>
      <point x="259" y="-19"/>
      <point x="135" y="-23"/>
      <point x="77" y="64" type="curve" smooth="yes"/>
      <point x="42" y="117"/>
      <point x="40" y="180"/>
      <point x="40" y="291" type="curve" smooth="yes"/>
      <point x="39" y="453"/>
      <point x="76" y="518"/>
      <point x="120" y="564" type="curve" smooth="yes"/>
      <point x="160" y="606"/>
      <point x="206" y="619"/>
      <point x="279" y="616" type="curve" smooth="yes"/>
      <point x="369" y="612"/>
      <point x="406" y="569"/>
      <point x="434" y="496" type="curve" smooth="yes"/>
      <point x="452" y="447"/>
      <point x="462" y="369"/>
      <point x="453" y="271" type="curve" smooth="yes"/>
      <point x="446" y="207"/>
      <point x="425" y="168"/>
      <point x="397" y="158" type="curve" smooth="yes"/>
      <point x="378" y="150"/>
      <point x="358" y="145"/>
    </contour>
  </outline>
</glyph>
<glyph name="A" format="2">
  <advance width="500"/>
  <unicode hex="0041"/>
  <anchor x="263" y="600" name="top"/>
  <anchor x="81" y="-8" name="cedilla"/>
  <anchor x="414" y="-8" name="ogonek"/>
  <anchor x="250" y="0" name="bottom"/>
  <outline>
    <contour>
      <point x="81" y="-8" type="curve" smooth="yes"/>
      <point x="57" y="-8"/>
      <point x="45" y="6"/>
      <point x="45" y="49" type="curve" smooth="yes"/>
      <point x="47" y="302"/>
      <point x="98" y="436"/>
      <point x="146" y="515" type="curve" smooth="yes"/>
      <point x="185" y="582"/>
      <point x="219" y="609"/>
      <point x="265" y="609" type="curve" smooth="yes"/>
      <point x="317" y="608"/>
      <point x="345" y="588"/>
      <point x="370" y="542" type="curve" smooth="yes"/>
      <point x="404" y="480"/>
      <point x="429" y="386"/>
      <point x="445" y="204" type="curve" smooth="yes"/>
      <point x="453" y="132"/>
      <point x="455" y="70"/>
      <point x="455" y="42" type="curve" smooth="yes"/>
      <point x="455" y="15"/>
      <point x="442" y="-8"/>
      <point x="414" y="-8" type="curve" smooth="yes"/>
      <point x="394" y="-8"/>
      <point x="389" y="18"/>
      <point x="390" y="43" type="curve" smooth="yes"/>
      <point x="392" y="96"/>
      <point x="384" y="198"/>
      <point x="370" y="331" type="curve" smooth="yes"/>
      <point x="361" y="413"/>
      <point x="332" y="548"/>
      <point x="262" y="548" type="curve" smooth="yes"/>
      <point x="203" y="548"/>
      <point x="155" y="413"/>
      <point x="136" y="331" type="curve" smooth="yes"/>
      <point x="118" y="250"/>
      <point x="105" y="166"/>
      <point x="109" y="33" type="curve" smooth="yes"/>
      <point x="110" y="13"/>
      <point x="97" y="-8"/>
    </contour>
    <contour>
      <point x="389" y="312" type="curve"/>
      <point x="390" y="249" type="line"/>
      <point x="297" y="249"/>
      <point x="167" y="243"/>
      <point x="106" y="249" type="curve"/>
      <point x="115" y="313" type="line"/>
      <point x="201" y="308"/>
      <point x="307" y="312"/>
    </contour>
  </outline>
</glyph>
<glyph name="B" format="2">
  <advance width="500"/>
  <unicode hex="0042"/>
  <anchor x="216" y="600" name="top"/>
  <anchor x="193" y="-12" name="cedilla"/>
  <anchor x="193" y="-12" name="ogonek"/>
  <anchor x="225" y="0" name="bottom"/>
  <outline>
    <contour>
      <point x="73" y="54" type="curve" smooth="yes"/>
      <point x="35" y="137"/>
      <point x="59" y="455"/>
      <point x="68" y="519" type="curve" smooth="yes"/>
      <point x="78" y="587"/>
      <point x="128.3087242378763" y="608"/>
      <point x="214" y="608" type="curve" smooth="yes"/>
      <point x="363" y="608"/>
      <point x="431" y="532"/>
      <point x="431" y="468" type="curve" smooth="yes"/>
      <point x="431" y="399"/>
      <point x="377" y="358"/>
      <point x="327" y="332" type="curve" smooth="yes"/>
      <point x="299" y="319"/>
      <point x="244" y="308"/>
      <point x="165" y="308" type="curve" smooth="yes"/>
      <point x="141" y="308"/>
      <point x="110" y="308"/>
      <point x="105" y="308" type="curve"/>
      <point x="105" y="373" type="line"/>
      <point x="299" y="348"/>
      <point x="367" y="415"/>
      <point x="367" y="470" type="curve" smooth="yes"/>
      <point x="367" y="528"/>
      <point x="296" y="549"/>
      <point x="215" y="549" type="curve" smooth="yes"/>
      <point x="164" y="549"/>
      <point x="128" y="551"/>
      <point x="121" y="498" type="curve" smooth="yes"/>
      <point x="103" y="356"/>
      <point x="105" y="139"/>
      <point x="123" y="90" type="curve" smooth="yes"/>
      <point x="135" y="56"/>
      <point x="147.77397261744076" y="51"/>
      <point x="196" y="51" type="curve" smooth="yes"/>
      <point x="307" y="51"/>
      <point x="389" y="87"/>
      <point x="389" y="185" type="curve" smooth="yes"/>
      <point x="389" y="260"/>
      <point x="315" y="315"/>
      <point x="225" y="318" type="curve"/>
      <point x="324" y="346" type="line"/>
      <point x="419" y="328"/>
      <point x="456" y="248"/>
      <point x="456" y="181" type="curve" smooth="yes"/>
      <point x="456" y="22"/>
      <point x="300" y="-15"/>
      <point x="193" y="-12" type="curve" smooth="yes"/>
      <point x="131" y="-10"/>
      <point x="97.98530084050896" y="0.18550588198070272"/>
    </contour>
  </outline>
</glyph>
<glyph name="C" format="2">
  <advance width="500"/>
  <unicode hex="0043"/>
  <anchor x="266" y="600" name="top"/>
  <anchor x="266" y="-11" name="cedilla"/>
  <anchor x="266" y="-11" name="ogonek"/>
  <anchor x="250" y="0" name="bottom"/>
  <outline>
    <contour>
      <point x="436" y="421" type="curve" smooth="yes"/>
      <point x="419" y="421"/>
      <point x="407" y="437"/>
      <point x="405" y="462" type="curve" smooth="yes"/>
      <point x="399" y="520"/>
      <point x="344" y="554"/>
      <point x="263" y="554" type="curve" smooth="yes"/>
      <point x="174" y="554"/>
      <point x="108" y="503"/>
      <point x="108" y="287" type="curve" smooth="yes"/>
      <point x="108" y="79"/>
      <point x="206" y="50"/>
      <point x="252" y="50" type="curve" smooth="yes"/>
      <point x="344" y="50"/>
      <point x="390" y="88"/>
      <point x="398" y="131" type="curve" smooth="yes"/>
      <point x="404" y="160"/>
      <point x="412" y="173"/>
      <point x="430" y="173" type="curve" smooth="yes"/>
      <point x="448" y="173"/>
      <point x="462" y="158"/>
      <point x="459" y="125" type="curve" smooth="yes"/>
      <point x="456" y="75"/>
      <point x="385" y="-11"/>
      <point x="266" y="-11" type="curve" smooth="yes"/>
      <point x="129" y="-11"/>
      <point x="47" y="78"/>
      <point x="47" y="282" type="curve" smooth="yes"/>
      <point x="47" y="436"/>
      <point x="82" y="611"/>
      <point x="265" y="611" type="curve" smooth="yes"/>
      <point x="448" y="611"/>
      <point x="464" y="478"/>
      <point x="464" y="459" type="curve" smooth="yes"/>
      <point x="464" y="437"/>
      <point x="451" y="421"/>
    </contour>
  </outline>
</glyph>
<glyph name="D" format="2">
  <advance width="500"/>
  <unicode hex="0044"/>
  <anchor x="180" y="600" name="top"/>
  <anchor x="164" y="-8" name="cedilla"/>
  <anchor x="164" y="-8" name="ogonek"/>
  <anchor x="180" y="0" name="bottom"/>
  <outline>
    <contour>
      <point x="82" y="2" type="curve" smooth="yes"/>
      <point x="63" y="9"/>
      <point x="49" y="31"/>
      <point x="52" y="71" type="curve" smooth="yes"/>
      <point x="56" y="111"/>
      <point x="56" y="226"/>
      <point x="53" y="342" type="curve" smooth="yes"/>
      <point x="53" y="394"/>
      <point x="51" y="484"/>
      <point x="49" y="530" type="curve" smooth="yes"/>
      <point x="45" y="575"/>
      <point x="57" y="588"/>
      <point x="70" y="594" type="curve" smooth="yes"/>
      <point x="85" y="601"/>
      <point x="119" y="609"/>
      <point x="179" y="609" type="curve" smooth="yes"/>
      <point x="372" y="609"/>
      <point x="458" y="447"/>
      <point x="458" y="313" type="curve" smooth="yes"/>
      <point x="459" y="133"/>
      <point x="345" y="-9"/>
      <point x="164" y="-8" type="curve" smooth="yes"/>
      <point x="136" y="-8"/>
      <point x="110" y="-8"/>
    </contour>
    <contour>
      <point x="120" y="64" type="curve" smooth="yes"/>
      <point x="127" y="59"/>
      <point x="151" y="58"/>
      <point x="163" y="58" type="curve" smooth="yes"/>
      <point x="321" y="56"/>
      <point x="396" y="192"/>
      <point x="396" y="315" type="curve" smooth="yes"/>
      <point x="396" y="436"/>
      <point x="295" y="548"/>
      <point x="177" y="548" type="curve" smooth="yes"/>
      <point x="154.43006281312773" y="548"/>
      <point x="132" y="546"/>
      <point x="118" y="543" type="curve" smooth="yes"/>
      <point x="105" y="540"/>
      <point x="108" y="539"/>
      <point x="108" y="533" type="curve" smooth="yes"/>
      <point x="108" y="526"/>
      <point x="114" y="453"/>
      <point x="116" y="272" type="curve" smooth="yes"/>
      <point x="117" y="146"/>
      <point x="114" y="69"/>
    </contour>
  </outline>
</glyph>
<glyph name="E" format="2">
  <advance width="500"/>
  <unicode hex="0045"/>
  <anchor x="250" y="600" name="top"/>
  <anchor x="250" y="3" name="cedilla"/>
  <anchor x="398" y="2" name="ogonek"/>
  <anchor x="250" y="0" name="bottom"/>
  <outline>
    <contour>
      <point x="77" y="600" type="curve" smooth="yes"/>
      <point x="101" y="606"/>
      <point x="199" y="599"/>
      <point x="281" y="598" type="curve" smooth="yes"/>
      <point x="407" y="597"/>
      <point x="413" y="600"/>
      <point x="435" y="597" type="curve" smooth="yes"/>
      <point x="459" y="593"/>
      <point x="463" y="579"/>
      <point x="465" y="572" type="curve" smooth="yes"/>
      <point x="470" y="552"/>
      <point x="452" y="537"/>
      <point x="424" y="536" type="curve" smooth="yes"/>
      <point x="315" y="529"/>
      <point x="227" y="536"/>
      <point x="116" y="536" type="curve"/>
      <point x="109" y="489"/>
      <point x="110.79351297216951" y="222.19461083491493"/>
      <point x="116" y="66" type="curve"/>
      <point x="206" y="70"/>
      <point x="330.00920382548753" y="74.74716732632061"/>
      <point x="437" y="68" type="curve" smooth="yes"/>
      <point x="465" y="67"/>
      <point x="483" y="53"/>
      <point x="478" y="28" type="curve" smooth="yes"/>
      <point x="476" y="21"/>
      <point x="472" y="6"/>
      <point x="448" y="3" type="curve" smooth="yes"/>
      <point x="427" y="-1"/>
      <point x="414" y="3"/>
      <point x="288" y="3" type="curve" smooth="yes"/>
      <point x="220" y="3"/>
      <point x="151" y="-2"/>
      <point x="83" y="-2" type="curve" smooth="yes"/>
      <point x="57" y="-2"/>
      <point x="50" y="33"/>
      <point x="50" y="71" type="curve" smooth="yes"/>
      <point x="50" y="113"/>
      <point x="51" y="228"/>
      <point x="51" y="345" type="curve" smooth="yes"/>
      <point x="51" y="524"/>
      <point x="49" y="527"/>
      <point x="52" y="558" type="curve" smooth="yes"/>
      <point x="54.16167973003596" y="574.2125979752697"/>
      <point x="59" y="595"/>
    </contour>
    <contour>
      <point x="334" y="339" type="curve" smooth="yes"/>
      <point x="336" y="315"/>
      <point x="322" y="301"/>
      <point x="297" y="300" type="curve" smooth="yes"/>
      <point x="231" y="293"/>
      <point x="167" y="302"/>
      <point x="97" y="301" type="curve"/>
      <point x="96" y="364" type="line"/>
      <point x="101" y="370"/>
      <point x="134" y="363"/>
      <point x="182" y="363" type="curve" smooth="yes"/>
      <point x="260" y="363"/>
      <point x="292" y="362"/>
      <point x="304" y="361" type="curve" smooth="yes"/>
      <point x="328" y="357"/>
      <point x="333" y="345"/>
    </contour>
  </outline>
</glyph>
<glyph name="F" format="2">
  <advance width="500"/>
  <unicode hex="0046"/>
  <anchor x="250" y="600" name="top"/>
  <anchor x="84" y="-8" name="cedilla"/>
  <anchor x="84" y="-8" name="ogonek"/>
  <anchor x="250" y="0" name="bottom"/>
  <outline>
    <contour>
      <point x="76" y="597" type="curve" smooth="yes"/>
      <point x="96" y="607"/>
      <point x="201" y="598"/>
      <point x="284" y="599" type="curve" smooth="yes"/>
      <point x="410" y="601"/>
      <point x="412" y="601"/>
      <point x="434" y="597" type="curve" smooth="yes"/>
      <point x="458" y="594"/>
      <point x="462" y="579"/>
      <point x="464" y="572" type="curve" smooth="yes"/>
      <point x="469" y="552"/>
      <point x="451" y="537"/>
      <point x="423" y="536" type="curve" smooth="yes"/>
      <point x="314" y="529"/>
      <point x="125" y="538"/>
      <point x="117" y="534" type="curve"/>
      <point x="112" y="517"/>
      <point x="108.6920651996636" y="222.00455347298353"/>
      <point x="117" y="66" type="curve" smooth="yes"/>
      <point x="119" y="27"/>
      <point x="116" y="-8"/>
      <point x="84" y="-8" type="curve" smooth="yes"/>
      <point x="58" y="-8"/>
      <point x="51" y="27"/>
      <point x="51" y="65" type="curve" smooth="yes"/>
      <point x="51" y="107"/>
      <point x="52" y="228"/>
      <point x="52" y="346" type="curve" smooth="yes"/>
      <point x="52" y="524"/>
      <point x="50" y="526"/>
      <point x="53" y="557" type="curve" smooth="yes"/>
      <point x="54.95281451721526" y="573.5989233963297"/>
      <point x="60" y="589"/>
    </contour>
    <contour>
      <point x="388" y="303" type="curve" smooth="yes"/>
      <point x="388" y="288"/>
      <point x="371" y="271"/>
      <point x="342" y="270" type="curve" smooth="yes"/>
      <point x="277" y="264"/>
      <point x="165" y="267"/>
      <point x="95" y="266" type="curve"/>
      <point x="95" y="331" type="line"/>
      <point x="100" y="336"/>
      <point x="153" y="328"/>
      <point x="201" y="330" type="curve" smooth="yes"/>
      <point x="299" y="335"/>
      <point x="341" y="332"/>
      <point x="353" y="331" type="curve" smooth="yes"/>
      <point x="380" y="327"/>
      <point x="388" y="310"/>
    </contour>
  </outline>
</glyph>
<glyph name="G" format="2">
  <advance width="500"/>
  <unicode hex="0047"/>
  <anchor x="284" y="600" name="top"/>
  <anchor x="273" y="-6" name="cedilla"/>
  <anchor x="273" y="-6" name="ogonek"/>
  <anchor x="273" y="0" name="bottom"/>
  <outline>
    <contour>
      <point x="436" y="456" type="curve" smooth="yes"/>
      <point x="416" y="451"/>
      <point x="402" y="462"/>
      <point x="390" y="487" type="curve" smooth="yes"/>
      <point x="363" y="526"/>
      <point x="352" y="547"/>
      <point x="290" y="547" type="curve" smooth="yes"/>
      <point x="192" y="547"/>
      <point x="104" y="471"/>
      <point x="104" y="325" type="curve" smooth="yes"/>
      <point x="104" y="124"/>
      <point x="161" y="55"/>
      <point x="255" y="55" type="curve" smooth="yes"/>
      <point x="376" y="55"/>
      <point x="395" y="96"/>
      <point x="395" y="267" type="curve"/>
      <point x="344" y="270"/>
      <point x="286" y="268"/>
      <point x="271" y="268" type="curve" smooth="yes"/>
      <point x="254" y="271"/>
      <point x="242" y="281"/>
      <point x="243" y="299" type="curve" smooth="yes"/>
      <point x="242" y="315"/>
      <point x="257" y="326"/>
      <point x="282" y="328" type="curve" smooth="yes"/>
      <point x="308" y="330"/>
      <point x="362" y="325"/>
      <point x="424" y="326" type="curve" smooth="yes"/>
      <point x="452" y="326"/>
      <point x="457" y="316"/>
      <point x="457" y="274" type="curve" smooth="yes"/>
      <point x="457" y="100"/>
      <point x="424" y="-6"/>
      <point x="273" y="-6" type="curve" smooth="yes"/>
      <point x="119" y="-6"/>
      <point x="43" y="73"/>
      <point x="43" y="316" type="curve" smooth="yes"/>
      <point x="43" y="504"/>
      <point x="173" y="608"/>
      <point x="286" y="608" type="curve" smooth="yes"/>
      <point x="416" y="608"/>
      <point x="442" y="523"/>
      <point x="449" y="507" type="curve" smooth="yes"/>
      <point x="458" y="481"/>
      <point x="452" y="462"/>
    </contour>
  </outline>
</glyph>
<glyph name="H" format="2">
  <advance width="500"/>
  <unicode hex="0048"/>
  <anchor x="250" y="600" name="top"/>
  <anchor x="75" y="-7" name="cedilla"/>
  <anchor x="425" y="-7" name="ogonek"/>
  <anchor x="250" y="0" name="bottom"/>
  <outline>
    <contour>
      <point x="104" y="265" type="curve"/>
      <point x="103" y="328" type="line"/>
      <point x="198" y="327"/>
      <point x="316" y="334"/>
      <point x="402" y="328" type="curve"/>
      <point x="396" y="266" type="line"/>
      <point x="313" y="273"/>
      <point x="200" y="265"/>
    </contour>
    <contour>
      <point x="75" y="605" type="curve" smooth="yes"/>
      <point x="100" y="614"/>
      <point x="117" y="580"/>
      <point x="116" y="558" type="curve" smooth="yes"/>
      <point x="116" y="541"/>
      <point x="117" y="386"/>
      <point x="117" y="276" type="curve" smooth="yes"/>
      <point x="117" y="222"/>
      <point x="115" y="82"/>
      <point x="115" y="76" type="curve" smooth="yes"/>
      <point x="116" y="29"/>
      <point x="111" y="-13"/>
      <point x="75" y="-7" type="curve" smooth="yes"/>
      <point x="53" y="-3"/>
      <point x="44" y="29"/>
      <point x="48" y="70" type="curve" smooth="yes"/>
      <point x="51" y="111"/>
      <point x="49" y="229"/>
      <point x="49" y="346" type="curve" smooth="yes"/>
      <point x="49" y="525"/>
      <point x="47" y="532"/>
      <point x="50" y="563" type="curve" smooth="yes"/>
      <point x="54" y="596"/>
      <point x="68" y="602"/>
    </contour>
    <contour>
      <point x="425" y="605" type="curve" smooth="yes"/>
      <point x="432" y="602"/>
      <point x="446" y="596"/>
      <point x="450" y="563" type="curve" smooth="yes"/>
      <point x="453" y="532"/>
      <point x="451" y="525"/>
      <point x="451" y="346" type="curve" smooth="yes"/>
      <point x="451" y="229"/>
      <point x="449" y="111"/>
      <point x="452" y="70" type="curve" smooth="yes"/>
      <point x="456" y="29"/>
      <point x="447" y="-3"/>
      <point x="425" y="-7" type="curve" smooth="yes"/>
      <point x="389" y="-13"/>
      <point x="384" y="29"/>
      <point x="385" y="76" type="curve" smooth="yes"/>
      <point x="385" y="82"/>
      <point x="383" y="222"/>
      <point x="383" y="276" type="curve" smooth="yes"/>
      <point x="383" y="386"/>
      <point x="384" y="541"/>
      <point x="384" y="558" type="curve" smooth="yes"/>
      <point x="383" y="580"/>
      <point x="400" y="614"/>
    </contour>
  </outline>
</glyph>
<glyph name="I" format="2">
  <advance width="500"/>
  <unicode hex="0049"/>
  <anchor x="250" y="600" name="top"/>
  <anchor x="250" y="0" name="cedilla"/>
  <anchor x="250" y="0" name="ogonek"/>
  <anchor x="250" y="0" name="bottom"/>
  <outline>
    <contour>
      <point x="280" y="551" type="line"/>
      <point x="279" y="455"/>
      <point x="280" y="483"/>
      <point x="280" y="312" type="curve" smooth="yes"/>
      <point x="280" y="232"/>
      <point x="281" y="152"/>
      <point x="281" y="49" type="curve"/>
      <point x="217" y="50" type="line"/>
      <point x="217" y="79"/>
      <point x="217" y="252"/>
      <point x="218" y="291" type="curve" smooth="yes"/>
      <point x="218" y="268"/>
      <point x="218" y="517"/>
      <point x="218" y="551" type="curve"/>
    </contour>
    <contour>
      <point x="76" y="571" type="curve" smooth="yes"/>
      <point x="76" y="584"/>
      <point x="86" y="599"/>
      <point x="116" y="600" type="curve" smooth="yes"/>
      <point x="168" y="601"/>
      <point x="212" y="600"/>
      <point x="235" y="600" type="curve" smooth="yes"/>
      <point x="289" y="599"/>
      <point x="331" y="602"/>
      <point x="385" y="600" type="curve" smooth="yes"/>
      <point x="409" y="599"/>
      <point x="424" y="588"/>
      <point x="424" y="569" type="curve" smooth="yes"/>
      <point x="424" y="553"/>
      <point x="407" y="536"/>
      <point x="375" y="536" type="curve" smooth="yes"/>
      <point x="327" y="536"/>
      <point x="275" y="538"/>
      <point x="238" y="536" type="curve" smooth="yes"/>
      <point x="198" y="534"/>
      <point x="134" y="535"/>
      <point x="116" y="538" type="curve" smooth="yes"/>
      <point x="83" y="540"/>
      <point x="76" y="553"/>
    </contour>
    <contour>
      <point x="76" y="28" type="curve" smooth="yes"/>
      <point x="76" y="48"/>
      <point x="94" y="60"/>
      <point x="122" y="63" type="curve" smooth="yes"/>
      <point x="144" y="65"/>
      <point x="198" y="63"/>
      <point x="238" y="65" type="curve" smooth="yes"/>
      <point x="275" y="67"/>
      <point x="327" y="65"/>
      <point x="375" y="64" type="curve" smooth="yes"/>
      <point x="407" y="63"/>
      <point x="424" y="46"/>
      <point x="424" y="31" type="curve" smooth="yes"/>
      <point x="424" y="12"/>
      <point x="412" y="1"/>
      <point x="385" y="0" type="curve" smooth="yes"/>
      <point x="331" y="-2"/>
      <point x="289" y="1"/>
      <point x="235" y="0" type="curve" smooth="yes"/>
      <point x="212" y="0"/>
      <point x="168" y="-2"/>
      <point x="116" y="0" type="curve" smooth="yes"/>
      <point x="84" y="1"/>
      <point x="76" y="9"/>
    </contour>
  </outline>
</glyph>
<glyph name="J" format="2">
  <advance width="500"/>
  <unicode hex="004A"/>
  <anchor x="317" y="600" name="top"/>
  <anchor x="243" y="-11" name="cedilla"/>
  <anchor x="243" y="-11" name="ogonek"/>
  <anchor x="245" y="0" name="bottom"/>
  <outline>
    <contour>
      <point x="195" y="573" type="curve" smooth="yes"/>
      <point x="196" y="586"/>
      <point x="206" y="600"/>
      <point x="236" y="600" type="curve" smooth="yes"/>
      <point x="245" y="600"/>
      <point x="289" y="599"/>
      <point x="301" y="599" type="curve" smooth="yes"/>
      <point x="347" y="598"/>
      <point x="376" y="603"/>
      <point x="410" y="600" type="curve" smooth="yes"/>
      <point x="434" y="598"/>
      <point x="449" y="588"/>
      <point x="449" y="568" type="curve" smooth="yes"/>
      <point x="445" y="478"/>
      <point x="442" y="432"/>
      <point x="448" y="254" type="curve" smooth="yes"/>
      <point x="452" y="119"/>
      <point x="367" y="-11"/>
      <point x="243" y="-11" type="curve" smooth="yes"/>
      <point x="144" y="-11"/>
      <point x="84" y="24"/>
      <point x="51" y="93" type="curve" smooth="yes"/>
      <point x="34" y="130"/>
      <point x="33" y="155"/>
      <point x="58" y="164" type="curve" smooth="yes"/>
      <point x="81" y="173"/>
      <point x="96" y="151"/>
      <point x="114" y="117" type="curve" smooth="yes"/>
      <point x="131" y="85"/>
      <point x="169" y="51"/>
      <point x="243" y="51" type="curve" smooth="yes"/>
      <point x="309" y="51"/>
      <point x="369" y="131"/>
      <point x="379" y="191" type="curve" smooth="yes"/>
      <point x="387" y="235"/>
      <point x="385" y="314"/>
      <point x="384" y="350" type="curve" smooth="yes"/>
      <point x="382" y="408"/>
      <point x="382" y="431"/>
      <point x="385" y="536" type="curve"/>
      <point x="372" y="535"/>
      <point x="287" y="535"/>
      <point x="235" y="538" type="curve" smooth="yes"/>
      <point x="202" y="540"/>
      <point x="195" y="554"/>
    </contour>
  </outline>
</glyph>
<glyph name="K" format="2">
  <advance width="500"/>
  <unicode hex="004B"/>
  <anchor x="250" y="600" name="top"/>
  <anchor x="82" y="-7" name="cedilla"/>
  <anchor x="441" y="-2" name="ogonek"/>
  <anchor x="233" y="0" name="bottom"/>
  <outline>
    <contour>
      <point x="90" y="607" type="curve" smooth="yes"/>
      <point x="114" y="612"/>
      <point x="125" y="584"/>
      <point x="124" y="564" type="curve" smooth="yes"/>
      <point x="117" y="401"/>
      <point x="119" y="243"/>
      <point x="117" y="67" type="curve" smooth="yes"/>
      <point x="116" y="26"/>
      <point x="113" y="-9"/>
      <point x="82" y="-7" type="curve" smooth="yes"/>
      <point x="56" y="-5"/>
      <point x="51" y="30"/>
      <point x="54" y="68" type="curve" smooth="yes"/>
      <point x="57" y="131"/>
      <point x="57" y="238"/>
      <point x="57" y="345" type="curve" smooth="yes"/>
      <point x="57" y="430"/>
      <point x="57" y="516"/>
      <point x="63" y="566" type="curve" smooth="yes"/>
      <point x="67" y="596"/>
      <point x="77" y="604"/>
    </contour>
    <contour>
      <point x="438" y="593" type="curve" smooth="yes"/>
      <point x="455" y="579"/>
      <point x="454" y="556"/>
      <point x="435" y="537" type="curve" smooth="yes"/>
      <point x="329" y="425"/>
      <point x="299" y="400"/>
      <point x="254" y="359" type="curve" smooth="yes"/>
      <point x="231" y="339"/>
      <point x="208" y="321"/>
      <point x="99" y="225" type="curve"/>
      <point x="99" y="314" type="line"/>
      <point x="140" y="348"/>
      <point x="172" y="367"/>
      <point x="257" y="448" type="curve" smooth="yes"/>
      <point x="336" y="523"/>
      <point x="369" y="562"/>
      <point x="399" y="590" type="curve" smooth="yes"/>
      <point x="417" y="606"/>
      <point x="434" y="597"/>
    </contour>
    <contour>
      <point x="471" y="18" type="curve" smooth="yes"/>
      <point x="468" y="9"/>
      <point x="459" y="-2"/>
      <point x="441" y="-2" type="curve" smooth="yes"/>
      <point x="416" y="-2"/>
      <point x="401" y="7"/>
      <point x="374" y="35" type="curve" smooth="yes"/>
      <point x="358" y="50"/>
      <point x="333" y="87"/>
      <point x="294" y="149" type="curve" smooth="yes"/>
      <point x="279" y="173"/>
      <point x="268" y="193"/>
      <point x="187" y="323" type="curve"/>
      <point x="234" y="366" type="line"/>
      <point x="285" y="285"/>
      <point x="339" y="198"/>
      <point x="391" y="116" type="curve" smooth="yes"/>
      <point x="412" y="85"/>
      <point x="426" y="65"/>
      <point x="451" y="59" type="curve" smooth="yes"/>
      <point x="470" y="54"/>
      <point x="475" y="32"/>
    </contour>
  </outline>
</glyph>
<glyph name="L" format="2">
  <advance width="500"/>
  <unicode hex="004C"/>
  <anchor x="200" y="600" name="top"/>
  <anchor x="250" y="3" name="cedilla"/>
  <anchor x="314" y="3" name="ogonek"/>
  <anchor x="250" y="0" name="bottom"/>
  <outline>
    <contour>
      <point x="75" y="599" type="curve" smooth="yes"/>
      <point x="99" y="606"/>
      <point x="114" y="578"/>
      <point x="115" y="558" type="curve" smooth="yes"/>
      <point x="119" y="507"/>
      <point x="118" y="443"/>
      <point x="117" y="375" type="curve" smooth="yes"/>
      <point x="117" y="264"/>
      <point x="112" y="177"/>
      <point x="115" y="64" type="curve"/>
      <point x="151" y="69"/>
      <point x="196" y="69"/>
      <point x="249" y="69" type="curve" smooth="yes"/>
      <point x="304" y="69"/>
      <point x="348" y="69"/>
      <point x="421" y="65" type="curve" smooth="yes"/>
      <point x="449" y="64"/>
      <point x="467" y="50"/>
      <point x="462" y="26" type="curve" smooth="yes"/>
      <point x="460" y="19"/>
      <point x="456" y="4"/>
      <point x="432" y="1" type="curve" smooth="yes"/>
      <point x="421" y="-1"/>
      <point x="413" y="-1"/>
      <point x="391" y="0" type="curve" smooth="yes"/>
      <point x="379" y="0"/>
      <point x="373" y="3"/>
      <point x="250" y="3" type="curve" smooth="yes"/>
      <point x="168" y="3"/>
      <point x="112" y="-4"/>
      <point x="81" y="-4" type="curve" smooth="yes"/>
      <point x="55" y="-4"/>
      <point x="48" y="31"/>
      <point x="48" y="69" type="curve" smooth="yes"/>
      <point x="48" y="111"/>
      <point x="53" y="220"/>
      <point x="53" y="337" type="curve" smooth="yes"/>
      <point x="53" y="405"/>
      <point x="54" y="472"/>
      <point x="51" y="557" type="curve" smooth="yes"/>
      <point x="50" y="587"/>
      <point x="63" y="596"/>
    </contour>
  </outline>
</glyph>
<glyph name="M" format="2">
  <advance width="500"/>
  <unicode hex="004D"/>
  <anchor x="250" y="600" name="top"/>
  <anchor x="78" y="-6" name="cedilla"/>
  <anchor x="424" y="-6" name="ogonek"/>
  <anchor x="250" y="0" name="bottom"/>
  <outline>
    <contour>
      <point x="419" y="605" type="curve" smooth="yes"/>
      <point x="442" y="604"/>
      <point x="447" y="584"/>
      <point x="450" y="563" type="curve" smooth="yes"/>
      <point x="453" y="544"/>
      <point x="452" y="532"/>
      <point x="451.48016357421875" y="485.98394775390625" type="curve" smooth="yes"/>
      <point x="451" y="457"/>
      <point x="451" y="413.77069091796875"/>
      <point x="451" y="346" type="curve" smooth="yes"/>
      <point x="451" y="310.6256408691406"/>
      <point x="450.8171691894531" y="275.1598815917969"/>
      <point x="450.6449890136719" y="241.75848388671875" type="curve" smooth="yes"/>
      <point x="450" y="171"/>
      <point x="450" y="111"/>
      <point x="452" y="70" type="curve" smooth="yes"/>
      <point x="455" y="29"/>
      <point x="446" y="-3"/>
      <point x="424" y="-6" type="curve" smooth="yes"/>
      <point x="388" y="-11"/>
      <point x="385" y="31"/>
      <point x="387" y="78" type="curve" smooth="yes"/>
      <point x="387" y="88"/>
      <point x="387" y="176"/>
      <point x="386" y="250" type="curve" smooth="yes"/>
      <point x="385" y="303"/>
      <point x="383" y="431"/>
      <point x="390" y="471" type="curve"/>
      <point x="382" y="451"/>
      <point x="363" y="421"/>
      <point x="351" y="400" type="curve" smooth="yes"/>
      <point x="329" y="362"/>
      <point x="320" y="343"/>
      <point x="308" y="325" type="curve" smooth="yes"/>
      <point x="286" y="291"/>
      <point x="275" y="273"/>
      <point x="250" y="273" type="curve" smooth="yes"/>
      <point x="225" y="273"/>
      <point x="213" y="290"/>
      <point x="192" y="324" type="curve" smooth="yes"/>
      <point x="178" y="347"/>
      <point x="166" y="371"/>
      <point x="152" y="395" type="curve" smooth="yes"/>
      <point x="127" y="436"/>
      <point x="122" y="439"/>
      <point x="110" y="471" type="curve"/>
      <point x="117" y="424"/>
      <point x="116" y="332"/>
      <point x="115" y="276" type="curve" smooth="yes"/>
      <point x="114" y="222"/>
      <point x="112" y="132"/>
      <point x="114" y="77" type="curve" smooth="yes"/>
      <point x="115" y="30"/>
      <point x="113" y="-12"/>
      <point x="78" y="-6" type="curve" smooth="yes"/>
      <point x="54" y="-3"/>
      <point x="45" y="29"/>
      <point x="48" y="70" type="curve" smooth="yes"/>
      <point x="50" y="98"/>
      <point x="50" y="164"/>
      <point x="49.35500717163086" y="241.75848388671875" type="curve" smooth="yes"/>
      <point x="49.182823181152344" y="275.1598815917969"/>
      <point x="49" y="311"/>
      <point x="49" y="346" type="curve" smooth="yes"/>
      <point x="49" y="414"/>
      <point x="48.713314056396484" y="456.8863220214844"/>
      <point x="48.51983642578125" y="485.9839782714844" type="curve" smooth="yes"/>
      <point x="48.20228958129883" y="533.74072265625"/>
      <point x="48" y="544"/>
      <point x="50" y="563" type="curve" smooth="yes"/>
      <point x="52" y="587"/>
      <point x="58" y="607"/>
      <point x="83" y="607" type="curve" smooth="yes"/>
      <point x="103" y="607"/>
      <point x="112" y="598"/>
      <point x="127" y="574" type="curve" smooth="yes"/>
      <point x="140" y="553"/>
      <point x="145" y="536"/>
      <point x="182" y="473" type="curve" smooth="yes"/>
      <point x="205" y="434"/>
      <point x="228" y="384"/>
      <point x="250" y="344" type="curve"/>
      <point x="263" y="371"/>
      <point x="291" y="422"/>
      <point x="322" y="474" type="curve" smooth="yes"/>
      <point x="359" y="537"/>
      <point x="370" y="562"/>
      <point x="383" y="583" type="curve" smooth="yes"/>
      <point x="394" y="601"/>
      <point x="403" y="605"/>
    </contour>
  </outline>
</glyph>
<glyph name="N" format="2">
  <advance width="500"/>
  <unicode hex="004E"/>
  <anchor x="250" y="600" name="top"/>
  <anchor x="76" y="-8" name="cedilla"/>
  <anchor x="424" y="-2" name="ogonek"/>
  <anchor x="250" y="0" name="bottom"/>
  <outline>
    <contour>
      <point x="423" y="607" type="curve" smooth="yes"/>
      <point x="430" y="607"/>
      <point x="451" y="600"/>
      <point x="451" y="559" type="curve" smooth="yes"/>
      <point x="449" y="408"/>
      <point x="451" y="502"/>
      <point x="451" y="297" type="curve" smooth="yes"/>
      <point x="451" y="256"/>
      <point x="448" y="168"/>
      <point x="453" y="27" type="curve" smooth="yes"/>
      <point x="453" y="11"/>
      <point x="441" y="-2"/>
      <point x="424" y="-2" type="curve" smooth="yes"/>
      <point x="406" y="-2"/>
      <point x="397" y="6"/>
      <point x="391" y="28" type="curve" smooth="yes"/>
      <point x="365" y="133"/>
      <point x="293" y="238"/>
      <point x="196" y="379" type="curve" smooth="yes"/>
      <point x="193" y="383"/>
      <point x="165" y="420"/>
      <point x="114" y="489" type="curve"/>
      <point x="119" y="356"/>
      <point x="118" y="205"/>
      <point x="113" y="71" type="curve" smooth="yes"/>
      <point x="112" y="28"/>
      <point x="109" y="-8"/>
      <point x="76" y="-8" type="curve" smooth="yes"/>
      <point x="54" y="-8"/>
      <point x="47" y="28"/>
      <point x="49" y="65" type="curve" smooth="yes"/>
      <point x="56" y="208"/>
      <point x="51" y="349"/>
      <point x="50" y="483" type="curve" smooth="yes"/>
      <point x="49" y="516"/>
      <point x="41" y="603"/>
      <point x="92" y="603" type="curve" smooth="yes"/>
      <point x="118" y="603"/>
      <point x="126" y="592"/>
      <point x="132" y="583" type="curve" smooth="yes"/>
      <point x="170" y="530"/>
      <point x="367" y="268"/>
      <point x="389" y="191" type="curve"/>
      <point x="389" y="197"/>
      <point x="388" y="203"/>
      <point x="388" y="226" type="curve" smooth="yes"/>
      <point x="384" y="333"/>
      <point x="388" y="449"/>
      <point x="388" y="554" type="curve" smooth="yes"/>
      <point x="388" y="584"/>
      <point x="394" y="607"/>
    </contour>
  </outline>
</glyph>
<glyph name="O" format="2">
  <advance width="500"/>
  <unicode hex="004F"/>
  <anchor x="250" y="600" name="top"/>
  <anchor x="250" y="-13" name="cedilla"/>
  <anchor x="250" y="-13" name="ogonek"/>
  <anchor x="250" y="0" name="bottom"/>
  <anchor x="380" y="535" name="horn"/>
  <outline>
    <contour>
      <point x="250" y="613" type="curve" smooth="yes"/>
      <point x="340" y="613"/>
      <point x="384" y="581"/>
      <point x="416" y="513" type="curve" smooth="yes"/>
      <point x="438" y="466"/>
      <point x="454" y="400"/>
      <point x="454" y="301" type="curve" smooth="yes"/>
      <point x="454" y="207"/>
      <point x="447" y="138"/>
      <point x="424" y="90" type="curve" smooth="yes"/>
      <point x="388" y="14"/>
      <point x="342" y="-13"/>
      <point x="250" y="-13" type="curve" smooth="yes"/>
      <point x="173" y="-13"/>
      <point x="139" y="9"/>
      <point x="99" y="58" type="curve" smooth="yes"/>
      <point x="59" y="107"/>
      <point x="46" y="190"/>
      <point x="46" y="301" type="curve" smooth="yes"/>
      <point x="46" y="418"/>
      <point x="73" y="492"/>
      <point x="107" y="546" type="curve" smooth="yes"/>
      <point x="135" y="591"/>
      <point x="177" y="613"/>
    </contour>
    <contour>
      <point x="250" y="557" type="curve" smooth="yes"/>
      <point x="194" y="557"/>
      <point x="167" y="536"/>
      <point x="149" y="494" type="curve" smooth="yes"/>
      <point x="131" y="452"/>
      <point x="113" y="393"/>
      <point x="113" y="301" type="curve" smooth="yes"/>
      <point x="113" y="215"/>
      <point x="123" y="150"/>
      <point x="146" y="110" type="curve" smooth="yes"/>
      <point x="166" y="78"/>
      <point x="188" y="51"/>
      <point x="250" y="51" type="curve" smooth="yes"/>
      <point x="318" y="51"/>
      <point x="341" y="72"/>
      <point x="365" y="130" type="curve" smooth="yes"/>
      <point x="384" y="175"/>
      <point x="387" y="224"/>
      <point x="387" y="301" type="curve" smooth="yes"/>
      <point x="387" y="390"/>
      <point x="373" y="448"/>
      <point x="356" y="487" type="curve" smooth="yes"/>
      <point x="336" y="535"/>
      <point x="311" y="557"/>
    </contour>
  </outline>
</glyph>
<glyph name="P" format="2">
  <advance width="500"/>
  <unicode hex="0050"/>
  <anchor x="210" y="600" name="top"/>
  <anchor x="77" y="-8" name="cedilla"/>
  <anchor x="77" y="-8" name="ogonek"/>
  <anchor x="210" y="0" name="bottom"/>
  <outline>
    <contour>
      <point x="50" y="561" type="curve" smooth="yes"/>
      <point x="52" y="579"/>
      <point x="72" y="608"/>
      <point x="197" y="614" type="curve" smooth="yes"/>
      <point x="239" y="616"/>
      <point x="274" y="611"/>
      <point x="313" y="601" type="curve" smooth="yes"/>
      <point x="415" y="576"/>
      <point x="454" y="514"/>
      <point x="455" y="429" type="curve" smooth="yes"/>
      <point x="456" y="339"/>
      <point x="417" y="278"/>
      <point x="352" y="252" type="curve" smooth="yes"/>
      <point x="319" y="236"/>
      <point x="273" y="221"/>
      <point x="175" y="231" type="curve" smooth="yes"/>
      <point x="148" y="233"/>
      <point x="104" y="238"/>
      <point x="105" y="238" type="curve"/>
      <point x="105" y="301" type="line"/>
      <point x="112" y="300"/>
      <point x="115" y="299"/>
      <point x="122" y="299" type="curve" smooth="yes"/>
      <point x="256" y="284"/>
      <point x="321" y="301"/>
      <point x="352" y="329" type="curve" smooth="yes"/>
      <point x="387" y="358"/>
      <point x="392" y="397"/>
      <point x="392" y="427" type="curve" smooth="yes"/>
      <point x="391" y="498"/>
      <point x="351" y="527"/>
      <point x="291" y="544" type="curve" smooth="yes"/>
      <point x="262" y="552"/>
      <point x="228" y="556"/>
      <point x="192" y="554" type="curve" smooth="yes"/>
      <point x="169" y="553"/>
      <point x="135" y="550"/>
      <point x="107" y="535" type="curve"/>
      <point x="112" y="442"/>
      <point x="122.34109845627687" y="136.7530805718888"/>
      <point x="111" y="43" type="curve" smooth="yes"/>
      <point x="106" y="16"/>
      <point x="101" y="-8"/>
      <point x="77" y="-8" type="curve" smooth="yes"/>
      <point x="52" y="-9"/>
      <point x="44" y="21"/>
      <point x="50" y="56" type="curve" smooth="yes"/>
      <point x="55" y="111"/>
      <point x="57" y="316"/>
      <point x="54" y="440" type="curve" smooth="yes"/>
      <point x="53.28879016838957" y="479.1165407385739"/>
      <point x="47" y="533"/>
    </contour>
  </outline>
</glyph>
<glyph name="Q" format="2">
  <advance width="500"/>
  <unicode hex="0051"/>
  <anchor x="250" y="600" name="top"/>
  <anchor x="228" y="-1" name="cedilla"/>
  <anchor x="395" y="-28" name="ogonek"/>
  <anchor x="270" y="0" name="bottom"/>
  <outline>
    <contour>
      <point x="236" y="65" type="curve" smooth="yes"/>
      <point x="351" y="65"/>
      <point x="386" y="193"/>
      <point x="386" y="301" type="curve" smooth="yes"/>
      <point x="386" y="393"/>
      <point x="383" y="553"/>
      <point x="249" y="553" type="curve" smooth="yes"/>
      <point x="136" y="553"/>
      <point x="115" y="412"/>
      <point x="115" y="308" type="curve" smooth="yes"/>
      <point x="115" y="210"/>
      <point x="144" y="65"/>
    </contour>
    <contour>
      <point x="409" y="119" type="curve" smooth="yes"/>
      <point x="379" y="59"/>
      <point x="339" y="-1"/>
      <point x="228" y="-1" type="curve" smooth="yes"/>
      <point x="108" y="-1"/>
      <point x="52" y="143"/>
      <point x="53" y="308" type="curve" smooth="yes"/>
      <point x="53" y="443"/>
      <point x="84" y="612"/>
      <point x="249" y="612" type="curve" smooth="yes"/>
      <point x="327" y="612"/>
      <point x="360" y="584"/>
      <point x="391" y="547" type="curve" smooth="yes"/>
      <point x="430" y="499"/>
      <point x="446" y="420"/>
      <point x="446" y="301" type="curve" smooth="yes"/>
      <point x="446" y="234"/>
      <point x="430" y="166"/>
    </contour>
    <contour>
      <point x="225" y="301" type="curve" smooth="yes"/>
      <point x="242" y="313"/>
      <point x="258" y="308"/>
      <point x="279" y="280" type="curve" smooth="yes"/>
      <point x="292" y="262"/>
      <point x="333" y="189"/>
      <point x="356" y="155" type="curve" smooth="yes"/>
      <point x="377" y="125"/>
      <point x="420" y="56"/>
      <point x="444" y="16" type="curve" smooth="yes"/>
      <point x="459" y="-13"/>
      <point x="454" y="-36"/>
      <point x="442" y="-44" type="curve" smooth="yes"/>
      <point x="426" y="-53"/>
      <point x="409" y="-48"/>
      <point x="395" y="-28" type="curve" smooth="yes"/>
      <point x="365" y="18"/>
      <point x="327" y="79"/>
      <point x="299" y="125" type="curve" smooth="yes"/>
      <point x="287" y="143"/>
      <point x="251" y="196"/>
      <point x="222" y="241" type="curve" smooth="yes"/>
      <point x="207" y="264"/>
      <point x="208" y="289"/>
    </contour>
  </outline>
</glyph>
<glyph name="R" format="2">
  <advance width="500"/>
  <unicode hex="0052"/>
  <anchor x="220" y="600" name="top"/>
  <anchor x="74" y="-9" name="cedilla"/>
  <anchor x="403" y="0" name="ogonek"/>
  <anchor x="240" y="0" name="bottom"/>
  <outline>
    <contour>
      <point x="60" y="565" type="curve" smooth="yes"/>
      <point x="65" y="602"/>
      <point x="101" y="607"/>
      <point x="210" y="607" type="curve" smooth="yes"/>
      <point x="391" y="607"/>
      <point x="432" y="533"/>
      <point x="432" y="441" type="curve" smooth="yes"/>
      <point x="432" y="361"/>
      <point x="394" y="312"/>
      <point x="334" y="290" type="curve" smooth="yes"/>
      <point x="294" y="275"/>
      <point x="236" y="255"/>
      <point x="182" y="255" type="curve" smooth="yes"/>
      <point x="157" y="255"/>
      <point x="114" y="255"/>
      <point x="109" y="255" type="curve"/>
      <point x="113" y="316" type="line"/>
      <point x="119" y="316"/>
      <point x="127" y="315"/>
      <point x="132" y="315" type="curve" smooth="yes"/>
      <point x="332" y="315"/>
      <point x="368" y="376"/>
      <point x="368" y="442" type="curve" smooth="yes"/>
      <point x="368" y="519"/>
      <point x="322" y="547"/>
      <point x="202" y="547" type="curve" smooth="yes"/>
      <point x="155" y="547"/>
      <point x="136" y="543"/>
      <point x="118" y="540" type="curve"/>
      <point x="131" y="463"/>
      <point x="121.08417536651561" y="124.57519833785663"/>
      <point x="109" y="42" type="curve" smooth="yes"/>
      <point x="104" y="15"/>
      <point x="98" y="-9"/>
      <point x="74" y="-9" type="curve" smooth="yes"/>
      <point x="49" y="-9"/>
      <point x="42" y="21"/>
      <point x="48" y="56" type="curve" smooth="yes"/>
      <point x="55" y="111"/>
      <point x="61" y="316"/>
      <point x="61" y="440" type="curve" smooth="yes"/>
      <point x="61" y="478.99295472856824"/>
      <point x="57" y="541"/>
    </contour>
    <contour>
      <point x="275" y="285" type="line"/>
      <point x="335" y="275"/>
      <point x="366" y="234"/>
      <point x="377" y="208" type="curve" smooth="yes"/>
      <point x="397" y="156"/>
      <point x="405" y="97"/>
      <point x="445" y="45" type="curve" smooth="yes"/>
      <point x="464" y="20"/>
      <point x="447" y="-7"/>
      <point x="427" y="-8" type="curve" smooth="yes"/>
      <point x="402" y="-9"/>
      <point x="386" y="17"/>
      <point x="374" y="34" type="curve" smooth="yes"/>
      <point x="343" y="79"/>
      <point x="335" y="181"/>
      <point x="287" y="221" type="curve" smooth="yes"/>
      <point x="254" y="249"/>
      <point x="209" y="253"/>
      <point x="140" y="259" type="curve"/>
    </contour>
  </outline>
</glyph>
<glyph name="S" format="2">
  <advance width="500"/>
  <unicode hex="0053"/>
  <anchor x="260" y="600" name="top"/>
  <anchor x="235" y="-9" name="cedilla"/>
  <anchor x="235" y="-9" name="ogonek"/>
  <anchor x="260" y="0" name="bottom"/>
  <outline>
    <contour>
      <point x="244" y="612" type="curve" smooth="yes"/>
      <point x="322" y="612"/>
      <point x="366" y="595"/>
      <point x="408" y="554" type="curve" smooth="yes"/>
      <point x="431" y="531"/>
      <point x="428" y="509"/>
      <point x="415" y="498" type="curve" smooth="yes"/>
      <point x="402" y="487"/>
      <point x="377" y="497"/>
      <point x="363" y="510" type="curve" smooth="yes"/>
      <point x="341" y="530"/>
      <point x="322" y="550"/>
      <point x="251" y="550" type="curve" smooth="yes"/>
      <point x="186" y="550"/>
      <point x="139" y="501"/>
      <point x="139" y="437" type="curve" smooth="yes"/>
      <point x="139" y="371"/>
      <point x="182" y="335"/>
      <point x="255" y="335" type="curve" smooth="yes"/>
      <point x="322" y="335"/>
      <point x="361" y="325"/>
      <point x="400" y="297" type="curve" smooth="yes"/>
      <point x="430" y="275"/>
      <point x="450" y="241"/>
      <point x="450" y="189" type="curve" smooth="yes"/>
      <point x="450" y="129"/>
      <point x="435" y="84"/>
      <point x="405" y="51" type="curve" smooth="yes"/>
      <point x="371" y="13"/>
      <point x="312" y="-9"/>
      <point x="235" y="-9" type="curve" smooth="yes"/>
      <point x="168" y="-9"/>
      <point x="109" y="13"/>
      <point x="71" y="46" type="curve" smooth="yes"/>
      <point x="49" y="65"/>
      <point x="41" y="94"/>
      <point x="64" y="111" type="curve" smooth="yes"/>
      <point x="87" y="129"/>
      <point x="107" y="107"/>
      <point x="123" y="96" type="curve" smooth="yes"/>
      <point x="171" y="62"/>
      <point x="209" y="57"/>
      <point x="237" y="57" type="curve" smooth="yes"/>
      <point x="295" y="57"/>
      <point x="333" y="74"/>
      <point x="355" y="97" type="curve" smooth="yes"/>
      <point x="375" y="119"/>
      <point x="385" y="150"/>
      <point x="385" y="180" type="curve" smooth="yes"/>
      <point x="385" y="204"/>
      <point x="378" y="225"/>
      <point x="361" y="242" type="curve" smooth="yes"/>
      <point x="342" y="260"/>
      <point x="311" y="270"/>
      <point x="264" y="270" type="curve" smooth="yes"/>
      <point x="142" y="270"/>
      <point x="74" y="334"/>
      <point x="74" y="439" type="curve" smooth="yes"/>
      <point x="74" y="548"/>
      <point x="157" y="612"/>
    </contour>
  </outline>
</glyph>
<glyph name="T" format="2">
  <advance width="500"/>
  <unicode hex="0054"/>
  <anchor x="250" y="600" name="top"/>
  <anchor x="250" y="-8" name="cedilla"/>
  <anchor x="250" y="-8" name="ogonek"/>
  <anchor x="250" y="0" name="bottom"/>
  <outline>
    <contour>
      <point x="279" y="556" type="line"/>
      <point x="282" y="524"/>
      <point x="280" y="521"/>
      <point x="280" y="343" type="curve" smooth="yes"/>
      <point x="280" y="213"/>
      <point x="281" y="88"/>
      <point x="281" y="72" type="curve" smooth="yes"/>
      <point x="281" y="17"/>
      <point x="281" y="-8"/>
      <point x="250" y="-8" type="curve" smooth="yes"/>
      <point x="220" y="-8"/>
      <point x="216" y="27"/>
      <point x="217" y="73" type="curve" smooth="yes"/>
      <point x="217" y="79"/>
      <point x="217" y="262"/>
      <point x="218" y="301" type="curve" smooth="yes"/>
      <point x="218" y="278"/>
      <point x="218" y="517"/>
      <point x="218" y="551" type="curve"/>
    </contour>
    <contour>
      <point x="22" y="571" type="curve" smooth="yes"/>
      <point x="22" y="584"/>
      <point x="35" y="600"/>
      <point x="62" y="600" type="curve" smooth="yes"/>
      <point x="136" y="600"/>
      <point x="143" y="597"/>
      <point x="176" y="599" type="curve" smooth="yes"/>
      <point x="228" y="600"/>
      <point x="308" y="602"/>
      <point x="346" y="600" type="curve" smooth="yes"/>
      <point x="392" y="597"/>
      <point x="419" y="600"/>
      <point x="435" y="600" type="curve" smooth="yes"/>
      <point x="465" y="600"/>
      <point x="478" y="590"/>
      <point x="478" y="570" type="curve" smooth="yes"/>
      <point x="478" y="551"/>
      <point x="463" y="536"/>
      <point x="436" y="535" type="curve" smooth="yes"/>
      <point x="444" y="536"/>
      <point x="391" y="531"/>
      <point x="309" y="536" type="curve" smooth="yes"/>
      <point x="307" y="536"/>
      <point x="269" y="538"/>
      <point x="233" y="536" type="curve" smooth="yes"/>
      <point x="146" y="532"/>
      <point x="87" y="535"/>
      <point x="62" y="538" type="curve" smooth="yes"/>
      <point x="32" y="540"/>
      <point x="23" y="553"/>
    </contour>
  </outline>
</glyph>
<glyph name="U" format="2">
  <advance width="500"/>
  <unicode hex="0055"/>
  <anchor x="250" y="600" name="top"/>
  <anchor x="250" y="-16" name="cedilla"/>
  <anchor x="250" y="-16" name="ogonek"/>
  <anchor x="250" y="0" name="bottom"/>
  <anchor x="418" y="535" name="horn"/>
  <outline>
    <contour>
      <point x="115" y="543" type="curve" smooth="yes"/>
      <point x="113" y="480"/>
      <point x="116" y="391"/>
      <point x="116" y="299" type="curve" smooth="yes"/>
      <point x="116" y="213"/>
      <point x="121" y="148"/>
      <point x="147" y="110" type="curve" smooth="yes"/>
      <point x="170" y="76"/>
      <point x="188" y="48"/>
      <point x="250" y="48" type="curve" smooth="yes"/>
      <point x="318" y="48"/>
      <point x="340" y="74"/>
      <point x="366" y="127" type="curve" smooth="yes"/>
      <point x="387" y="171"/>
      <point x="387" y="224"/>
      <point x="386" y="301" type="curve" smooth="yes"/>
      <point x="385" y="397"/>
      <point x="388" y="499"/>
      <point x="385" y="555" type="curve" smooth="yes"/>
      <point x="384" y="580"/>
      <point x="387" y="604"/>
      <point x="414" y="607" type="curve" smooth="yes"/>
      <point x="437" y="609"/>
      <point x="444" y="585"/>
      <point x="447" y="560" type="curve" smooth="yes"/>
      <point x="452" y="511"/>
      <point x="450" y="400"/>
      <point x="450" y="301" type="curve" smooth="yes"/>
      <point x="450" y="207"/>
      <point x="447" y="144"/>
      <point x="424" y="96" type="curve" smooth="yes"/>
      <point x="387" y="21"/>
      <point x="342" y="-16"/>
      <point x="250" y="-16" type="curve" smooth="yes"/>
      <point x="173" y="-16"/>
      <point x="139" y="14"/>
      <point x="99" y="63" type="curve" smooth="yes"/>
      <point x="59" y="112"/>
      <point x="48" y="190"/>
      <point x="50" y="301" type="curve" smooth="yes"/>
      <point x="52" y="421"/>
      <point x="48" y="523"/>
      <point x="50" y="567" type="curve" smooth="yes"/>
      <point x="51" y="588"/>
      <point x="55" y="608"/>
      <point x="84" y="608" type="curve" smooth="yes"/>
      <point x="112" y="608"/>
      <point x="116" y="578"/>
    </contour>
  </outline>
</glyph>
<glyph name="V" format="2">
  <advance width="500"/>
  <unicode hex="0056"/>
  <anchor x="250" y="600" name="top"/>
  <anchor x="250" y="0" name="cedilla"/>
  <anchor x="250" y="0" name="ogonek"/>
  <anchor x="250" y="0" name="bottom"/>
  <outline>
    <contour>
      <point x="71" y="608" type="curve" smooth="yes"/>
      <point x="77" y="610"/>
      <point x="95" y="607"/>
      <point x="106" y="576" type="curve" smooth="yes"/>
      <point x="138" y="489"/>
      <point x="140" y="459"/>
      <point x="174" y="341" type="curve" smooth="yes"/>
      <point x="191" y="282"/>
      <point x="211" y="217"/>
      <point x="227" y="175" type="curve" smooth="yes"/>
      <point x="238" y="142"/>
      <point x="246" y="120"/>
      <point x="248" y="83" type="curve"/>
      <point x="255" y="153"/>
      <point x="295" y="280"/>
      <point x="316" y="350" type="curve" smooth="yes"/>
      <point x="345" y="449"/>
      <point x="355" y="481"/>
      <point x="394" y="576" type="curve" smooth="yes"/>
      <point x="406" y="607"/>
      <point x="429" y="606"/>
      <point x="436" y="604" type="curve" smooth="yes"/>
      <point x="461" y="595"/>
      <point x="460" y="573"/>
      <point x="449" y="547" type="curve" smooth="yes"/>
      <point x="434" y="511"/>
      <point x="427" y="496"/>
      <point x="419" y="473" type="curve" smooth="yes"/>
      <point x="399" y="416"/>
      <point x="368" y="314"/>
      <point x="366" y="306" type="curve" smooth="yes"/>
      <point x="337" y="207"/>
      <point x="317" y="115"/>
      <point x="297" y="43" type="curve" smooth="yes"/>
      <point x="289" y="14"/>
      <point x="270" y="-9"/>
      <point x="250" y="-9" type="curve" smooth="yes"/>
      <point x="231" y="-9"/>
      <point x="216" y="11"/>
      <point x="204" y="43" type="curve" smooth="yes"/>
      <point x="202" y="49"/>
      <point x="137" y="247"/>
      <point x="122" y="300" type="curve" smooth="yes"/>
      <point x="105" y="362"/>
      <point x="95" y="393"/>
      <point x="71" y="475" type="curve" smooth="yes"/>
      <point x="60" y="512"/>
      <point x="51" y="543"/>
      <point x="48" y="553" type="curve" smooth="yes"/>
      <point x="41" y="573"/>
      <point x="42" y="601"/>
    </contour>
  </outline>
</glyph>
<glyph name="W" format="2">
  <advance width="500"/>
  <unicode hex="0057"/>
  <anchor x="250" y="600" name="top"/>
  <anchor x="156" y="-9" name="cedilla"/>
  <anchor x="345" y="-9" name="ogonek"/>
  <anchor x="250" y="0" name="bottom"/>
  <outline>
    <contour>
      <point x="61" y="606" type="curve" smooth="yes"/>
      <point x="67" y="607"/>
      <point x="86" y="602"/>
      <point x="91" y="569" type="curve" smooth="yes"/>
      <point x="104" y="471"/>
      <point x="101" y="498"/>
      <point x="128" y="327" type="curve" smooth="yes"/>
      <point x="135" y="276"/>
      <point x="153" y="155"/>
      <point x="159" y="79" type="curve"/>
      <point x="175" y="154"/>
      <point x="207" y="284"/>
      <point x="219" y="330" type="curve" smooth="yes"/>
      <point x="228" y="362"/>
      <point x="239" y="367"/>
      <point x="250" y="367" type="curve" smooth="yes"/>
      <point x="261" y="367"/>
      <point x="272" y="362"/>
      <point x="281" y="330" type="curve" smooth="yes"/>
      <point x="307" y="233"/>
      <point x="326" y="150"/>
      <point x="340" y="79" type="curve"/>
      <point x="345" y="149"/>
      <point x="360" y="280"/>
      <point x="368" y="331" type="curve" smooth="yes"/>
      <point x="389" y="463"/>
      <point x="388" y="472"/>
      <point x="409" y="570" type="curve" smooth="yes"/>
      <point x="417" y="602"/>
      <point x="436" y="606"/>
      <point x="442" y="605" type="curve" smooth="yes"/>
      <point x="471" y="598"/>
      <point x="473" y="571"/>
      <point x="468" y="550" type="curve" smooth="yes"/>
      <point x="460" y="521"/>
      <point x="434" y="352"/>
      <point x="427" y="300" type="curve" smooth="yes"/>
      <point x="423" y="273"/>
      <point x="395" y="58"/>
      <point x="394" y="50" type="curve" smooth="yes"/>
      <point x="389" y="18"/>
      <point x="374" y="-8"/>
      <point x="345" y="-9" type="curve" smooth="yes"/>
      <point x="312" y="-11"/>
      <point x="302" y="18"/>
      <point x="291" y="53" type="curve" smooth="yes"/>
      <point x="273" y="109"/>
      <point x="262" y="156"/>
      <point x="250" y="204.22911071777344" type="curve"/>
      <point x="238" y="156"/>
      <point x="227" y="109"/>
      <point x="209" y="53" type="curve" smooth="yes"/>
      <point x="198" y="19"/>
      <point x="187" y="-11"/>
      <point x="156" y="-9" type="curve" smooth="yes"/>
      <point x="127" y="-8"/>
      <point x="112" y="18"/>
      <point x="107" y="51" type="curve" smooth="yes"/>
      <point x="106" y="57"/>
      <point x="71" y="260"/>
      <point x="69" y="297" type="curve" smooth="yes"/>
      <point x="66" y="320"/>
      <point x="36" y="521"/>
      <point x="30" y="554" type="curve" smooth="yes"/>
      <point x="27" y="575"/>
      <point x="31" y="602"/>
    </contour>
  </outline>
</glyph>
<glyph name="X" format="2">
  <advance width="500"/>
  <unicode hex="0058"/>
  <anchor x="250" y="600" name="top"/>
  <anchor x="72" y="-6" name="cedilla"/>
  <anchor x="437" y="-4" name="ogonek"/>
  <anchor x="250" y="0" name="bottom"/>
  <outline>
    <contour>
      <point x="447" y="605" type="curve" smooth="yes"/>
      <point x="471" y="597"/>
      <point x="463" y="562"/>
      <point x="449" y="545" type="curve" smooth="yes"/>
      <point x="430" y="519"/>
      <point x="271" y="270"/>
      <point x="282" y="289" type="curve" smooth="yes"/>
      <point x="262" y="257"/>
      <point x="177" y="115"/>
      <point x="129" y="43" type="curve" smooth="yes"/>
      <point x="105" y="8"/>
      <point x="78" y="-16"/>
      <point x="60" y="-2" type="curve" smooth="yes"/>
      <point x="37" y="14"/>
      <point x="47" y="40"/>
      <point x="73" y="79" type="curve" smooth="yes"/>
      <point x="86" y="97"/>
      <point x="194" y="272"/>
      <point x="251" y="358" type="curve" smooth="yes"/>
      <point x="346" y="503"/>
      <point x="378" y="563"/>
      <point x="400" y="586" type="curve" smooth="yes"/>
      <point x="422" y="610"/>
      <point x="441" y="606"/>
    </contour>
    <contour>
      <point x="55" y="599" type="curve" smooth="yes"/>
      <point x="61" y="600"/>
      <point x="80" y="605"/>
      <point x="104" y="584" type="curve" smooth="yes"/>
      <point x="128" y="562"/>
      <point x="162" y="502"/>
      <point x="259" y="358" type="curve" smooth="yes"/>
      <point x="317" y="273"/>
      <point x="426" y="99"/>
      <point x="438" y="80" type="curve" smooth="yes"/>
      <point x="463" y="41"/>
      <point x="472" y="15"/>
      <point x="449" y="-1" type="curve" smooth="yes"/>
      <point x="430" y="-14"/>
      <point x="404" y="10"/>
      <point x="381" y="46" type="curve" smooth="yes"/>
      <point x="335" y="119"/>
      <point x="249" y="257"/>
      <point x="229" y="289" type="curve" smooth="yes"/>
      <point x="240" y="270"/>
      <point x="80" y="514"/>
      <point x="58" y="539" type="curve" smooth="yes"/>
      <point x="43" y="555"/>
      <point x="32" y="589"/>
    </contour>
  </outline>
</glyph>
<glyph name="Y" format="2">
  <advance width="500"/>
  <unicode hex="0059"/>
  <anchor x="250" y="600" name="top"/>
  <anchor x="250" y="-8" name="cedilla"/>
  <anchor x="250" y="-8" name="ogonek"/>
  <anchor x="250" y="0" name="bottom"/>
  <outline>
    <contour>
      <point x="218" y="311" type="curve"/>
      <point x="217" y="313"/>
      <point x="166" y="383"/>
      <point x="144" y="415" type="curve" smooth="yes"/>
      <point x="155" y="400"/>
      <point x="69" y="524"/>
      <point x="52" y="546" type="curve" smooth="yes"/>
      <point x="39" y="562"/>
      <point x="32" y="591"/>
      <point x="53" y="605" type="curve" smooth="yes"/>
      <point x="65" y="613"/>
      <point x="80" y="610"/>
      <point x="97" y="588" type="curve" smooth="yes"/>
      <point x="117" y="562"/>
      <point x="120" y="555"/>
      <point x="167" y="490" type="curve" smooth="yes"/>
      <point x="207" y="434"/>
      <point x="240" y="388"/>
      <point x="250" y="375" type="curve"/>
      <point x="277.4022001205114" y="412.1887001635512"/>
      <point x="301.3078808821213" y="451.8520353296749"/>
      <point x="329" y="489" type="curve" smooth="yes"/>
      <point x="362" y="533"/>
      <point x="395" y="579"/>
      <point x="404" y="590" type="curve" smooth="yes"/>
      <point x="416" y="604"/>
      <point x="437" y="610"/>
      <point x="448" y="605" type="curve" smooth="yes"/>
      <point x="471" y="595"/>
      <point x="460" y="565"/>
      <point x="447" y="547" type="curve" smooth="yes"/>
      <point x="434" y="528"/>
      <point x="405" y="487"/>
      <point x="354" y="418" type="curve" smooth="yes"/>
      <point x="335" y="391"/>
      <point x="280" y="313"/>
      <point x="279" y="311" type="curve"/>
      <point x="280" y="223" type="line" smooth="yes"/>
      <point x="281" y="93"/>
      <point x="281" y="88"/>
      <point x="281" y="72" type="curve" smooth="yes"/>
      <point x="281" y="17"/>
      <point x="280" y="-8"/>
      <point x="250" y="-8" type="curve" smooth="yes"/>
      <point x="219" y="-8"/>
      <point x="216" y="27"/>
      <point x="217" y="73" type="curve" smooth="yes"/>
      <point x="217" y="76"/>
      <point x="217" y="142"/>
      <point x="218" y="181" type="curve" smooth="yes"/>
      <point x="218" y="137.66666666666666"/>
      <point x="218" y="267.6666666666667"/>
    </contour>
  </outline>
</glyph>
<glyph name="Z" format="2">
  <advance width="500"/>
  <unicode hex="005A"/>
  <anchor x="250" y="600" name="top"/>
  <anchor x="250" y="3" name="cedilla"/>
  <anchor x="348" y="3" name="ogonek"/>
  <anchor x="258" y="0" name="bottom"/>
  <outline>
    <contour>
      <point x="433" y="602" type="curve" smooth="yes"/>
      <point x="472" y="604"/>
      <point x="471" y="566"/>
      <point x="452" y="541" type="curve" smooth="yes"/>
      <point x="442" y="527"/>
      <point x="391" y="450"/>
      <point x="349" y="385" type="curve" smooth="yes"/>
      <point x="311" y="328"/>
      <point x="291" y="298"/>
      <point x="285" y="289" type="curve" smooth="yes"/>
      <point x="265" y="259"/>
      <point x="175" y="104"/>
      <point x="131" y="58" type="curve"/>
      <point x="142" y="66"/>
      <point x="234" y="67"/>
      <point x="263" y="67" type="curve" smooth="yes"/>
      <point x="357" y="68"/>
      <point x="405" y="66"/>
      <point x="429" y="63" type="curve" smooth="yes"/>
      <point x="459" y="60"/>
      <point x="477" y="52"/>
      <point x="477" y="28" type="curve" smooth="yes"/>
      <point x="477" y="12"/>
      <point x="468" y="-1"/>
      <point x="440" y="1" type="curve" smooth="yes"/>
      <point x="405" y="3"/>
      <point x="369" y="2"/>
      <point x="348" y="3" type="curve" smooth="yes"/>
      <point x="285" y="5"/>
      <point x="251" y="2"/>
      <point x="157" y="0" type="curve" smooth="yes"/>
      <point x="109" y="-1"/>
      <point x="84" y="-2"/>
      <point x="68" y="-2" type="curve" smooth="yes"/>
      <point x="51" y="-2"/>
      <point x="41" y="7"/>
      <point x="42" y="25" type="curve" smooth="yes"/>
      <point x="43" y="42"/>
      <point x="47" y="42"/>
      <point x="76" y="81" type="curve" smooth="yes"/>
      <point x="89" y="99"/>
      <point x="197" y="272"/>
      <point x="254" y="358" type="curve" smooth="yes"/>
      <point x="313" y="448"/>
      <point x="349" y="507"/>
      <point x="382" y="544" type="curve"/>
      <point x="365" y="533"/>
      <point x="335" y="537"/>
      <point x="312" y="536" type="curve" smooth="yes"/>
      <point x="236" y="536" type="line" smooth="yes"/>
      <point x="220" y="536"/>
      <point x="205" y="536"/>
      <point x="191" y="536" type="curve" smooth="yes"/>
      <point x="140" y="536"/>
      <point x="103" y="536"/>
      <point x="85" y="538" type="curve" smooth="yes"/>
      <point x="55" y="540"/>
      <point x="46" y="553"/>
      <point x="45" y="571" type="curve" smooth="yes"/>
      <point x="45" y="584"/>
      <point x="58" y="600"/>
      <point x="85" y="600" type="curve" smooth="yes"/>
      <point x="159" y="600"/>
      <point x="153" y="599"/>
      <point x="179" y="599" type="curve" smooth="yes"/>
      <point x="200" y="599"/>
      <point x="225" y="599"/>
      <point x="250" y="600" type="curve" smooth="yes"/>
      <point x="288" y="600"/>
      <point x="326" y="601"/>
      <point x="356" y="600" type="curve" smooth="yes"/>
      <point x="391" y="599"/>
      <point x="417" y="601"/>
    </contour>
  </outline>
</glyph>
<glyph name="bracketleft" format="2">
  <advance width="500"/>
  <unicode hex="005B"/>
  <outline>
    <contour>
      <point x="112" y="634" type="curve"/>
      <point x="177" y="641" type="line"/>
      <point x="178" y="523"/>
      <point x="180" y="521"/>
      <point x="177" y="311" type="curve" smooth="yes"/>
      <point x="175" y="106"/>
      <point x="177" y="115"/>
      <point x="178" y="-45" type="curve"/>
      <point x="112" y="-59" type="line"/>
      <point x="112" y="-54"/>
      <point x="112" y="-49"/>
      <point x="112" y="-44" type="curve" smooth="yes"/>
      <point x="112" y="-38"/>
      <point x="110" y="80"/>
      <point x="113" y="291" type="curve" smooth="yes"/>
      <point x="116" y="530"/>
      <point x="111" y="564"/>
    </contour>
    <contour>
      <point x="112" y="-59" type="curve" smooth="yes"/>
      <point x="111" y="-45"/>
      <point x="120" y="-39"/>
      <point x="152" y="-37" type="curve" smooth="yes"/>
      <point x="204" y="-34"/>
      <point x="228" y="-35"/>
      <point x="251" y="-35" type="curve" smooth="yes"/>
      <point x="305" y="-35"/>
      <point x="297" y="-31"/>
      <point x="351" y="-32" type="curve" smooth="yes"/>
      <point x="378" y="-32"/>
      <point x="390" y="-43"/>
      <point x="390" y="-62" type="curve" smooth="yes"/>
      <point x="391" y="-77"/>
      <point x="374" y="-94"/>
      <point x="342" y="-96" type="curve" smooth="yes"/>
      <point x="293" y="-98"/>
      <point x="255" y="-100"/>
      <point x="255" y="-100" type="curve" smooth="yes"/>
      <point x="215" y="-98"/>
      <point x="181" y="-102"/>
      <point x="159" y="-100" type="curve" smooth="yes"/>
      <point x="131" y="-98"/>
      <point x="113" y="-85"/>
    </contour>
    <contour>
      <point x="112" y="634" type="curve" smooth="yes"/>
      <point x="113" y="660"/>
      <point x="131" y="673"/>
      <point x="159" y="675" type="curve" smooth="yes"/>
      <point x="181" y="677"/>
      <point x="215" y="672"/>
      <point x="255" y="674" type="curve" smooth="yes"/>
      <point x="255" y="674"/>
      <point x="294" y="674"/>
      <point x="342" y="671" type="curve" smooth="yes"/>
      <point x="374" y="669"/>
      <point x="391" y="652"/>
      <point x="390" y="637" type="curve" smooth="yes"/>
      <point x="390" y="618"/>
      <point x="378" y="607"/>
      <point x="351" y="607" type="curve" smooth="yes"/>
      <point x="297" y="606"/>
      <point x="305" y="610"/>
      <point x="251" y="610" type="curve" smooth="yes"/>
      <point x="228" y="610"/>
      <point x="204" y="609"/>
      <point x="152" y="612" type="curve" smooth="yes"/>
      <point x="120" y="614"/>
      <point x="111" y="620"/>
    </contour>
  </outline>
</glyph>
<glyph name="underscore" format="2">
  <advance width="500"/>
  <unicode hex="005F"/>
  <outline>
    <contour>
      <point x="56" y="-48" type="curve" smooth="yes"/>
      <point x="56" y="-29"/>
      <point x="64" y="-16"/>
      <point x="96" y="-15" type="curve" smooth="yes"/>
      <point x="148" y="-13"/>
      <point x="212" y="-15"/>
      <point x="235" y="-15" type="curve" smooth="yes"/>
      <point x="289" y="-16"/>
      <point x="351" y="-13"/>
      <point x="405" y="-15" type="curve" smooth="yes"/>
      <point x="432" y="-16"/>
      <point x="444" y="-32"/>
      <point x="444" y="-51" type="curve" smooth="yes"/>
      <point x="444" y="-66"/>
      <point x="427" y="-83"/>
      <point x="395" y="-84" type="curve" smooth="yes"/>
      <point x="347" y="-85"/>
      <point x="275" y="-87"/>
      <point x="238" y="-85" type="curve" smooth="yes"/>
      <point x="198" y="-83"/>
      <point x="124" y="-85"/>
      <point x="102" y="-83" type="curve" smooth="yes"/>
      <point x="74" y="-80"/>
      <point x="56" y="-68"/>
    </contour>
  </outline>
</glyph>
<glyph name="grave" format="2">
  <advance width="500"/>
  <unicode hex="0060"/>
  <anchor x="250" y="600" name="top"/>
  <outline>
    <contour>
      <point x="349" y="433" type="curve" smooth="yes"/>
      <point x="339" y="421"/>
      <point x="324" y="420"/>
      <point x="300" y="438" type="curve" smooth="yes"/>
      <point x="271" y="459"/>
      <point x="229" y="489"/>
      <point x="182" y="536" type="curve" smooth="yes"/>
      <point x="173" y="546"/>
      <point x="162" y="576"/>
      <point x="175" y="591" type="curve" smooth="yes"/>
      <point x="191" y="610"/>
      <point x="214" y="610"/>
      <point x="232" y="592" type="curve" smooth="yes"/>
      <point x="272" y="552"/>
      <point x="321" y="506"/>
      <point x="341" y="481" type="curve" smooth="yes"/>
      <point x="357" y="462"/>
      <point x="361" y="447"/>
    </contour>
  </outline>
</glyph>
<glyph name="a" format="2">
  <advance width="500"/>
  <unicode hex="0061"/>
  <anchor x="233" y="400" name="top"/>
  <anchor x="189" y="-8" name="cedilla"/>
  <anchor x="411" y="-3" name="ogonek"/>
  <anchor x="251" y="0" name="bottom"/>
  <outline>
    <contour>
      <point x="303" y="232" type="curve" smooth="yes"/>
      <point x="323" y="228"/>
      <point x="334" y="231"/>
      <point x="349" y="232" type="curve"/>
      <point x="356" y="181" type="line"/>
      <point x="351" y="174"/>
      <point x="320" y="175"/>
      <point x="297" y="177" type="curve" smooth="yes"/>
      <point x="179" y="189"/>
      <point x="120" y="168"/>
      <point x="120" y="97" type="curve" smooth="yes"/>
      <point x="120" y="38"/>
      <point x="209" y="51"/>
      <point x="228" y="57" type="curve" smooth="yes"/>
      <point x="287" y="73"/>
      <point x="315" y="93"/>
      <point x="353" y="131" type="curve"/>
      <point x="362" y="59" type="line"/>
      <point x="325" y="25"/>
      <point x="295" y="13"/>
      <point x="261" y="2" type="curve" smooth="yes"/>
      <point x="208" y="-16"/>
      <point x="56" y="-24"/>
      <point x="56" y="101" type="curve" smooth="yes"/>
      <point x="56" y="229"/>
      <point x="197" y="251"/>
    </contour>
    <contour>
      <point x="400" y="238" type="curve" smooth="yes"/>
      <point x="400" y="190"/>
      <point x="398" y="75"/>
      <point x="446" y="45" type="curve" smooth="yes"/>
      <point x="461" y="36"/>
      <point x="464" y="16"/>
      <point x="449" y="-1" type="curve" smooth="yes"/>
      <point x="440" y="-11"/>
      <point x="397" y="-7"/>
      <point x="379" y="14" type="curve" smooth="yes"/>
      <point x="329" y="73"/>
      <point x="338" y="166"/>
      <point x="338" y="226" type="curve" smooth="yes"/>
      <point x="338" y="358"/>
      <point x="237" y="350"/>
      <point x="215" y="350" type="curve" smooth="yes"/>
      <point x="170" y="350"/>
      <point x="156" y="336"/>
      <point x="124" y="317" type="curve" smooth="yes"/>
      <point x="114" y="312"/>
      <point x="94" y="309"/>
      <point x="80" y="330" type="curve" smooth="yes"/>
      <point x="71" y="345"/>
      <point x="81" y="362"/>
      <point x="100" y="377" type="curve" smooth="yes"/>
      <point x="128" y="399"/>
      <point x="172" y="410"/>
      <point x="208" y="410" type="curve" smooth="yes"/>
      <point x="254" y="410"/>
      <point x="400" y="414"/>
    </contour>
  </outline>
</glyph>
<glyph name="b" format="2">
  <advance width="500"/>
  <unicode hex="0062"/>
  <anchor x="260" y="600" name="top"/>
  <anchor x="176" y="-12" name="cedilla"/>
  <anchor x="176" y="-12" name="ogonek"/>
  <anchor x="250" y="0" name="bottom"/>
  <outline>
    <contour>
      <point x="108" y="11" type="curve" smooth="yes"/>
      <point x="105" y="14"/>
      <point x="82" y="38"/>
      <point x="78" y="73" type="curve" smooth="yes"/>
      <point x="76" y="91"/>
      <point x="67" y="169"/>
      <point x="78" y="301" type="curve" smooth="yes"/>
      <point x="89" y="433"/>
      <point x="79" y="527"/>
      <point x="79" y="561" type="curve" smooth="yes"/>
      <point x="78" y="582"/>
      <point x="93" y="617"/>
      <point x="116" y="607" type="curve" smooth="yes"/>
      <point x="122" y="605"/>
      <point x="137" y="599"/>
      <point x="140" y="566" type="curve" smooth="yes"/>
      <point x="143" y="534"/>
      <point x="148" y="445"/>
      <point x="141" y="343" type="curve" smooth="yes"/>
      <point x="131" y="208"/>
      <point x="130" y="129"/>
      <point x="140" y="81" type="curve" smooth="yes"/>
      <point x="147" y="50"/>
      <point x="191.9488335497517" y="51"/>
      <point x="205" y="51" type="curve" smooth="yes"/>
      <point x="275" y="51"/>
      <point x="373" y="116"/>
      <point x="373" y="224" type="curve" smooth="yes"/>
      <point x="373" y="344"/>
      <point x="266" y="353"/>
      <point x="243" y="353" type="curve" smooth="yes"/>
      <point x="210" y="353"/>
      <point x="146" y="302"/>
      <point x="133" y="243" type="curve"/>
      <point x="127" y="350" type="line"/>
      <point x="162" y="386"/>
      <point x="197" y="410"/>
      <point x="239" y="412" type="curve" smooth="yes"/>
      <point x="280" y="414"/>
      <point x="437" y="408"/>
      <point x="437" y="232" type="curve" smooth="yes"/>
      <point x="437" y="40"/>
      <point x="262" y="-12"/>
      <point x="176" y="-12" type="curve" smooth="yes"/>
      <point x="152" y="-12"/>
      <point x="126" y="-7"/>
    </contour>
  </outline>
</glyph>
<glyph name="c" format="2">
  <advance width="500"/>
  <unicode hex="0063"/>
  <anchor x="250" y="400" name="top"/>
  <anchor x="261" y="-10" name="cedilla"/>
  <anchor x="261" y="-10" name="ogonek"/>
  <anchor x="250" y="0" name="bottom"/>
  <outline>
    <contour>
      <point x="373" y="125" type="curve" smooth="yes"/>
      <point x="383" y="138"/>
      <point x="408" y="152"/>
      <point x="423" y="143" type="curve" smooth="yes"/>
      <point x="434" y="139"/>
      <point x="446" y="119"/>
      <point x="432" y="95" type="curve" smooth="yes"/>
      <point x="392" y="25"/>
      <point x="321" y="-10"/>
      <point x="261" y="-10" type="curve" smooth="yes"/>
      <point x="151" y="-10"/>
      <point x="61" y="53"/>
      <point x="61" y="200" type="curve" smooth="yes"/>
      <point x="61" y="363"/>
      <point x="151" y="410"/>
      <point x="261" y="410" type="curve" smooth="yes"/>
      <point x="333" y="410"/>
      <point x="376" y="389"/>
      <point x="426" y="324" type="curve" smooth="yes"/>
      <point x="437" y="309"/>
      <point x="429" y="290"/>
      <point x="419" y="283" type="curve" smooth="yes"/>
      <point x="399" y="269"/>
      <point x="370" y="291"/>
      <point x="352" y="309" type="curve" smooth="yes"/>
      <point x="324" y="337"/>
      <point x="298" y="347"/>
      <point x="262" y="347" type="curve" smooth="yes"/>
      <point x="191" y="347"/>
      <point x="126" y="312"/>
      <point x="126" y="200" type="curve" smooth="yes"/>
      <point x="126" y="95"/>
      <point x="186" y="54"/>
      <point x="262" y="54" type="curve" smooth="yes"/>
      <point x="293" y="54"/>
      <point x="337" y="83"/>
    </contour>
  </outline>
</glyph>
<glyph name="d" format="2">
  <advance width="500"/>
  <unicode hex="0064"/>
  <anchor x="240" y="600" name="top"/>
  <anchor x="234" y="-10" name="cedilla"/>
  <anchor x="407" y="-3" name="ogonek"/>
  <anchor x="230" y="0" name="bottom"/>
  <outline>
    <contour>
      <point x="371" y="606" type="curve" smooth="yes"/>
      <point x="379" y="606"/>
      <point x="398" y="598"/>
      <point x="401" y="566" type="curve" smooth="yes"/>
      <point x="404" y="534"/>
      <point x="395" y="470"/>
      <point x="402" y="343" type="curve" smooth="yes"/>
      <point x="408" y="235"/>
      <point x="405" y="145"/>
      <point x="404" y="96" type="curve" smooth="yes"/>
      <point x="403" y="62"/>
      <point x="407" y="59"/>
      <point x="411" y="59" type="curve" smooth="yes"/>
      <point x="451" y="58"/>
      <point x="463" y="47"/>
      <point x="462" y="25" type="curve" smooth="yes"/>
      <point x="461" y="-5"/>
      <point x="423" y="-3"/>
      <point x="407" y="-3" type="curve" smooth="yes"/>
      <point x="357" y="-2"/>
      <point x="343" y="38"/>
      <point x="345" y="94" type="curve" smooth="yes"/>
      <point x="347" y="149"/>
      <point x="342" y="240"/>
      <point x="340" y="301" type="curve" smooth="yes"/>
      <point x="336" y="432"/>
      <point x="340" y="527"/>
      <point x="340" y="561" type="curve" smooth="yes"/>
      <point x="339" y="582"/>
      <point x="349" y="606"/>
    </contour>
    <contour>
      <point x="350" y="129" type="curve"/>
      <point x="357" y="61" type="line"/>
      <point x="350" y="37"/>
      <point x="286" y="-10"/>
      <point x="234" y="-10" type="curve" smooth="yes"/>
      <point x="135" y="-10"/>
      <point x="54" y="53"/>
      <point x="54" y="200" type="curve" smooth="yes"/>
      <point x="54" y="363"/>
      <point x="144" y="410"/>
      <point x="254" y="410" type="curve" smooth="yes"/>
      <point x="336" y="410"/>
      <point x="346" y="363"/>
      <point x="357" y="345" type="curve"/>
      <point x="350" y="263" type="line"/>
      <point x="335" y="295"/>
      <point x="318" y="349"/>
      <point x="237" y="349" type="curve" smooth="yes"/>
      <point x="176" y="349"/>
      <point x="119" y="312"/>
      <point x="119" y="200" type="curve" smooth="yes"/>
      <point x="119" y="95"/>
      <point x="171" y="54"/>
      <point x="235" y="54" type="curve" smooth="yes"/>
      <point x="271" y="54"/>
      <point x="314" y="88"/>
    </contour>
  </outline>
</glyph>
<glyph name="e" format="2">
  <advance width="500"/>
  <unicode hex="0065"/>
  <anchor x="260" y="400" name="top"/>
  <anchor x="221" y="-10" name="cedilla"/>
  <anchor x="355" y="0" name="ogonek"/>
  <anchor x="250" y="0" name="bottom"/>
  <outline>
    <contour>
      <point x="387" y="172" type="curve" smooth="yes"/>
      <point x="339" y="168"/>
      <point x="268" y="162"/>
      <point x="231" y="162" type="curve" smooth="yes"/>
      <point x="189" y="162"/>
      <point x="121" y="164"/>
      <point x="112" y="167" type="curve"/>
      <point x="112" y="229" type="line"/>
      <point x="158" y="227"/>
      <point x="228" y="226"/>
      <point x="250" y="226" type="curve" smooth="yes"/>
      <point x="295.0019284775375" y="226"/>
      <point x="319" y="229"/>
      <point x="375" y="233" type="curve"/>
      <point x="372" y="306"/>
      <point x="334.07042031539856" y="351"/>
      <point x="276" y="351" type="curve" smooth="yes"/>
      <point x="211" y="351"/>
      <point x="126" y="310"/>
      <point x="126" y="200" type="curve" smooth="yes"/>
      <point x="126" y="85"/>
      <point x="170" y="53"/>
      <point x="220" y="53" type="curve" smooth="yes"/>
      <point x="314" y="53"/>
      <point x="356" y="65"/>
      <point x="369" y="69" type="curve" smooth="yes"/>
      <point x="388" y="77"/>
      <point x="412" y="88"/>
      <point x="426" y="72" type="curve" smooth="yes"/>
      <point x="434" y="62"/>
      <point x="437" y="40"/>
      <point x="423" y="28" type="curve" smooth="yes"/>
      <point x="390" y="3"/>
      <point x="339" y="-10"/>
      <point x="221" y="-10" type="curve" smooth="yes"/>
      <point x="133" y="-10"/>
      <point x="61" y="37"/>
      <point x="61" y="200" type="curve" smooth="yes"/>
      <point x="61" y="347"/>
      <point x="184" y="410"/>
      <point x="261" y="410" type="curve" smooth="yes"/>
      <point x="358" y="410"/>
      <point x="440" y="349"/>
      <point x="437" y="225" type="curve" smooth="yes"/>
      <point x="437" y="200.7123716907375"/>
      <point x="431" y="176"/>
    </contour>
  </outline>
</glyph>
<glyph name="f" format="2">
  <advance width="500"/>
  <unicode hex="0066"/>
  <anchor x="290" y="600" name="top"/>
  <anchor x="179" y="-10" name="cedilla"/>
  <anchor x="179" y="-10" name="ogonek"/>
  <anchor x="250" y="0" name="bottom"/>
  <outline>
    <contour>
      <point x="447" y="495" type="curve" smooth="yes"/>
      <point x="428" y="477"/>
      <point x="407" y="486"/>
      <point x="387" y="506" type="curve" smooth="yes"/>
      <point x="337" y="558"/>
      <point x="308" y="553"/>
      <point x="277" y="550" type="curve" smooth="yes"/>
      <point x="234" y="545"/>
      <point x="214" y="509"/>
      <point x="213" y="343" type="curve" smooth="yes"/>
      <point x="212" y="203"/>
      <point x="215" y="99"/>
      <point x="214" y="56" type="curve" smooth="yes"/>
      <point x="213" y="9"/>
      <point x="207" y="-10"/>
      <point x="179" y="-10" type="curve" smooth="yes"/>
      <point x="159" y="-10"/>
      <point x="150" y="17"/>
      <point x="150" y="57" type="curve" smooth="yes"/>
      <point x="150" y="201"/>
      <point x="152" y="365"/>
      <point x="154" y="407" type="curve" smooth="yes"/>
      <point x="156" y="445"/>
      <point x="152" y="611"/>
      <point x="289" y="608" type="curve" smooth="yes"/>
      <point x="334" y="607"/>
      <point x="379" y="607"/>
      <point x="437" y="541" type="curve" smooth="yes"/>
      <point x="449" y="528"/>
      <point x="462" y="509"/>
    </contour>
    <contour>
      <point x="415" y="304" type="curve" smooth="yes"/>
      <point x="414" y="291"/>
      <point x="404" y="277"/>
      <point x="374" y="277" type="curve" smooth="yes"/>
      <point x="322" y="279"/>
      <point x="272" y="280"/>
      <point x="260" y="280" type="curve" smooth="yes"/>
      <point x="226" y="280"/>
      <point x="134" y="274"/>
      <point x="106" y="269" type="curve" smooth="yes"/>
      <point x="83" y="265"/>
      <point x="67" y="281"/>
      <point x="66" y="300" type="curve" smooth="yes"/>
      <point x="66" y="316"/>
      <point x="83" y="333"/>
      <point x="115" y="334" type="curve" smooth="yes"/>
      <point x="163" y="334"/>
      <point x="242" y="344"/>
      <point x="279" y="344" type="curve" smooth="yes"/>
      <point x="311" y="344"/>
      <point x="362" y="342"/>
      <point x="377" y="339" type="curve" smooth="yes"/>
      <point x="410" y="335"/>
      <point x="416" y="322"/>
    </contour>
  </outline>
</glyph>
<glyph name="g" format="2">
  <advance width="500"/>
  <unicode hex="0067"/>
  <anchor x="250" y="400" name="top"/>
  <anchor x="244" y="-107" name="cedilla"/>
  <anchor x="244" y="-107" name="ogonek"/>
  <anchor x="250" y="0" name="bottom"/>
  <outline>
    <contour>
      <point x="62" y="-26" type="curve" smooth="yes"/>
      <point x="79" y="-6"/>
      <point x="100" y="-8"/>
      <point x="122" y="-26" type="curve" smooth="yes"/>
      <point x="149" y="-49"/>
      <point x="210" y="-48"/>
      <point x="256" y="-46" type="curve" smooth="yes"/>
      <point x="338" y="-40"/>
      <point x="366" y="-6"/>
      <point x="382" y="46" type="curve" smooth="yes"/>
      <point x="396" y="90"/>
      <point x="376" y="131"/>
      <point x="373" y="195" type="curve" smooth="yes"/>
      <point x="369" y="281"/>
      <point x="371" y="340"/>
      <point x="386" y="367" type="curve" smooth="yes"/>
      <point x="401" y="396"/>
      <point x="417" y="410"/>
      <point x="442" y="396" type="curve" smooth="yes"/>
      <point x="470" y="381"/>
      <point x="443" y="360"/>
      <point x="438" y="314" type="curve" smooth="yes"/>
      <point x="433" y="269"/>
      <point x="434" y="230"/>
      <point x="436" y="203" type="curve" smooth="yes"/>
      <point x="438" y="155"/>
      <point x="449" y="107"/>
      <point x="449" y="84" type="curve" smooth="yes"/>
      <point x="448" y="22"/>
      <point x="435" y="-95"/>
      <point x="244" y="-107" type="curve" smooth="yes"/>
      <point x="178" y="-110"/>
      <point x="118" y="-102"/>
      <point x="82" y="-80" type="curve" smooth="yes"/>
      <point x="62" y="-66"/>
      <point x="50" y="-41"/>
    </contour>
    <contour>
      <point x="394" y="364" type="curve"/>
      <point x="379" y="309" type="line"/>
      <point x="341" y="343"/>
      <point x="288" y="358"/>
      <point x="270" y="359" type="curve" smooth="yes"/>
      <point x="170" y="363"/>
      <point x="124" y="286"/>
      <point x="124" y="224" type="curve" smooth="yes"/>
      <point x="124" y="119"/>
      <point x="191" y="119"/>
      <point x="224" y="121" type="curve" smooth="yes"/>
      <point x="264" y="123"/>
      <point x="314" y="151"/>
      <point x="388" y="272" type="curve"/>
      <point x="395" y="186" type="line"/>
      <point x="340" y="92"/>
      <point x="262" y="59"/>
      <point x="231" y="59" type="curve" smooth="yes"/>
      <point x="197" y="59"/>
      <point x="59" y="58"/>
      <point x="59" y="217" type="curve" smooth="yes"/>
      <point x="59" y="320"/>
      <point x="155" y="416"/>
      <point x="270" y="417" type="curve" smooth="yes"/>
      <point x="328" y="417"/>
      <point x="373" y="386"/>
    </contour>
  </outline>
</glyph>
<glyph name="h" format="2">
  <advance width="500"/>
  <unicode hex="0068"/>
  <anchor x="270" y="600" name="top"/>
  <anchor x="114" y="-8" name="cedilla"/>
  <anchor x="399" y="-9" name="ogonek"/>
  <anchor x="250" y="0" name="bottom"/>
  <outline>
    <contour>
      <point x="125" y="604" type="curve" smooth="yes"/>
      <point x="150" y="613"/>
      <point x="165" y="578"/>
      <point x="162" y="557" type="curve" smooth="yes"/>
      <point x="153" y="486"/>
      <point x="158" y="386"/>
      <point x="158" y="275" type="curve" smooth="yes"/>
      <point x="158" y="221"/>
      <point x="153" y="81"/>
      <point x="152" y="75" type="curve" smooth="yes"/>
      <point x="153" y="28"/>
      <point x="150" y="-14"/>
      <point x="114" y="-8" type="curve" smooth="yes"/>
      <point x="92" y="-3"/>
      <point x="84" y="29"/>
      <point x="88" y="70" type="curve" smooth="yes"/>
      <point x="92" y="111"/>
      <point x="97" y="229"/>
      <point x="94" y="346" type="curve" smooth="yes"/>
      <point x="90" y="513"/>
      <point x="96" y="532"/>
      <point x="99" y="563" type="curve" smooth="yes"/>
      <point x="104" y="596"/>
      <point x="118" y="602"/>
    </contour>
    <contour>
      <point x="421" y="61" type="curve" smooth="yes"/>
      <point x="426" y="18"/>
      <point x="424" y="-5"/>
      <point x="399" y="-9" type="curve" smooth="yes"/>
      <point x="368" y="-12"/>
      <point x="356" y="19"/>
      <point x="355" y="48" type="curve" smooth="yes"/>
      <point x="353" y="112"/>
      <point x="346" y="149"/>
      <point x="352" y="225" type="curve" smooth="yes"/>
      <point x="362" y="347"/>
      <point x="297" y="348"/>
      <point x="263" y="348" type="curve" smooth="yes"/>
      <point x="239" y="348"/>
      <point x="180" y="315"/>
      <point x="155" y="213" type="curve"/>
      <point x="147" y="320" type="line"/>
      <point x="185" y="394"/>
      <point x="238" y="410"/>
      <point x="266" y="410" type="curve" smooth="yes"/>
      <point x="314" y="410"/>
      <point x="425" y="393"/>
      <point x="417" y="234" type="curve" smooth="yes"/>
      <point x="411" y="127"/>
      <point x="412" y="140"/>
    </contour>
  </outline>
</glyph>
<glyph name="i" format="2">
  <advance width="500"/>
  <unicode hex="0069"/>
  <anchor x="250" y="600" name="top"/>
  <anchor x="250" y="0" name="cedilla"/>
  <anchor x="250" y="0" name="ogonek"/>
  <anchor x="250" y="0" name="bottom"/>
  <outline>
    <contour>
      <point x="310" y="526" type="curve" smooth="yes"/>
      <point x="311" y="487"/>
      <point x="283" y="468"/>
      <point x="249" y="467" type="curve" smooth="yes"/>
      <point x="214" y="466"/>
      <point x="189" y="488"/>
      <point x="189" y="526" type="curve" smooth="yes"/>
      <point x="189" y="567"/>
      <point x="215" y="586"/>
      <point x="249" y="586" type="curve" smooth="yes"/>
      <point x="284" y="586"/>
      <point x="308" y="566"/>
    </contour>
    <component base="idotless"/>
  </outline>
</glyph>
<glyph name="j" format="2">
  <advance width="500"/>
  <unicode hex="006A"/>
  <anchor x="280" y="600" name="top"/>
  <anchor x="244" y="-72" name="cedilla"/>
  <anchor x="244" y="-72" name="ogonek"/>
  <anchor x="244" y="-72" name="bottom"/>
  <outline>
    <contour>
      <point x="399" y="526" type="curve" smooth="yes"/>
      <point x="400" y="487"/>
      <point x="372" y="468"/>
      <point x="338" y="467" type="curve" smooth="yes"/>
      <point x="303" y="466"/>
      <point x="278" y="488"/>
      <point x="278" y="526" type="curve" smooth="yes"/>
      <point x="278" y="567"/>
      <point x="304" y="586"/>
      <point x="338" y="586" type="curve" smooth="yes"/>
      <point x="373" y="586"/>
      <point x="397" y="566"/>
    </contour>
    <component base="jdotless"/>
  </outline>
</glyph>
<glyph name="k" format="2">
  <advance width="500"/>
  <unicode hex="006B"/>
  <anchor x="237" y="600" name="top"/>
  <anchor x="105" y="-8" name="cedilla"/>
  <anchor x="405" y="-5" name="ogonek"/>
  <anchor x="249" y="0" name="bottom"/>
  <outline>
    <contour>
      <point x="107" y="604" type="curve" smooth="yes"/>
      <point x="132" y="613"/>
      <point x="147" y="579"/>
      <point x="146" y="558" type="curve" smooth="yes"/>
      <point x="143" y="412"/>
      <point x="142" y="316"/>
      <point x="142" y="253" type="curve" smooth="yes"/>
      <point x="143" y="198"/>
      <point x="145" y="76"/>
      <point x="144" y="75" type="curve" smooth="yes"/>
      <point x="145" y="28"/>
      <point x="141" y="-14"/>
      <point x="105" y="-8" type="curve" smooth="yes"/>
      <point x="83" y="-4"/>
      <point x="74" y="28"/>
      <point x="78" y="69" type="curve" smooth="yes"/>
      <point x="81" y="110"/>
      <point x="76" y="229"/>
      <point x="80" y="345" type="curve" smooth="yes"/>
      <point x="84" y="513"/>
      <point x="79" y="531"/>
      <point x="81" y="563" type="curve" smooth="yes"/>
      <point x="86" y="596"/>
      <point x="100" y="602"/>
    </contour>
    <contour>
      <point x="395" y="399" type="curve" smooth="yes"/>
      <point x="405" y="387"/>
      <point x="407" y="368"/>
      <point x="383" y="344" type="curve" smooth="yes"/>
      <point x="360" y="321"/>
      <point x="320" y="296"/>
      <point x="288" y="265" type="curve" smooth="yes"/>
      <point x="223" y="205"/>
      <point x="149" y="138"/>
      <point x="127" y="122" type="curve"/>
      <point x="125" y="207" type="line"/>
      <point x="161" y="237"/>
      <point x="206" y="279"/>
      <point x="248" y="315" type="curve" smooth="yes"/>
      <point x="282" y="345"/>
      <point x="316" y="369"/>
      <point x="340" y="390" type="curve" smooth="yes"/>
      <point x="368" y="416"/>
      <point x="385" y="411"/>
    </contour>
    <contour>
      <point x="268" y="260" type="line"/>
      <point x="300" y="207"/>
      <point x="317" y="172"/>
      <point x="323" y="162" type="curve" smooth="yes"/>
      <point x="341" y="130"/>
      <point x="355" y="103"/>
      <point x="376" y="83" type="curve" smooth="yes"/>
      <point x="392" y="69"/>
      <point x="408" y="55"/>
      <point x="422" y="54" type="curve" smooth="yes"/>
      <point x="444" y="51"/>
      <point x="455" y="32"/>
      <point x="449" y="16" type="curve" smooth="yes"/>
      <point x="444" y="-3"/>
      <point x="428" y="-5"/>
      <point x="405" y="-5" type="curve" smooth="yes"/>
      <point x="375" y="-5"/>
      <point x="355" y="16"/>
      <point x="333" y="36" type="curve" smooth="yes"/>
      <point x="307" y="61"/>
      <point x="287" y="95"/>
      <point x="272" y="121" type="curve" smooth="yes"/>
      <point x="258" y="147"/>
      <point x="262" y="141"/>
      <point x="224" y="219" type="curve"/>
    </contour>
  </outline>
</glyph>
<glyph name="l" format="2">
  <advance width="500"/>
  <unicode hex="006C"/>
  <anchor x="230" y="600" name="top"/>
  <anchor x="323" y="-12" name="cedilla"/>
  <anchor x="323" y="-12" name="ogonek"/>
  <anchor x="299" y="0" name="bottom"/>
  <outline>
    <contour>
      <point x="58" y="576" type="curve" smooth="yes"/>
      <point x="59" y="584"/>
      <point x="69" y="603"/>
      <point x="101" y="602" type="curve" smooth="yes"/>
      <point x="104" y="602"/>
      <point x="126" y="599"/>
      <point x="151" y="599" type="curve" smooth="yes"/>
      <point x="181" y="599"/>
      <point x="226" y="601"/>
      <point x="240" y="602" type="curve" smooth="yes"/>
      <point x="253" y="602"/>
      <point x="264" y="595"/>
      <point x="264" y="581" type="curve" smooth="yes"/>
      <point x="260" y="415"/>
      <point x="257" y="284"/>
      <point x="251" y="122" type="curve" smooth="yes"/>
      <point x="250" y="91"/>
      <point x="267" y="50"/>
      <point x="318" y="51" type="curve" smooth="yes"/>
      <point x="366" y="52"/>
      <point x="369" y="60"/>
      <point x="382" y="65" type="curve" smooth="yes"/>
      <point x="411" y="80"/>
      <point x="432" y="89"/>
      <point x="445" y="68" type="curve" smooth="yes"/>
      <point x="455" y="54"/>
      <point x="443" y="25"/>
      <point x="413" y="10" type="curve" smooth="yes"/>
      <point x="385" y="-5"/>
      <point x="360" y="-12"/>
      <point x="323" y="-12" type="curve" smooth="yes"/>
      <point x="292" y="-12"/>
      <point x="254" y="-10"/>
      <point x="229" y="13" type="curve" smooth="yes"/>
      <point x="203" y="37"/>
      <point x="181" y="70"/>
      <point x="184" y="132" type="curve" smooth="yes"/>
      <point x="192" y="276"/>
      <point x="198" y="403"/>
      <point x="198" y="540" type="curve"/>
      <point x="180" y="535"/>
      <point x="105" y="536"/>
      <point x="99" y="537" type="curve" smooth="yes"/>
      <point x="78" y="539"/>
      <point x="55" y="555"/>
    </contour>
  </outline>
</glyph>
<glyph name="m" format="2">
  <advance width="500"/>
  <unicode hex="006D"/>
  <anchor x="250" y="400" name="top"/>
  <anchor x="259" y="-8" name="cedilla"/>
  <anchor x="427" y="-8" name="ogonek"/>
  <anchor x="253" y="0" name="bottom"/>
  <outline>
    <contour>
      <point x="81" y="409" type="curve" smooth="yes"/>
      <point x="105" y="409"/>
      <point x="118" y="386"/>
      <point x="118" y="366" type="curve" smooth="yes"/>
      <point x="118" y="239"/>
      <point x="119" y="194"/>
      <point x="110" y="75" type="curve" smooth="yes"/>
      <point x="107" y="28"/>
      <point x="109" y="-14"/>
      <point x="73" y="-8" type="curve" smooth="yes"/>
      <point x="51" y="-3"/>
      <point x="43" y="29"/>
      <point x="47" y="70" type="curve" smooth="yes"/>
      <point x="60" y="205"/>
      <point x="55" y="229"/>
      <point x="52" y="363" type="curve" smooth="yes"/>
      <point x="53" y="397"/>
      <point x="73" y="409"/>
    </contour>
    <contour>
      <point x="282" y="61" type="curve" smooth="yes"/>
      <point x="285" y="18"/>
      <point x="284" y="-6"/>
      <point x="259" y="-8" type="curve" smooth="yes"/>
      <point x="228" y="-10"/>
      <point x="219" y="23"/>
      <point x="220" y="52" type="curve" smooth="yes"/>
      <point x="221" y="116"/>
      <point x="220" y="149"/>
      <point x="226" y="225" type="curve" smooth="yes"/>
      <point x="233" y="321"/>
      <point x="221" y="350"/>
      <point x="200" y="349" type="curve" smooth="yes"/>
      <point x="178" y="348"/>
      <point x="145" y="307"/>
      <point x="117" y="253" type="curve"/>
      <point x="117" y="344" type="line"/>
      <point x="158" y="391"/>
      <point x="180" y="410"/>
      <point x="206" y="410" type="curve" smooth="yes"/>
      <point x="254" y="410"/>
      <point x="292" y="393"/>
      <point x="287" y="234" type="curve" smooth="yes"/>
      <point x="283" y="127"/>
      <point x="277" y="141"/>
    </contour>
    <contour>
      <point x="451" y="62" type="curve" smooth="yes"/>
      <point x="454" y="19"/>
      <point x="452" y="-6"/>
      <point x="427" y="-8" type="curve" smooth="yes"/>
      <point x="396" y="-11"/>
      <point x="388" y="23"/>
      <point x="389" y="52" type="curve" smooth="yes"/>
      <point x="389" y="116"/>
      <point x="387" y="149"/>
      <point x="392" y="225" type="curve" smooth="yes"/>
      <point x="399" y="321"/>
      <point x="383" y="349"/>
      <point x="364" y="349" type="curve" smooth="yes"/>
      <point x="341" y="349"/>
      <point x="304" y="342"/>
      <point x="286" y="266" type="curve"/>
      <point x="263" y="343" type="line"/>
      <point x="302" y="401"/>
      <point x="335" y="411"/>
      <point x="361" y="411" type="curve" smooth="yes"/>
      <point x="414" y="411"/>
      <point x="459" y="380"/>
      <point x="453" y="235" type="curve" smooth="yes"/>
      <point x="449" y="128"/>
      <point x="444" y="142"/>
    </contour>
  </outline>
</glyph>
<glyph name="n" format="2">
  <advance width="500"/>
  <unicode hex="006E"/>
  <anchor x="250" y="400" name="top"/>
  <anchor x="108" y="-8" name="cedilla"/>
  <anchor x="400" y="-8" name="ogonek"/>
  <anchor x="257" y="0" name="bottom"/>
  <outline>
    <contour>
      <point x="115" y="408" type="curve" smooth="yes"/>
      <point x="139" y="418"/>
      <point x="159" y="384"/>
      <point x="157" y="363" type="curve" smooth="yes"/>
      <point x="147" y="239"/>
      <point x="153" y="196"/>
      <point x="149" y="75" type="curve" smooth="yes"/>
      <point x="147" y="28"/>
      <point x="144" y="-14"/>
      <point x="108" y="-8" type="curve" smooth="yes"/>
      <point x="86" y="-3"/>
      <point x="79" y="29"/>
      <point x="82" y="70" type="curve" smooth="yes"/>
      <point x="91" y="205"/>
      <point x="84" y="232"/>
      <point x="91" y="366" type="curve" smooth="yes"/>
      <point x="94" y="399"/>
      <point x="108" y="406"/>
    </contour>
    <contour>
      <point x="425" y="61" type="curve" smooth="yes"/>
      <point x="428" y="18"/>
      <point x="425" y="-5"/>
      <point x="400" y="-8" type="curve" smooth="yes"/>
      <point x="369" y="-9"/>
      <point x="358" y="22"/>
      <point x="358" y="51" type="curve" smooth="yes"/>
      <point x="359" y="115"/>
      <point x="353" y="148"/>
      <point x="356" y="225" type="curve" smooth="yes"/>
      <point x="361" y="347"/>
      <point x="311" y="353"/>
      <point x="277" y="353" type="curve" smooth="yes"/>
      <point x="253" y="353"/>
      <point x="173" y="314"/>
      <point x="148" y="212" type="curve"/>
      <point x="144" y="320" type="line"/>
      <point x="182" y="394"/>
      <point x="252" y="414"/>
      <point x="280" y="414" type="curve" smooth="yes"/>
      <point x="328" y="414"/>
      <point x="429" y="393"/>
      <point x="421" y="234" type="curve" smooth="yes"/>
      <point x="415" y="127"/>
      <point x="420" y="140"/>
    </contour>
  </outline>
</glyph>
<glyph name="o" format="2">
  <advance width="500"/>
  <unicode hex="006F"/>
  <anchor x="250" y="400" name="top"/>
  <anchor x="250" y="-10" name="cedilla"/>
  <anchor x="250" y="-10" name="ogonek"/>
  <anchor x="250" y="0" name="bottom"/>
  <anchor x="394" y="347" name="horn"/>
  <outline>
    <contour>
      <point x="250" y="415" type="curve" smooth="yes"/>
      <point x="362" y="415"/>
      <point x="448" y="364"/>
      <point x="448" y="204" type="curve" smooth="yes"/>
      <point x="448" y="52"/>
      <point x="364" y="-10"/>
      <point x="250" y="-10" type="curve" smooth="yes"/>
      <point x="140" y="-10"/>
      <point x="52" y="53"/>
      <point x="52" y="200" type="curve" smooth="yes"/>
      <point x="52" y="363"/>
      <point x="140" y="415"/>
    </contour>
    <contour>
      <point x="250" y="53" type="curve" smooth="yes"/>
      <point x="323" y="53"/>
      <point x="384" y="95"/>
      <point x="384" y="206" type="curve" smooth="yes"/>
      <point x="384" y="309"/>
      <point x="324" y="355"/>
      <point x="250" y="355" type="curve" smooth="yes"/>
      <point x="179" y="355"/>
      <point x="116" y="312"/>
      <point x="116" y="200" type="curve" smooth="yes"/>
      <point x="116" y="95"/>
      <point x="174" y="53"/>
    </contour>
  </outline>
</glyph>
<glyph name="p" format="2">
  <advance width="500"/>
  <unicode hex="0070"/>
  <anchor x="270" y="400" name="top"/>
  <anchor x="102" y="-106" name="cedilla"/>
  <anchor x="102" y="-106" name="ogonek"/>
  <anchor x="233" y="-100" name="bottom"/>
  <outline>
    <contour>
      <point x="142" y="267" type="curve"/>
      <point x="137" y="340" type="line"/>
      <point x="142" y="359"/>
      <point x="206" y="410"/>
      <point x="258" y="410" type="curve" smooth="yes"/>
      <point x="357" y="410"/>
      <point x="482" y="374"/>
      <point x="460" y="236" type="curve" smooth="yes"/>
      <point x="434" y="76"/>
      <point x="291" y="-1"/>
      <point x="194" y="56" type="curve" smooth="yes"/>
      <point x="123" y="98"/>
      <point x="140" y="96"/>
      <point x="131" y="106" type="curve"/>
      <point x="136" y="189" type="line"/>
      <point x="158" y="161"/>
      <point x="175" y="132"/>
      <point x="241" y="101" type="curve" smooth="yes"/>
      <point x="276" y="85"/>
      <point x="380" y="140"/>
      <point x="396" y="234" type="curve" smooth="yes"/>
      <point x="413" y="334"/>
      <point x="321" y="350"/>
      <point x="257" y="350" type="curve" smooth="yes"/>
      <point x="221" y="350"/>
      <point x="178" y="308"/>
    </contour>
    <contour>
      <point x="86" y="411" type="curve" smooth="yes"/>
      <point x="109" y="423"/>
      <point x="131" y="401"/>
      <point x="140" y="383" type="curve" smooth="yes"/>
      <point x="150" y="365"/>
      <point x="148" y="344"/>
      <point x="148" y="334" type="curve" smooth="yes"/>
      <point x="138" y="216"/>
      <point x="153" y="77"/>
      <point x="141" y="-32" type="curve" smooth="yes"/>
      <point x="136" y="-79"/>
      <point x="135" y="-107"/>
      <point x="102" y="-106" type="curve" smooth="yes"/>
      <point x="80" y="-105"/>
      <point x="71" y="-79"/>
      <point x="75" y="-38" type="curve" smooth="yes"/>
      <point x="86" y="84"/>
      <point x="75" y="209"/>
      <point x="81" y="331" type="curve" smooth="yes"/>
      <point x="83" y="344"/>
      <point x="77" y="358"/>
      <point x="74" y="371" type="curve" smooth="yes"/>
      <point x="66" y="396"/>
      <point x="80" y="408"/>
    </contour>
  </outline>
</glyph>
<glyph name="q" format="2">
  <advance width="500"/>
  <unicode hex="0071"/>
  <anchor x="240" y="400" name="top"/>
  <anchor x="371" y="-111" name="cedilla"/>
  <anchor x="371" y="-111" name="ogonek"/>
  <anchor x="238" y="-100" name="bottom"/>
  <outline>
    <contour>
      <point x="343" y="360" type="curve"/>
      <point x="328" y="292" type="line"/>
      <point x="318" y="335"/>
      <point x="278" y="353"/>
      <point x="229" y="352" type="curve" smooth="yes"/>
      <point x="153" y="350"/>
      <point x="115" y="262"/>
      <point x="116" y="207" type="curve" smooth="yes"/>
      <point x="118" y="112"/>
      <point x="171" y="100"/>
      <point x="201" y="101" type="curve" smooth="yes"/>
      <point x="255" y="102"/>
      <point x="269" y="116"/>
      <point x="338" y="236" type="curve"/>
      <point x="341" y="131" type="line"/>
      <point x="301" y="53"/>
      <point x="239" y="34"/>
      <point x="206" y="34" type="curve" smooth="yes"/>
      <point x="172" y="33"/>
      <point x="54" y="39"/>
      <point x="50" y="198" type="curve" smooth="yes"/>
      <point x="48" y="301"/>
      <point x="121" y="409"/>
      <point x="236" y="412" type="curve" smooth="yes"/>
      <point x="294" y="414"/>
      <point x="320" y="384"/>
    </contour>
    <contour>
      <point x="374" y="402" type="curve" smooth="yes"/>
      <point x="380" y="402"/>
      <point x="402" y="393"/>
      <point x="397" y="366" type="curve" smooth="yes"/>
      <point x="387" y="306"/>
      <point x="391" y="188"/>
      <point x="389" y="150" type="curve" smooth="yes"/>
      <point x="386" y="102"/>
      <point x="387" y="22"/>
      <point x="384" y="-37" type="curve"/>
      <point x="392" y="3"/>
      <point x="426" y="14"/>
      <point x="447" y="15" type="curve" smooth="yes"/>
      <point x="469" y="15"/>
      <point x="482" y="8"/>
      <point x="483" y="-12" type="curve" smooth="yes"/>
      <point x="483" y="-25"/>
      <point x="476" y="-42"/>
      <point x="454" y="-47" type="curve" smooth="yes"/>
      <point x="430" y="-54"/>
      <point x="431" y="-110"/>
      <point x="371" y="-111" type="curve" smooth="yes"/>
      <point x="308" y="-113"/>
      <point x="326" y="-17"/>
      <point x="327" y="18" type="curve" smooth="yes"/>
      <point x="329" y="129"/>
      <point x="331" y="220"/>
      <point x="324" y="332" type="curve" smooth="yes"/>
      <point x="324" y="342"/>
      <point x="321" y="339"/>
      <point x="327" y="359" type="curve" smooth="yes"/>
      <point x="334" y="380"/>
      <point x="348" y="408"/>
    </contour>
  </outline>
</glyph>
<glyph name="r" format="2">
  <advance width="500"/>
  <unicode hex="0072"/>
  <anchor x="260" y="400" name="top"/>
  <anchor x="117" y="-7" name="cedilla"/>
  <anchor x="117" y="-7" name="ogonek"/>
  <anchor x="260" y="0" name="bottom"/>
  <outline>
    <contour>
      <point x="116" y="410" type="curve" smooth="yes"/>
      <point x="141" y="420"/>
      <point x="158" y="388"/>
      <point x="157" y="364" type="curve" smooth="yes"/>
      <point x="157" y="238"/>
      <point x="158" y="194"/>
      <point x="156" y="77" type="curve" smooth="yes"/>
      <point x="155" y="30"/>
      <point x="153" y="-12"/>
      <point x="117" y="-7" type="curve" smooth="yes"/>
      <point x="95" y="-3"/>
      <point x="87" y="29"/>
      <point x="90" y="99" type="curve" smooth="yes"/>
      <point x="94" y="203"/>
      <point x="96" y="235"/>
      <point x="91" y="368" type="curve" smooth="yes"/>
      <point x="90" y="401"/>
      <point x="109" y="408"/>
    </contour>
    <contour>
      <point x="432" y="295" type="curve" smooth="yes"/>
      <point x="431" y="249"/>
      <point x="422" y="229"/>
      <point x="397" y="230" type="curve" smooth="yes"/>
      <point x="366" y="233"/>
      <point x="362" y="265"/>
      <point x="365" y="294" type="curve" smooth="yes"/>
      <point x="367" y="318"/>
      <point x="365" y="335"/>
      <point x="357" y="343" type="curve" smooth="yes"/>
      <point x="346" y="353"/>
      <point x="325" y="349"/>
      <point x="302" y="346" type="curve" smooth="yes"/>
      <point x="278" y="343"/>
      <point x="231" y="326"/>
      <point x="154" y="239" type="curve"/>
      <point x="153" y="320" type="line"/>
      <point x="207" y="389"/>
      <point x="271" y="407"/>
      <point x="299" y="410" type="curve" smooth="yes"/>
      <point x="339" y="414"/>
      <point x="393" y="411"/>
      <point x="408" y="395" type="curve" smooth="yes"/>
      <point x="428" y="374"/>
      <point x="434" y="359"/>
    </contour>
  </outline>
</glyph>
<glyph name="s" format="2">
  <advance width="500"/>
  <unicode hex="0073"/>
  <anchor x="250" y="400" name="top"/>
  <anchor x="239" y="-12" name="cedilla"/>
  <anchor x="239" y="-12" name="ogonek"/>
  <anchor x="250" y="0" name="bottom"/>
  <outline>
    <contour>
      <point x="248" y="410" type="curve" smooth="yes"/>
      <point x="311" y="410"/>
      <point x="353" y="402"/>
      <point x="385" y="375" type="curve" smooth="yes"/>
      <point x="406" y="357"/>
      <point x="416" y="333"/>
      <point x="402" y="321" type="curve" smooth="yes"/>
      <point x="384" y="306"/>
      <point x="360" y="313"/>
      <point x="342" y="328" type="curve" smooth="yes"/>
      <point x="324" y="344"/>
      <point x="314" y="351"/>
      <point x="257" y="351" type="curve" smooth="yes"/>
      <point x="197" y="351"/>
      <point x="165" y="326"/>
      <point x="165" y="293" type="curve" smooth="yes"/>
      <point x="165" y="258"/>
      <point x="210" y="233"/>
      <point x="267" y="233" type="curve" smooth="yes"/>
      <point x="306" y="233"/>
      <point x="345" y="228"/>
      <point x="376" y="206" type="curve" smooth="yes"/>
      <point x="405" y="186"/>
      <point x="423" y="160"/>
      <point x="423" y="125" type="curve" smooth="yes"/>
      <point x="423" y="84"/>
      <point x="408" y="54"/>
      <point x="379" y="32" type="curve" smooth="yes"/>
      <point x="345" y="6"/>
      <point x="316" y="-12"/>
      <point x="239" y="-12" type="curve" smooth="yes"/>
      <point x="172" y="-12"/>
      <point x="132" y="-1"/>
      <point x="102" y="29" type="curve" smooth="yes"/>
      <point x="85" y="47"/>
      <point x="80" y="62"/>
      <point x="99" y="78" type="curve" smooth="yes"/>
      <point x="116" y="92"/>
      <point x="146" y="82"/>
      <point x="157" y="73" type="curve" smooth="yes"/>
      <point x="184" y="52"/>
      <point x="212" y="49"/>
      <point x="236" y="50" type="curve" smooth="yes"/>
      <point x="284" y="51"/>
      <point x="305" y="59"/>
      <point x="325" y="73" type="curve" smooth="yes"/>
      <point x="342" y="86"/>
      <point x="353" y="100"/>
      <point x="353" y="119" type="curve" smooth="yes"/>
      <point x="353" y="132"/>
      <point x="350" y="146"/>
      <point x="334" y="156" type="curve" smooth="yes"/>
      <point x="317" y="166"/>
      <point x="302" y="172"/>
      <point x="262" y="172" type="curve" smooth="yes"/>
      <point x="152" y="172"/>
      <point x="98" y="223"/>
      <point x="98" y="293" type="curve" smooth="yes"/>
      <point x="98" y="367"/>
      <point x="160" y="410"/>
    </contour>
  </outline>
</glyph>
<glyph name="t" format="2">
  <advance width="500"/>
  <unicode hex="0074"/>
  <anchor x="250" y="600" name="top"/>
  <anchor x="280" y="-4" name="cedilla"/>
  <anchor x="280" y="-4" name="ogonek"/>
  <anchor x="262" y="0" name="bottom"/>
  <outline>
    <contour>
      <point x="452" y="57" type="curve" smooth="yes"/>
      <point x="458" y="38"/>
      <point x="435" y="22"/>
      <point x="416" y="16" type="curve" smooth="yes"/>
      <point x="371" y="1"/>
      <point x="334" y="-7"/>
      <point x="280" y="-4" type="curve" smooth="yes"/>
      <point x="245" y="-2"/>
      <point x="210" y="12"/>
      <point x="189" y="44" type="curve" smooth="yes"/>
      <point x="157" y="94"/>
      <point x="162" y="172"/>
      <point x="161" y="195" type="curve" smooth="yes"/>
      <point x="160" y="237"/>
      <point x="162" y="397"/>
      <point x="166" y="541" type="curve" smooth="yes"/>
      <point x="167" y="581"/>
      <point x="177" y="608"/>
      <point x="197" y="607" type="curve" smooth="yes"/>
      <point x="225" y="606"/>
      <point x="230" y="587"/>
      <point x="230" y="540" type="curve" smooth="yes"/>
      <point x="230" y="497"/>
      <point x="229" y="397"/>
      <point x="227" y="257" type="curve" smooth="yes"/>
      <point x="225" y="174"/>
      <point x="222" y="121"/>
      <point x="241" y="89" type="curve" smooth="yes"/>
      <point x="257" y="62"/>
      <point x="283" y="61"/>
      <point x="305" y="60" type="curve" smooth="yes"/>
      <point x="327" y="59"/>
      <point x="362" y="67"/>
      <point x="396" y="77" type="curve" smooth="yes"/>
      <point x="424" y="85"/>
      <point x="445" y="84"/>
    </contour>
    <contour>
      <point x="55" y="374" type="curve" smooth="yes"/>
      <point x="56" y="387"/>
      <point x="66" y="402"/>
      <point x="96" y="402" type="curve" smooth="yes"/>
      <point x="148" y="400"/>
      <point x="251" y="399"/>
      <point x="263" y="399" type="curve" smooth="yes"/>
      <point x="297" y="399"/>
      <point x="331" y="396"/>
      <point x="375" y="399" type="curve" smooth="yes"/>
      <point x="401" y="400"/>
      <point x="413" y="384"/>
      <point x="412" y="365" type="curve" smooth="yes"/>
      <point x="411" y="349"/>
      <point x="392" y="335"/>
      <point x="360" y="335" type="curve" smooth="yes"/>
      <point x="312" y="335"/>
      <point x="265" y="332"/>
      <point x="228" y="334" type="curve" smooth="yes"/>
      <point x="196" y="336"/>
      <point x="108" y="336"/>
      <point x="93" y="339" type="curve" smooth="yes"/>
      <point x="60" y="343"/>
      <point x="54" y="356"/>
    </contour>
  </outline>
</glyph>
<glyph name="u" format="2">
  <advance width="500"/>
  <unicode hex="0075"/>
  <anchor x="250" y="400" name="top"/>
  <anchor x="227" y="-9" name="cedilla"/>
  <anchor x="379" y="-4" name="ogonek"/>
  <anchor x="249" y="0" name="bottom"/>
  <anchor x="368" y="361" name="horn"/>
  <outline>
    <contour>
      <point x="441" y="23" type="curve" smooth="yes"/>
      <point x="438" y="-5"/>
      <point x="400" y="-4"/>
      <point x="379" y="-4" type="curve" smooth="yes"/>
      <point x="333" y="-4"/>
      <point x="333" y="57"/>
      <point x="333" y="68" type="curve" smooth="yes"/>
      <point x="335" y="165"/>
      <point x="330" y="214"/>
      <point x="336" y="322" type="curve" smooth="yes"/>
      <point x="338" y="369"/>
      <point x="337" y="411"/>
      <point x="373" y="406" type="curve" smooth="yes"/>
      <point x="395" y="401"/>
      <point x="404" y="381"/>
      <point x="401" y="327" type="curve" smooth="yes"/>
      <point x="394" y="205"/>
      <point x="396" y="193"/>
      <point x="396" y="87" type="curve" smooth="yes"/>
      <point x="396" y="76"/>
      <point x="394" y="57"/>
      <point x="408" y="55" type="curve" smooth="yes"/>
      <point x="436" y="53"/>
      <point x="443" y="37"/>
    </contour>
    <contour>
      <point x="90" y="348" type="curve" smooth="yes"/>
      <point x="90" y="377"/>
      <point x="104" y="414"/>
      <point x="135" y="409" type="curve" smooth="yes"/>
      <point x="159" y="405"/>
      <point x="155" y="376"/>
      <point x="154" y="333" type="curve" smooth="yes"/>
      <point x="151" y="279"/>
      <point x="148" y="224"/>
      <point x="149" y="169" type="curve" smooth="yes"/>
      <point x="150" y="46"/>
      <point x="192" y="51"/>
      <point x="226" y="54" type="curve" smooth="yes"/>
      <point x="250" y="55"/>
      <point x="316" y="104"/>
      <point x="335" y="207" type="curve"/>
      <point x="348" y="91" type="line"/>
      <point x="314" y="15"/>
      <point x="255" y="-8"/>
      <point x="227" y="-9" type="curve" smooth="yes"/>
      <point x="179" y="-13"/>
      <point x="91" y="-3"/>
      <point x="86" y="156" type="curve" smooth="yes"/>
      <point x="84" y="218"/>
      <point x="90" y="286"/>
    </contour>
  </outline>
</glyph>
<glyph name="v" format="2">
  <advance width="500"/>
  <unicode hex="0076"/>
  <anchor x="250" y="400" name="top"/>
  <anchor x="250" y="-9" name="cedilla"/>
  <anchor x="250" y="-9" name="ogonek"/>
  <anchor x="250" y="0" name="bottom"/>
  <outline>
    <contour>
      <point x="68" y="408" type="curve" smooth="yes"/>
      <point x="87" y="413"/>
      <point x="95" y="407"/>
      <point x="113" y="379" type="curve" smooth="yes"/>
      <point x="150" y="323"/>
      <point x="231" y="143"/>
      <point x="249" y="90" type="curve"/>
      <point x="278" y="168"/>
      <point x="332" y="274"/>
      <point x="387" y="379" type="curve" smooth="yes"/>
      <point x="402" y="408"/>
      <point x="423" y="409"/>
      <point x="430" y="407" type="curve" smooth="yes"/>
      <point x="455" y="398"/>
      <point x="455" y="375"/>
      <point x="443" y="350" type="curve" smooth="yes"/>
      <point x="373" y="208"/>
      <point x="355" y="177"/>
      <point x="297" y="43" type="curve" smooth="yes"/>
      <point x="285" y="15"/>
      <point x="270" y="-9"/>
      <point x="250" y="-9" type="curve" smooth="yes"/>
      <point x="231" y="-9"/>
      <point x="218" y="12"/>
      <point x="204" y="43" type="curve" smooth="yes"/>
      <point x="135" y="192"/>
      <point x="119" y="240"/>
      <point x="55" y="356" type="curve" smooth="yes"/>
      <point x="45" y="375"/>
      <point x="49" y="404"/>
    </contour>
  </outline>
</glyph>
<glyph name="w" format="2">
  <advance width="500"/>
  <unicode hex="0077"/>
  <anchor x="250" y="400" name="top"/>
  <anchor x="156" y="-9" name="cedilla"/>
  <anchor x="345" y="-9" name="ogonek"/>
  <anchor x="250" y="0" name="bottom"/>
  <outline>
    <contour>
      <point x="61" y="408" type="curve" smooth="yes"/>
      <point x="67" y="409"/>
      <point x="85" y="404"/>
      <point x="91" y="371" type="curve" smooth="yes"/>
      <point x="106" y="288"/>
      <point x="148" y="173"/>
      <point x="158" y="86" type="curve"/>
      <point x="183" y="162"/>
      <point x="204" y="196"/>
      <point x="219" y="230" type="curve" smooth="yes"/>
      <point x="232" y="261"/>
      <point x="239" y="267"/>
      <point x="250" y="267" type="curve" smooth="yes"/>
      <point x="261" y="267"/>
      <point x="269" y="261"/>
      <point x="281" y="230" type="curve" smooth="yes"/>
      <point x="304" y="172"/>
      <point x="317" y="157"/>
      <point x="341" y="85" type="curve"/>
      <point x="357" y="196"/>
      <point x="389.09140468324057" y="279.09322185512264"/>
      <point x="409" y="372" type="curve" smooth="yes"/>
      <point x="417" y="404"/>
      <point x="436" y="408"/>
      <point x="442" y="407" type="curve" smooth="yes"/>
      <point x="471" y="400"/>
      <point x="473" y="373"/>
      <point x="468" y="352" type="curve" smooth="yes"/>
      <point x="442.95816585767807" y="261.223351234083"/>
      <point x="416" y="145"/>
      <point x="394" y="50" type="curve" smooth="yes"/>
      <point x="387" y="18"/>
      <point x="374" y="-8"/>
      <point x="345" y="-9" type="curve" smooth="yes"/>
      <point x="312" y="-11"/>
      <point x="306" y="20"/>
      <point x="291" y="53" type="curve" smooth="yes"/>
      <point x="269" y="101"/>
      <point x="266" y="112"/>
      <point x="250" y="154" type="curve"/>
      <point x="234" y="111"/>
      <point x="224" y="95"/>
      <point x="209" y="53" type="curve" smooth="yes"/>
      <point x="197" y="19"/>
      <point x="187" y="-11"/>
      <point x="156" y="-9" type="curve" smooth="yes"/>
      <point x="127" y="-8"/>
      <point x="112" y="18"/>
      <point x="107" y="51" type="curve" smooth="yes"/>
      <point x="93.16742505882846" y="133.9954496470293"/>
      <point x="46.557519555195654" y="264.93364244642396"/>
      <point x="30" y="356" type="curve" smooth="yes"/>
      <point x="27" y="377"/>
      <point x="31" y="404"/>
    </contour>
  </outline>
</glyph>
<glyph name="x" format="2">
  <advance width="500"/>
  <unicode hex="0078"/>
  <anchor x="250" y="400" name="top"/>
  <anchor x="108" y="1" name="cedilla"/>
  <anchor x="389" y="4" name="ogonek"/>
  <anchor x="250" y="0" name="bottom"/>
  <outline>
    <contour>
      <point x="71" y="399" type="curve" smooth="yes"/>
      <point x="75" y="403"/>
      <point x="99" y="418"/>
      <point x="122" y="395" type="curve" smooth="yes"/>
      <point x="187" y="329"/>
      <point x="352" y="130"/>
      <point x="401" y="76" type="curve" smooth="yes"/>
      <point x="434" y="44"/>
      <point x="447" y="21"/>
      <point x="428" y="0" type="curve" smooth="yes"/>
      <point x="414" y="-16"/>
      <point x="384" y="1"/>
      <point x="354" y="32" type="curve" smooth="yes"/>
      <point x="277" y="111"/>
      <point x="163" y="270"/>
      <point x="86" y="342" type="curve" smooth="yes"/>
      <point x="71" y="356"/>
      <point x="53" y="383"/>
    </contour>
    <contour>
      <point x="429" y="399" type="curve" smooth="yes"/>
      <point x="447" y="383"/>
      <point x="428" y="357"/>
      <point x="414" y="342" type="curve" smooth="yes"/>
      <point x="339" y="263"/>
      <point x="225" y="111"/>
      <point x="148" y="32" type="curve" smooth="yes"/>
      <point x="118" y="1"/>
      <point x="86" y="-16"/>
      <point x="72" y="0" type="curve" smooth="yes"/>
      <point x="53" y="21"/>
      <point x="66" y="44"/>
      <point x="99" y="76" type="curve" smooth="yes"/>
      <point x="150" y="126"/>
      <point x="306" y="323"/>
      <point x="378" y="395" type="curve" smooth="yes"/>
      <point x="401" y="418"/>
      <point x="425" y="403"/>
    </contour>
  </outline>
</glyph>
<glyph name="y" format="2">
  <advance width="500"/>
  <unicode hex="0079"/>
  <anchor x="250" y="400" name="top"/>
  <anchor x="214" y="-113" name="cedilla"/>
  <anchor x="214" y="-113" name="ogonek"/>
  <anchor x="239" y="-100" name="bottom"/>
  <outline>
    <contour>
      <point x="55" y="-16" type="curve" smooth="yes"/>
      <point x="73" y="3"/>
      <point x="93" y="-3"/>
      <point x="115" y="-22" type="curve" smooth="yes"/>
      <point x="138" y="-42"/>
      <point x="159" y="-48"/>
      <point x="207" y="-50" type="curve" smooth="yes"/>
      <point x="249" y="-50"/>
      <point x="263" y="-17"/>
      <point x="286" y="58" type="curve" smooth="yes"/>
      <point x="299" y="101"/>
      <point x="314" y="139"/>
      <point x="333" y="200" type="curve" smooth="yes"/>
      <point x="362" y="282"/>
      <point x="371" y="323"/>
      <point x="383" y="359" type="curve" smooth="yes"/>
      <point x="392" y="390"/>
      <point x="406" y="417"/>
      <point x="434" y="411" type="curve" smooth="yes"/>
      <point x="462" y="405"/>
      <point x="450" y="364"/>
      <point x="437" y="321" type="curve" smooth="yes"/>
      <point x="422" y="270"/>
      <point x="403" y="208"/>
      <point x="394" y="181" type="curve" smooth="yes"/>
      <point x="379" y="136"/>
      <point x="354" y="48"/>
      <point x="347" y="26" type="curve" smooth="yes"/>
      <point x="322" y="-43"/>
      <point x="313" y="-111"/>
      <point x="214" y="-113" type="curve" smooth="yes"/>
      <point x="147" y="-113"/>
      <point x="108" y="-94"/>
      <point x="73" y="-71" type="curve" smooth="yes"/>
      <point x="53" y="-56"/>
      <point x="42" y="-31"/>
    </contour>
    <contour>
      <point x="82" y="410" type="curve" smooth="yes"/>
      <point x="105" y="415"/>
      <point x="120" y="405"/>
      <point x="127" y="377" type="curve" smooth="yes"/>
      <point x="162" y="241"/>
      <point x="193" y="193"/>
      <point x="253" y="150" type="curve" smooth="yes"/>
      <point x="278" y="132"/>
      <point x="301" y="134"/>
      <point x="339" y="131" type="curve"/>
      <point x="323" y="69" type="line"/>
      <point x="289" y="70"/>
      <point x="251" y="73"/>
      <point x="223" y="93" type="curve" smooth="yes"/>
      <point x="154" y="142"/>
      <point x="99" y="210"/>
      <point x="68" y="360" type="curve" smooth="yes"/>
      <point x="61" y="392"/>
      <point x="71" y="408"/>
    </contour>
  </outline>
</glyph>
<glyph name="z" format="2">
  <advance width="500"/>
  <unicode hex="007A"/>
  <anchor x="250" y="400" name="top"/>
  <anchor x="234" y="2" name="cedilla"/>
  <anchor x="315" y="3" name="ogonek"/>
  <anchor x="250" y="0" name="bottom"/>
  <outline>
    <contour>
      <point x="400" y="402" type="curve" smooth="yes"/>
      <point x="439" y="404"/>
      <point x="438" y="366"/>
      <point x="419" y="341" type="curve" smooth="yes"/>
      <point x="409" y="327"/>
      <point x="356" y="261"/>
      <point x="299" y="202" type="curve" smooth="yes"/>
      <point x="251" y="152"/>
      <point x="211" y="110"/>
      <point x="151" y="56" type="curve"/>
      <point x="157" y="58"/>
      <point x="170" y="62"/>
      <point x="184" y="63" type="curve" smooth="yes"/>
      <point x="247" y="66"/>
      <point x="367" y="66"/>
      <point x="396" y="63" type="curve" smooth="yes"/>
      <point x="426" y="60"/>
      <point x="444" y="52"/>
      <point x="444" y="28" type="curve" smooth="yes"/>
      <point x="444" y="12"/>
      <point x="435" y="-1"/>
      <point x="407" y="1" type="curve" smooth="yes"/>
      <point x="372" y="3"/>
      <point x="336" y="2"/>
      <point x="315" y="3" type="curve" smooth="yes"/>
      <point x="252" y="5"/>
      <point x="274" y="2"/>
      <point x="180" y="0" type="curve" smooth="yes"/>
      <point x="132" y="-1"/>
      <point x="107" y="-2"/>
      <point x="91" y="-2" type="curve" smooth="yes"/>
      <point x="74" y="-2"/>
      <point x="64" y="7"/>
      <point x="65" y="25" type="curve" smooth="yes"/>
      <point x="66" y="42"/>
      <point x="66" y="45"/>
      <point x="99" y="81" type="curve" smooth="yes"/>
      <point x="207" y="199"/>
      <point x="253" y="234"/>
      <point x="349" y="344" type="curve"/>
      <point x="323" y="335"/>
      <point x="322" y="337"/>
      <point x="299" y="336" type="curve" smooth="yes"/>
      <point x="234" y="336"/>
      <point x="197" y="339"/>
      <point x="108" y="338" type="curve" smooth="yes"/>
      <point x="78" y="338"/>
      <point x="69" y="353"/>
      <point x="68" y="371" type="curve" smooth="yes"/>
      <point x="68" y="384"/>
      <point x="81" y="400"/>
      <point x="108" y="400" type="curve" smooth="yes"/>
      <point x="179" y="400"/>
      <point x="246" y="398"/>
      <point x="323" y="400" type="curve" smooth="yes"/>
      <point x="358" y="401"/>
      <point x="384" y="401"/>
    </contour>
  </outline>
</glyph>
<glyph name="braceleft" format="2">
  <advance width="500"/>
  <unicode hex="007B"/>
  <outline>
    <contour>
      <point x="85" y="300" type="curve" smooth="yes"/>
      <point x="85" y="367"/>
      <point x="231" y="349"/>
      <point x="231" y="397" type="curve" smooth="yes"/>
      <point x="231" y="456"/>
      <point x="123" y="443"/>
      <point x="123" y="544" type="curve" smooth="yes"/>
      <point x="123" y="586"/>
      <point x="159" y="656"/>
      <point x="226" y="675" type="curve" smooth="yes"/>
      <point x="302" y="698"/>
      <point x="379" y="674"/>
      <point x="404" y="659" type="curve" smooth="yes"/>
      <point x="436" y="640"/>
      <point x="449" y="618"/>
      <point x="433" y="599" type="curve" smooth="yes"/>
      <point x="421" y="585"/>
      <point x="399" y="595"/>
      <point x="371" y="610" type="curve" smooth="yes"/>
      <point x="354" y="619"/>
      <point x="307" y="636"/>
      <point x="244" y="621" type="curve" smooth="yes"/>
      <point x="207" y="612"/>
      <point x="188" y="574"/>
      <point x="187" y="547" type="curve" smooth="yes"/>
      <point x="184" y="483"/>
      <point x="291" y="493"/>
      <point x="292" y="387" type="curve" smooth="yes"/>
      <point x="292" y="334"/>
      <point x="209" y="317"/>
      <point x="155" y="300" type="curve"/>
      <point x="209" y="279"/>
      <point x="292" y="257"/>
      <point x="293" y="196" type="curve" smooth="yes"/>
      <point x="294" y="135"/>
      <point x="202" y="90"/>
      <point x="202" y="37" type="curve" smooth="yes"/>
      <point x="202" y="4"/>
      <point x="215" y="-37"/>
      <point x="244" y="-42" type="curve" smooth="yes"/>
      <point x="298" y="-53"/>
      <point x="356" y="-26"/>
      <point x="384" y="-8" type="curve" smooth="yes"/>
      <point x="402" y="3"/>
      <point x="428" y="-6"/>
      <point x="433" y="-21" type="curve" smooth="yes"/>
      <point x="438" y="-35"/>
      <point x="430" y="-64"/>
      <point x="384" y="-82" type="curve" smooth="yes"/>
      <point x="367" y="-89"/>
      <point x="290" y="-118"/>
      <point x="217" y="-103" type="curve" smooth="yes"/>
      <point x="162" y="-91"/>
      <point x="133" y="-11"/>
      <point x="133" y="35" type="curve" smooth="yes"/>
      <point x="133" y="118"/>
      <point x="230" y="155"/>
      <point x="230" y="188" type="curve" smooth="yes"/>
      <point x="230" y="235"/>
      <point x="85" y="228"/>
    </contour>
  </outline>
</glyph>
<glyph name="bar" format="2">
  <advance width="500"/>
  <unicode hex="007C"/>
  <outline>
    <contour>
      <point x="256" y="682" type="curve" smooth="yes"/>
      <point x="263" y="682"/>
      <point x="281" y="674"/>
      <point x="281" y="641" type="curve" smooth="yes"/>
      <point x="282" y="523"/>
      <point x="284" y="511"/>
      <point x="281" y="301" type="curve" smooth="yes"/>
      <point x="279" y="96"/>
      <point x="281" y="115"/>
      <point x="282" y="-45" type="curve" smooth="yes"/>
      <point x="282" y="-83"/>
      <point x="282" y="-108"/>
      <point x="251" y="-108" type="curve" smooth="yes"/>
      <point x="219" y="-108"/>
      <point x="215" y="-76"/>
      <point x="216" y="-44" type="curve" smooth="yes"/>
      <point x="216" y="-38"/>
      <point x="214" y="70"/>
      <point x="217" y="281" type="curve" smooth="yes"/>
      <point x="220" y="534"/>
      <point x="216" y="561"/>
      <point x="217" y="636" type="curve" smooth="yes"/>
      <point x="217" y="657"/>
      <point x="225" y="683"/>
    </contour>
  </outline>
</glyph>
<glyph name="asciitilde" format="2">
  <advance width="500"/>
  <unicode hex="007E"/>
  <outline>
    <contour>
      <point x="404" y="407" type="curve" smooth="yes"/>
      <point x="420" y="408"/>
      <point x="441" y="399"/>
      <point x="443" y="370" type="curve" smooth="yes"/>
      <point x="451" y="286"/>
      <point x="438" y="190"/>
      <point x="331" y="188" type="curve" smooth="yes"/>
      <point x="229" y="186"/>
      <point x="206" y="342"/>
      <point x="157" y="343" type="curve" smooth="yes"/>
      <point x="123" y="344"/>
      <point x="115" y="300"/>
      <point x="120" y="236" type="curve" smooth="yes"/>
      <point x="122" y="205"/>
      <point x="108" y="188"/>
      <point x="89" y="188" type="curve" smooth="yes"/>
      <point x="69" y="188"/>
      <point x="55" y="205"/>
      <point x="53" y="239" type="curve" smooth="yes"/>
      <point x="49" y="321"/>
      <point x="53" y="409"/>
      <point x="160" y="411" type="curve" smooth="yes"/>
      <point x="255" y="412"/>
      <point x="274" y="248"/>
      <point x="330" y="252" type="curve" smooth="yes"/>
      <point x="372" y="255"/>
      <point x="381" y="284"/>
      <point x="376" y="363" type="curve" smooth="yes"/>
      <point x="374" y="391"/>
      <point x="385" y="403"/>
    </contour>
  </outline>
</glyph>
<glyph name="cent" format="2">
  <advance width="500"/>
  <unicode hex="00A2"/>
  <outline>
    <contour>
      <point x="370" y="96" type="curve" smooth="yes"/>
      <point x="382" y="106"/>
      <point x="411" y="115"/>
      <point x="422" y="103" type="curve" smooth="yes"/>
      <point x="432" y="92"/>
      <point x="438" y="79"/>
      <point x="417" y="53" type="curve" smooth="yes"/>
      <point x="369" y="-4"/>
      <point x="322" y="-7"/>
      <point x="261" y="-10" type="curve" smooth="yes"/>
      <point x="151" y="-16"/>
      <point x="61" y="53"/>
      <point x="61" y="200" type="curve" smooth="yes"/>
      <point x="61" y="363"/>
      <point x="147" y="413"/>
      <point x="255" y="413" type="curve" smooth="yes"/>
      <point x="327" y="413"/>
      <point x="360" y="406"/>
      <point x="422" y="353" type="curve" smooth="yes"/>
      <point x="436" y="340"/>
      <point x="432" y="319"/>
      <point x="423" y="310" type="curve" smooth="yes"/>
      <point x="406" y="292"/>
      <point x="376" y="314"/>
      <point x="354" y="328" type="curve" smooth="yes"/>
      <point x="321" y="350"/>
      <point x="292" y="350"/>
      <point x="256" y="350" type="curve" smooth="yes"/>
      <point x="185" y="350"/>
      <point x="126" y="312"/>
      <point x="126" y="200" type="curve" smooth="yes"/>
      <point x="126" y="95"/>
      <point x="186" y="54"/>
      <point x="262" y="54" type="curve" smooth="yes"/>
      <point x="293" y="54"/>
      <point x="327" y="59"/>
    </contour>
    <contour>
      <point x="267" y="499" type="curve" smooth="yes"/>
      <point x="273" y="499"/>
      <point x="290" y="491"/>
      <point x="290" y="458" type="curve" smooth="yes"/>
      <point x="291" y="340"/>
      <point x="293" y="508"/>
      <point x="290" y="298" type="curve" smooth="yes"/>
      <point x="288" y="93"/>
      <point x="290" y="142"/>
      <point x="291" y="-18" type="curve" smooth="yes"/>
      <point x="291" y="-56"/>
      <point x="291" y="-81"/>
      <point x="262" y="-81" type="curve" smooth="yes"/>
      <point x="232" y="-81"/>
      <point x="228" y="-49"/>
      <point x="229" y="-17" type="curve" smooth="yes"/>
      <point x="229" y="-11"/>
      <point x="227" y="67"/>
      <point x="230" y="278" type="curve" smooth="yes"/>
      <point x="233" y="531"/>
      <point x="229" y="378"/>
      <point x="230" y="453" type="curve" smooth="yes"/>
      <point x="230" y="474"/>
      <point x="238" y="500"/>
    </contour>
  </outline>
</glyph>
<glyph name="sterling" format="2">
  <advance width="500"/>
  <unicode hex="00A3"/>
  <outline>
    <contour>
      <point x="170" y="465" type="curve" smooth="yes"/>
      <point x="171" y="504"/>
      <point x="188" y="553"/>
      <point x="271" y="553" type="curve" smooth="yes"/>
      <point x="319" y="553"/>
      <point x="358" y="496"/>
      <point x="358" y="460" type="curve" smooth="yes"/>
      <point x="356" y="438"/>
      <point x="369" y="416"/>
      <point x="385" y="414" type="curve" smooth="yes"/>
      <point x="400" y="414"/>
      <point x="417" y="432"/>
      <point x="417" y="447" type="curve" smooth="yes"/>
      <point x="417" y="551"/>
      <point x="367" y="611"/>
      <point x="275" y="611" type="curve" smooth="yes"/>
      <point x="192" y="611"/>
      <point x="116" y="574"/>
      <point x="108" y="471" type="curve" smooth="yes"/>
      <point x="102" y="395"/>
      <point x="132" y="368"/>
      <point x="146" y="299" type="curve" smooth="yes"/>
      <point x="173" y="166"/>
      <point x="55" y="97"/>
      <point x="55" y="19" type="curve"/>
      <point x="132" y="25" type="line"/>
      <point x="149" y="118"/>
      <point x="210" y="153"/>
      <point x="212" y="243" type="curve" smooth="yes"/>
      <point x="214" y="355"/>
      <point x="169" y="396"/>
    </contour>
    <contour>
      <point x="55" y="19" type="curve" smooth="yes"/>
      <point x="55" y="0"/>
      <point x="63" y="-11"/>
      <point x="95" y="-9" type="curve" smooth="yes"/>
      <point x="147" y="-6"/>
      <point x="191" y="31"/>
      <point x="232" y="31" type="curve" smooth="yes"/>
      <point x="300" y="31"/>
      <point x="338" y="-30"/>
      <point x="437" y="20" type="curve" smooth="yes"/>
      <point x="461" y="32"/>
      <point x="468" y="46"/>
      <point x="461" y="63" type="curve" smooth="yes"/>
      <point x="455" y="77"/>
      <point x="432" y="89"/>
      <point x="401" y="75" type="curve" smooth="yes"/>
      <point x="330" y="44"/>
      <point x="330" y="92"/>
      <point x="228" y="91" type="curve" smooth="yes"/>
      <point x="162" y="90"/>
      <point x="123" y="56"/>
      <point x="101" y="54" type="curve" smooth="yes"/>
      <point x="73" y="51"/>
      <point x="55" y="39"/>
    </contour>
    <contour>
      <point x="55" y="260" type="curve" smooth="yes"/>
      <point x="55" y="244"/>
      <point x="65" y="236"/>
      <point x="93" y="232" type="curve" smooth="yes"/>
      <point x="111" y="229"/>
      <point x="210" y="230"/>
      <point x="241" y="230" type="curve" smooth="yes"/>
      <point x="278" y="231"/>
      <point x="312" y="230"/>
      <point x="359" y="231" type="curve" smooth="yes"/>
      <point x="394" y="232"/>
      <point x="411" y="238"/>
      <point x="411" y="259" type="curve" smooth="yes"/>
      <point x="411" y="278"/>
      <point x="397" y="289"/>
      <point x="374" y="290" type="curve" smooth="yes"/>
      <point x="342" y="292"/>
      <point x="282" y="289"/>
      <point x="249" y="289" type="curve" smooth="yes"/>
      <point x="237" y="289"/>
      <point x="149" y="291"/>
      <point x="97" y="291" type="curve" smooth="yes"/>
      <point x="68" y="291"/>
      <point x="55" y="276"/>
    </contour>
  </outline>
</glyph>
<glyph name="yen" format="2">
  <advance width="500"/>
  <unicode hex="00A5"/>
  <outline>
    <contour>
      <point x="50" y="330" type="curve" smooth="yes"/>
      <point x="50" y="346"/>
      <point x="63" y="361"/>
      <point x="92" y="361" type="curve" smooth="yes"/>
      <point x="144" y="361"/>
      <point x="252" y="359"/>
      <point x="264" y="359" type="curve" smooth="yes"/>
      <point x="297" y="359"/>
      <point x="377" y="362"/>
      <point x="409" y="360" type="curve" smooth="yes"/>
      <point x="432" y="359"/>
      <point x="446" y="348"/>
      <point x="446" y="329" type="curve" smooth="yes"/>
      <point x="446" y="308"/>
      <point x="429" y="302"/>
      <point x="394" y="301" type="curve" smooth="yes"/>
      <point x="347" y="300"/>
      <point x="293" y="301"/>
      <point x="256" y="300" type="curve" smooth="yes"/>
      <point x="225" y="300"/>
      <point x="106" y="299"/>
      <point x="88" y="302" type="curve" smooth="yes"/>
      <point x="60" y="306"/>
      <point x="50" y="314"/>
    </contour>
    <contour>
      <point x="50" y="230" type="curve" smooth="yes"/>
      <point x="50" y="246"/>
      <point x="63" y="261"/>
      <point x="92" y="261" type="curve" smooth="yes"/>
      <point x="144" y="261"/>
      <point x="252" y="259"/>
      <point x="264" y="259" type="curve" smooth="yes"/>
      <point x="297" y="259"/>
      <point x="377" y="262"/>
      <point x="409" y="260" type="curve" smooth="yes"/>
      <point x="432" y="259"/>
      <point x="446" y="248"/>
      <point x="446" y="229" type="curve" smooth="yes"/>
      <point x="446" y="208"/>
      <point x="429" y="202"/>
      <point x="394" y="201" type="curve" smooth="yes"/>
      <point x="347" y="200"/>
      <point x="293" y="201"/>
      <point x="256" y="200" type="curve" smooth="yes"/>
      <point x="225" y="200"/>
      <point x="106" y="199"/>
      <point x="88" y="202" type="curve" smooth="yes"/>
      <point x="60" y="206"/>
      <point x="50" y="214"/>
    </contour>
    <component base="Y"/>
  </outline>
</glyph>
